<svg xmlns="http://www.w3.org/2000/svg" width="800" height="553.3164" viewBox="0 0 800 553.3164"><defs><style>.cls-1{fill:#fff;}.cls-2{fill:#f7f5ea;}.cls-3{fill:#49545a;}.cls-4{fill:#d5d5d5;}.cls-10,.cls-12,.cls-25,.cls-5,.cls-7{fill:none;stroke-width:1.4173px;}.cls-5{stroke:#0094d8;}.cls-10,.cls-11,.cls-12,.cls-13,.cls-25,.cls-26,.cls-5,.cls-6,.cls-7,.cls-8{stroke-miterlimit:10;}.cls-6{fill:#0094d8;}.cls-11,.cls-13,.cls-26,.cls-6,.cls-8{stroke:#fefefe;stroke-width:0.2268px;}.cls-11,.cls-13,.cls-16,.cls-17,.cls-18,.cls-19,.cls-20,.cls-21,.cls-22,.cls-23,.cls-24,.cls-26,.cls-6,.cls-8,.cls-9{fill-rule:evenodd;}.cls-7{stroke:#eb008a;}.cls-8{fill:#eb008a;}.cls-9{fill:#d0e188;}.cls-10{stroke:#a4cd3c;}.cls-11{fill:#a4cd3c;}.cls-12{stroke:#babcbe;}.cls-13{fill:#babcbe;}.cls-14,.cls-19{fill:#53c4ce;}.cls-15{fill:#ff4942;}.cls-16{fill:#eaeaea;}.cls-17{fill:#0e62a3;}.cls-18{fill:#7ccdf2;}.cls-20{fill:#e6e6e6;}.cls-21{fill:#fec012;}.cls-22{fill:#616161;}.cls-23{fill:#f55652;}.cls-24{fill:#fff485;}.cls-25{stroke:#ffc916;}.cls-26{fill:#ffc916;}</style></defs><title>file</title><g id="Layer_3" data-name="Layer 3"><rect class="cls-1" width="800" height="800"/></g><g id="Layer_2" data-name="Layer 2"><rect class="cls-2" x="20" y="20" width="760" height="760"/></g><g id="Layer_1" data-name="Layer 1"><path class="cls-3" d="M47.6006,55.9121h.0307l3.24-9.2519h3.27V59.2148H51.6191V50.6465h-.0317l-3.1147,8.5683h-1.712l-3.0859-8.5976-.0615.0293v8.5683H41.0879V46.66h3.3027Zm8.2851-1.4316a4.9622,4.9622,0,0,1,1.1524-3.4278,4.5869,4.5869,0,0,1,6.48,0A4.9574,4.9574,0,0,1,64.67,54.4805v.1552a5.0328,5.0328,0,0,1-1.1523,3.4571,4.6647,4.6647,0,0,1-6.48,0,5.0377,5.0377,0,0,1-1.1524-3.4571Zm2.4922.1552a3.8679,3.8679,0,0,0,.4668,2.0557,1.4986,1.4986,0,0,0,1.4341.7783,1.523,1.523,0,0,0,1.4312-.7783,3.8577,3.8577,0,0,0,.4687-2.0557v-.1552a3.8222,3.8222,0,0,0-.4687-2.0264,1.6724,1.6724,0,0,0-2.8653,0,3.9053,3.9053,0,0,0-.4668,2.0264ZM71.15,52.0508l-.9346-.0313a1.5487,1.5487,0,0,0-.9048.2491,1.4322,1.4322,0,0,0-.56.6543v6.2919H66.2275V49.9h2.336l.125,1.3711a2.9786,2.9786,0,0,1,.8418-1.1524,2.0247,2.0247,0,0,1,1.2129-.4062c.125,0,.2509.0322.3427.0322.0948.0313.22.0635.3125.0928Zm6.1987,0-.9038-.0313a1.7292,1.7292,0,0,0-.9355.2491,1.4456,1.4456,0,0,0-.56.6543v6.2919H72.459V49.9h2.3359l.0933,1.3711a3.0061,3.0061,0,0,1,.8735-1.1524,2.0005,2.0005,0,0,1,1.1826-.4062c.1231,0,.2491.0322.3428.0322.1231.0313.2183.0635.3428.0928Zm3.9556,7.164H78.7822V49.9h2.5225Zm0-11.5556H78.7822V45.7578h2.5225ZM88.44,56.6279a.9583.9583,0,0,0-.4068-.7158,4.1527,4.1527,0,0,0-1.4956-.499,6.03,6.03,0,0,1-2.4922-.9961,2.19,2.19,0,0,1-.84-1.8066,2.569,2.569,0,0,1,1.0263-2.0567,4.0434,4.0434,0,0,1,2.712-.8408,4.5214,4.5214,0,0,1,2.8349.8408,2.53,2.53,0,0,1,.9971,2.1192v.0625h-2.43a1.2844,1.2844,0,0,0-.3735-.9356,1.5245,1.5245,0,0,0-1.0283-.3408,1.3386,1.3386,0,0,0-.9668.31.8751.8751,0,0,0,0,1.4336,3.7832,3.7832,0,0,0,1.4961.4658,6.379,6.379,0,0,1,2.5537,1.0284,2.21,2.21,0,0,1,.8408,1.8379,2.3861,2.3861,0,0,1-1.0889,2.0556,4.6342,4.6342,0,0,1-2.8349.8106,4.3026,4.3026,0,0,1-2.93-.9336,2.51,2.51,0,0,1-1.0264-2.15v-.0615H85.293a1.2586,1.2586,0,0,0,.498,1.0888,2.0636,2.0636,0,0,0,1.2139.3438,1.714,1.714,0,0,0,1.0586-.28.9459.9459,0,0,0,.376-.78Zm18.0664-1.5556v.0307a3.8824,3.8824,0,0,1-1.2149,3.146,4.9219,4.9219,0,0,1-3.4888,1.1524,4.8587,4.8587,0,0,1-3.646-1.4649,5.12,5.12,0,0,1-1.3691-3.7373V51.707A5.3588,5.3588,0,0,1,98.126,47.94a4.639,4.639,0,0,1,3.5508-1.4649,5.2551,5.2551,0,0,1,3.583,1.1211,3.9359,3.9359,0,0,1,1.2754,3.1768l-.0293.0312h-2.4292a2.1,2.1,0,0,0-2.4-2.3672,1.94,1.94,0,0,0-1.7432.9033,3.8461,3.8461,0,0,0-.6553,2.337v2.5224a3.8108,3.8108,0,0,0,.6846,2.3662,2.1753,2.1753,0,0,0,1.8393.9043,2.1308,2.1308,0,0,0,1.6822-.5908,2.5744,2.5744,0,0,0,.5586-1.8066Zm4.0781-3.9883a2.9369,2.9369,0,0,1,1.0615-.9971,2.8,2.8,0,0,1,1.4316-.374,2.9148,2.9148,0,0,1,2.2745.9668,4.5145,4.5145,0,0,1,.8418,2.9892v5.5459H113.67V53.6689a2.6177,2.6177,0,0,0-.3437-1.5244,1.2577,1.2577,0,0,0-1.0576-.4677,2.4922,2.4922,0,0,0-.9991.1855,1.9816,1.9816,0,0,0-.6855.53v6.8222h-2.523V45.7578h2.523Zm12.99,8.1308a5.947,5.947,0,0,1-.2168-.6533,6.3631,6.3631,0,0,1-.1572-.748,3.2871,3.2871,0,0,1-1.0264,1.1513,2.6426,2.6426,0,0,1-1.4961.4366,3.1721,3.1721,0,0,1-2.2734-.7491,2.6691,2.6691,0,0,1-.7783-2.0537,2.3929,2.3929,0,0,1,1.0576-2.1181,4.952,4.952,0,0,1,3.0537-.7784h1.4336v-.7177a1.5484,1.5484,0,0,0-.3428-1.0586,1.4219,1.4219,0,0,0-1.0615-.374,1.3818,1.3818,0,0,0-.9629.31,1.0132,1.0132,0,0,0-.3125.8106h-2.43V52.61a2.2477,2.2477,0,0,1,1.0279-2.0245,4.2862,4.2862,0,0,1,2.834-.873,4.1586,4.1586,0,0,1,2.7128.8408,2.8989,2.8989,0,0,1,1.0577,2.4307v3.8623a7.184,7.184,0,0,0,.0947,1.2168,4.8764,4.8764,0,0,0,.3086,1.1513Zm-2.2724-1.6816a2.0674,2.0674,0,0,0,1.1523-.3125,1.7108,1.7108,0,0,0,.7168-.7783v-1.31h-1.4336a1.5152,1.5152,0,0,0-1.1846.4072,1.2727,1.2727,0,0,0-.4345.9649,1.0334,1.0334,0,0,0,.3095.7471,1.2877,1.2877,0,0,0,.8741.2812Zm11.1836-5.4824-.9366-.0313a1.5371,1.5371,0,0,0-.9023.2491,1.4323,1.4323,0,0,0-.5615.6543v6.2919h-2.5235V49.9h2.3369l.1241,1.3711a2.9971,2.9971,0,0,1,.8408-1.1524,2.036,2.036,0,0,1,1.2148-.4062c.126,0,.25.0322.3428.0322.0933.0313.22.0635.3105.0928Zm4.4853-4.4551V49.9h1.5557v1.7441h-1.5557v4.7671a1.0632,1.0632,0,0,0,.2168.7788.7824.7824,0,0,0,.5928.2178h.3427c.0918-.0308.2178-.0635.3418-.0937l.2188,1.8378a6.8573,6.8573,0,0,1-.7471.189,6.6847,6.6847,0,0,1-.7793.06,2.6881,2.6881,0,0,1-1.9941-.7168,3.153,3.153,0,0,1-.7153-2.273V51.6445h-1.3726V49.9h1.3726V47.5957Zm8.1606,9.0322a.8714.8714,0,0,0-.4057-.7158,3.9312,3.9312,0,0,0-1.4951-.499,6.2163,6.2163,0,0,1-2.4937-.9961,2.191,2.191,0,0,1-.84-1.8066,2.5682,2.5682,0,0,1,1.0283-2.0567,4.1569,4.1569,0,0,1,2.7119-.8408,4.4558,4.4558,0,0,1,2.834.8408,2.53,2.53,0,0,1,.9971,2.1192v.0625h-2.4307a1.2754,1.2754,0,0,0-.3745-.9356,1.46,1.46,0,0,0-1.0259-.3408,1.3856,1.3856,0,0,0-.9663.31.843.843,0,0,0-.3423.7168.9351.9351,0,0,0,.3423.7168,3.7629,3.7629,0,0,0,1.4946.4658,6.3778,6.3778,0,0,1,2.5537,1.0284,2.202,2.202,0,0,1,.8409,1.8379,2.428,2.428,0,0,1-1.0576,2.0556,4.7264,4.7264,0,0,1-2.8653.8106,4.3028,4.3028,0,0,1-2.93-.9336,2.6879,2.6879,0,0,1-1.0273-2.15v-.0615h2.3057a1.3474,1.3474,0,0,0,.498,1.0888,2.0656,2.0656,0,0,0,1.2139.3438,1.7294,1.7294,0,0,0,1.0615-.28.9507.9507,0,0,0,.3725-.78Z"/><path class="cls-3" d="M42.584,105.1924h3.708V106.47h-5.36V98.1836H42.584Zm6.4482,1.2778h-1.65v-6.1684h1.65Zm0-7.6313h-1.65V97.5918h1.65Zm2.8985,1.4629.0615.873a2.3066,2.3066,0,0,1,.748-.7168,1.9508,1.9508,0,0,1,1.0284-.2812,1.7726,1.7726,0,0,1,1.4326.622,2.7306,2.7306,0,0,1,.5273,1.9v3.771H54.08v-3.771a1.4692,1.4692,0,0,0-.249-.9346.8323.8323,0,0,0-.6856-.2792,1.4429,1.4429,0,0,0-.6543.125,1.1538,1.1538,0,0,0-.4678.4052V106.47H50.3711v-6.1684Zm7.7255,6.2919a2.6389,2.6389,0,0,1-2.1494-.872,2.9915,2.9915,0,0,1-.78-2.1494v-.2491a3.3062,3.3062,0,0,1,.748-2.2421,2.5562,2.5562,0,0,1,2.0566-.9043,2.386,2.386,0,0,1,1.8975.7793,2.8733,2.8733,0,0,1,.6885,2.0556v.8413H58.4414l-.0332.0308a1.5543,1.5543,0,0,0,.4063,1.0283,1.1873,1.1873,0,0,0,.997.4058,2.92,2.92,0,0,0,.9644-.1255,3.5472,3.5472,0,0,0,.812-.3433l.4346,1.0279a2.8944,2.8944,0,0,1-.9971.498,4.8217,4.8217,0,0,1-1.3692.2187Zm-.125-5.1083a.8282.8282,0,0,0-.7475.3417,1.56,1.56,0,0,0-.3423.9034v.0322h2.0244v-.125a1.4367,1.4367,0,0,0-.22-.8731.8132.8132,0,0,0-.7149-.2792Zm12.6768,2.3359.0313.0317a2.4738,2.4738,0,0,1-.8409,1.93,3.0556,3.0556,0,0,1-2.2109.8105,2.9925,2.9925,0,0,1-2.3057-.997,3.72,3.72,0,0,1-.872-2.5225v-1.4951a3.6165,3.6165,0,0,1,.872-2.5244,2.9986,2.9986,0,0,1,2.3057-.9961,3.2574,3.2574,0,0,1,2.2437.7471,2.5,2.5,0,0,1,.8081,1.9931l-.0313.0323H71.15a1.79,1.79,0,0,0-.5293-1.3711,1.9359,1.9359,0,0,0-1.4336-.5288,1.7307,1.7307,0,0,0-1.4961.7788,3.0333,3.0333,0,0,0-.56,1.8691v1.4951a3.0326,3.0326,0,0,0,.56,1.8682,1.7781,1.7781,0,0,0,1.4961.748,1.9142,1.9142,0,0,0,1.4336-.498,1.786,1.786,0,0,0,.5293-1.3711Zm2.4619-2.6787a2.15,2.15,0,0,1,.7774-.7168,2.3,2.3,0,0,1,1.0293-.249,2.0557,2.0557,0,0,1,1.5258.5918,2.6515,2.6515,0,0,1,.56,1.8378V106.47h-1.12v-3.8638a1.6918,1.6918,0,0,0-.3438-1.1523,1.299,1.299,0,0,0-.9638-.3428,1.9087,1.9087,0,0,0-.8741.1875,1.2971,1.2971,0,0,0-.5908.56V106.47h-1.123V97.5918H74.67Zm9.2822,5.3276c-.0317-.189-.0625-.3442-.0937-.499a2.1174,2.1174,0,0,1-.03-.436,2.6346,2.6346,0,0,1-.8105.746,2.2869,2.2869,0,0,1-1.09.3125,2.0784,2.0784,0,0,1-1.4643-.498,1.8116,1.8116,0,0,1-.4986-1.37,1.577,1.577,0,0,1,.6856-1.3716,3.4028,3.4028,0,0,1,1.9629-.4985h1.2148v-.6231a1.1518,1.1518,0,0,0-.3427-.84,1.2606,1.2606,0,0,0-.9346-.311,1.33,1.33,0,0,0-.8721.28.7751.7751,0,0,0-.3437.6543H80.2764v-.0322a1.412,1.412,0,0,1,.622-1.2451,2.5772,2.5772,0,0,1,1.7149-.5615,2.5314,2.5314,0,0,1,1.6826.5293,1.9238,1.9238,0,0,1,.6543,1.5576v2.959a4.1047,4.1047,0,0,0,.03.624,4.2488,4.2488,0,0,0,.125.6235Zm-1.8681-.8423a1.8641,1.8641,0,0,0,1.0889-.31,1.3138,1.3138,0,0,0,.6552-.7183v-.9961H82.5508a1.6036,1.6036,0,0,0-1.06.3428,1.0251,1.0251,0,0,0-.4053.81.7869.7869,0,0,0,.2491.6543,1.0286,1.0286,0,0,0,.749.2177Zm7.4121-4.3291-.5918-.0322a1.2425,1.2425,0,0,0-.7461.2188,1.3383,1.3383,0,0,0-.4687.5917V106.47H86.5679v-6.1684h.9975l.1241.9033a2.0946,2.0946,0,0,1,.624-.7471,1.5458,1.5458,0,0,1,.9023-.2812c.0947,0,.1563.0312.251.0312a.3816.3816,0,0,0,.1855.0317Zm2.8047-2.4931v1.4961h1.1836v.8408H92.3008v3.7383a.7489.7489,0,0,0,.1865.5918.6372.6372,0,0,0,.4688.186.523.523,0,0,0,.2158-.0308.439.439,0,0,0,.2177-.0625l.1563.7793a1.8744,1.8744,0,0,1-.374.1856,2.6164,2.6164,0,0,1-.4981.0634,1.5134,1.5134,0,0,1-1.0918-.4355,1.7962,1.7962,0,0,1-.4033-1.2773v-3.7383h-.9658v-.8408h.9658V98.8057Z"/><path class="cls-3" d="M56.79,269.3213H53.3623v-.5293l1.7441-2.0557a5.6231,5.6231,0,0,0,.6221-.9043,1.6475,1.6475,0,0,0,.1572-.6543.8506.8506,0,0,0-.2177-.622.7216.7216,0,0,0-.6231-.2491,1.0075,1.0075,0,0,0-.747.28,1.2618,1.2618,0,0,0-.251.7481H53.332a1.4156,1.4156,0,0,1,.4366-1.1524,1.7372,1.7372,0,0,1,1.2763-.4687,1.6126,1.6126,0,0,1,1.1836.4052,1.4129,1.4129,0,0,1,.4063,1.0586,1.6112,1.6112,0,0,1-.2207.8428,10.03,10.03,0,0,1-.7461,1.06l-1.4,1.6181.03.0323H56.79Zm4.33-1.9619a2.2623,2.2623,0,0,1-.4678,1.4951,1.5686,1.5686,0,0,1-1.2773.53,1.5246,1.5246,0,0,1-1.2764-.53,2.12,2.12,0,0,1-.498-1.4951v-1.62a2.1158,2.1158,0,0,1,.4668-1.4629,1.6284,1.6284,0,0,1,1.2763-.5625,1.6505,1.6505,0,0,1,1.3086.5625,2.1156,2.1156,0,0,1,.4678,1.4629Zm-.749-1.7754a1.5914,1.5914,0,0,0-.2481-.9356.9728.9728,0,0,0-.7793-.3418.9555.9555,0,0,0-.749.3418,1.61,1.61,0,0,0-.248.9356v1.9316a1.4047,1.4047,0,0,0,.2807.9346.8169.8169,0,0,0,.7476.373.9491.9491,0,0,0,.748-.3437,1.7657,1.7657,0,0,0,.2481-.9639Zm3.8618,3.7373h-.7456v-4.8281H62.3027v-.5606l1.93-.2187Zm4.3941,0h-.7481v-4.8281H66.6641v-.5606l1.9629-.2187Zm30.7753,0H95.9766v-.5293l1.7421-2.0557a4.3173,4.3173,0,0,0,.625-.9043,1.2578,1.2578,0,0,0,.1563-.6543.8462.8462,0,0,0-.2178-.622.7221.7221,0,0,0-.624-.2491,1.0113,1.0113,0,0,0-.748.28,1.2737,1.2737,0,0,0-.2491.7481h-.7148a1.42,1.42,0,0,1,.4346-1.1524,1.7428,1.7428,0,0,1,1.2773-.4687,1.6143,1.6143,0,0,1,1.1836.4052,1.4043,1.4043,0,0,1,.4043,1.0586,1.6306,1.6306,0,0,1-.2173.8428,10.106,10.106,0,0,1-.7466,1.06l-1.4033,1.6181.0313.0323h2.4921Zm4.3291-1.9619a2.2574,2.2574,0,0,1-.4677,1.4951,1.8023,1.8023,0,0,1-2.5537,0,2.1243,2.1243,0,0,1-.4981-1.4951v-1.62a2.1161,2.1161,0,0,1,.4678-1.4629,1.7649,1.7649,0,0,1,2.584,0,2.1112,2.1112,0,0,1,.4677,1.4629Zm-.7451-1.7754a1.5879,1.5879,0,0,0-.2509-.9356.9687.9687,0,0,0-.7769-.3418.85.85,0,0,0-.7183.3418,1.3937,1.3937,0,0,0-.2778.9356v1.9316a1.3962,1.3962,0,0,0,.2778.9346.8179.8179,0,0,0,.7466.373.9468.9468,0,0,0,.7486-.3437,1.7621,1.7621,0,0,0,.2509-.9639Zm3.86,3.7373h-.7476v-4.8281H104.916v-.5606l1.9307-.2187Zm5.7,0H109.123v-.5293l1.7115-2.0557a4.2974,4.2974,0,0,0,.6235-.9043,1.29,1.29,0,0,0,.1875-.6543,1.008,1.008,0,0,0-.2187-.622.76.76,0,0,0-.6231-.2491.9192.9192,0,0,0-.748.28,1.0859,1.0859,0,0,0-.2481.7481h-.75a1.55,1.55,0,0,1,.4688-1.1524,1.69,1.69,0,0,1,1.2778-.4687,1.5415,1.5415,0,0,1,1.1533.4052,1.4378,1.4378,0,0,1,.4346,1.0586,1.6371,1.6371,0,0,1-.2485.8428,9.4274,9.4274,0,0,1-.7163,1.06l-1.4024,1.6181v.0323h2.5225Zm29.47,0h-3.4258v-.5293l1.7432-2.0557a4.304,4.304,0,0,0,.624-.9043,1.2853,1.2853,0,0,0,.1553-.6543.8481.8481,0,0,0-.22-.622.7178.7178,0,0,0-.6206-.2491,1.0123,1.0123,0,0,0-.7491.28,1.2657,1.2657,0,0,0-.247.7481h-.7188a1.4166,1.4166,0,0,1,.4375-1.1524,1.7345,1.7345,0,0,1,1.2774-.4687,1.62,1.62,0,0,1,1.1836.4052,1.4108,1.4108,0,0,1,.4033,1.0586,1.6167,1.6167,0,0,1-.2168.8428,6.8747,6.8747,0,0,1-.7495,1.06l-1.4,1.6181.03.0323h2.4932Zm4.33-1.9619a2.2578,2.2578,0,0,1-.4688,1.4951,1.8023,1.8023,0,0,1-2.5537,0,2.12,2.12,0,0,1-.498-1.4951v-1.62a1.9867,1.9867,0,0,1,.498-1.4629,1.5481,1.5481,0,0,1,1.2764-.5625,1.5859,1.5859,0,0,1,1.2773.5625,2.1115,2.1115,0,0,1,.4688,1.4629ZM145.6,265.584a1.5872,1.5872,0,0,0-.251-.9356.9512.9512,0,0,0-.748-.3418.8667.8667,0,0,0-.7471.3418,1.3969,1.3969,0,0,0-.2812.9356v1.9316a1.3994,1.3994,0,0,0,.2812.9346.8914.8914,0,0,0,.7471.373.9469.9469,0,0,0,.748-.3437,1.7613,1.7613,0,0,0,.251-.9639Zm3.8926,3.7373h-.7793v-4.8281h-1.1836v-.5606l1.9629-.2187Zm3.8618-3.1465a.9466.9466,0,0,0,.7163-.248,1.112,1.112,0,0,0,.1865-.6856.9992.9992,0,0,0-.2177-.6855.89.89,0,0,0-.6543-.2491,1.0506,1.0506,0,0,0-.7159.2491.9209.9209,0,0,0-.28.6855h-.7158l-.0313-.0312a1.3922,1.3922,0,0,1,.4678-1.0586,1.9153,1.9153,0,0,1,1.2754-.4375,1.738,1.738,0,0,1,1.1836.375,1.4306,1.4306,0,0,1,.4375,1.1523,1.2837,1.2837,0,0,1-.7491,1.2139,1.2591,1.2591,0,0,1,.625.499,1.3819,1.3819,0,0,1,.2168.81,1.596,1.596,0,0,1-.4658,1.2129,1.8776,1.8776,0,0,1-1.248.4073,1.9244,1.9244,0,0,1-1.2442-.4073,1.2818,1.2818,0,0,1-.5293-1.0888v-.03h.7158a.84.84,0,0,0,.3116.6855,1.0082,1.0082,0,0,0,.7461.2793.9937.9937,0,0,0,.7187-.2793,1.1545,1.1545,0,0,0,.2481-.749.9849.9849,0,0,0-.2481-.7793.9177.9177,0,0,0-.7495-.248h-.6235v-.5928Zm31.3071,3.1465h-3.459v-.5293l1.7461-2.0557a4.3335,4.3335,0,0,0,.6206-.9043,1.299,1.299,0,0,0,.19-.6543.8693.8693,0,0,0-.251-.622.6861.6861,0,0,0-.623-.2491.8886.8886,0,0,0-.7159.28,1.1123,1.1123,0,0,0-.2822.7481h-.7148a1.527,1.527,0,0,1,.4365-1.1524,1.7848,1.7848,0,0,1,1.2764-.4687,1.6128,1.6128,0,0,1,1.1836.4052,1.4324,1.4324,0,0,1,.4365,1.0586,1.6705,1.6705,0,0,1-.249.8428,7.095,7.095,0,0,1-.7481,1.06l-1.3691,1.6181v.0323h2.5224Zm4.2959-1.9619a2.2644,2.2644,0,0,1-.4648,1.4951,1.8048,1.8048,0,0,1-2.5557,0,2.2908,2.2908,0,0,1-.498-1.4951v-1.62a1.9867,1.9867,0,0,1,.498-1.4629,1.7327,1.7327,0,0,1,2.5557,0,2.1176,2.1176,0,0,1,.4648,1.4629Zm-.7461-1.7754a1.595,1.595,0,0,0-.248-.9356.9557.9557,0,0,0-.7481-.3418.8652.8652,0,0,0-.747.3418,1.3991,1.3991,0,0,0-.2818.9356v1.9316a1.4016,1.4016,0,0,0,.2818.9346.8888.8888,0,0,0,.747.373.9513.9513,0,0,0,.7481-.3437,1.5318,1.5318,0,0,0,.248-.9639Zm3.8956,3.7373h-.7793v-4.8281h-1.1837v-.5606l1.963-.2187Zm5.0449-1.8682h.7783v.5908h-.7783v1.2774h-.7481v-1.2774h-2.3672v-.4365l2.3365-3.83h.7788Zm-2.3047,0h1.5566v-2.5859h0l-.0918.1865Z"/><path class="cls-3" d="M46.7607,142.1982h.7774v.5928h-.7774v1.2754h-.72V142.791H43.6455v-.4365l2.335-3.8018h.78Zm-2.3066,0H46.041v-2.5849h-.0293l-.0615.186Zm7.2578-.0942a2.2565,2.2565,0,0,1-.4687,1.4956,1.7671,1.7671,0,0,1-2.584,0,2.25,2.25,0,0,1-.4668-1.4956v-1.6186a2.1146,2.1146,0,0,1,.4668-1.4649,1.74,1.74,0,0,1,2.5547,0,1.9984,1.9984,0,0,1,.498,1.4649Zm-.7471-1.7739a1.39,1.39,0,0,0-.2812-.9346.86.86,0,0,0-.7461-.3437.9475.9475,0,0,0-.749.3437,1.582,1.582,0,0,0-.249.9346v1.93a1.557,1.557,0,0,0,.2792.9672.85.85,0,0,0,.7188.3409.863.863,0,0,0,.7461-.3409,1.5512,1.5512,0,0,0,.2812-.9672Zm-5.3877,28.5957a.8944.8944,0,0,0,.7149-.25,1.221,1.221,0,0,0,.2178-.7168.89.89,0,0,0-.25-.6543.762.762,0,0,0-.6514-.28.99.99,0,0,0-.7188.28.9.9,0,0,0-.2792.6543h-.7183a1.1786,1.1786,0,0,1,.4687-1.0586,1.6657,1.6657,0,0,1,1.2476-.4678,1.8931,1.8931,0,0,1,1.2134.4063,1.4989,1.4989,0,0,1,.437,1.1523,1.2851,1.2851,0,0,1-.2188.6846,1.258,1.258,0,0,1-.5615.498,1.1707,1.1707,0,0,1,.624.5313,1.3617,1.3617,0,0,1,.2178.8086,1.5207,1.5207,0,0,1-.4678,1.1826,1.8285,1.8285,0,0,1-1.2441.4365,1.9268,1.9268,0,0,1-1.2476-.4043,1.3036,1.3036,0,0,1-.53-1.123h.7158a.9307.9307,0,0,0,.311.6562,1.0168,1.0168,0,0,0,.7505.2793.9363.9363,0,0,0,.7144-.2793,1.1389,1.1389,0,0,0,.2485-.748.8556.8556,0,0,0-.9942-1.0274h-.624v-.56Zm6.1348,1.1826a2.12,2.12,0,0,1-.4687,1.4648,1.7712,1.7712,0,0,1-2.584,0,2.1144,2.1144,0,0,1-.4668-1.4648v-1.62a2.2545,2.2545,0,0,1,.4668-1.4942,1.7337,1.7337,0,0,1,2.5547,0,2.1266,2.1266,0,0,1,.498,1.4942Zm-.7471-1.7754a1.546,1.546,0,0,0-.2812-.9658.8592.8592,0,0,0-.7461-.3428.9464.9464,0,0,0-.749.3428,1.77,1.77,0,0,0-.249.9658v1.9316a1.45,1.45,0,0,0,.2792.9336.8468.8468,0,0,0,.7188.3428.8592.8592,0,0,0,.7461-.3428,1.3858,1.3858,0,0,0,.2812-.9336Zm-3.583,31.7119H43.9561v-.53l1.7431-2.0566a6.0776,6.0776,0,0,0,.6236-.9023,1.6666,1.6666,0,0,0,.1557-.6553.8385.8385,0,0,0-.2187-.6216.7549.7549,0,0,0-.6221-.2495,1.0107,1.0107,0,0,0-.7481.28,1.2722,1.2722,0,0,0-.248.747h-.7495a1.5438,1.5438,0,0,1,.4687-1.1513,1.7365,1.7365,0,0,1,1.2769-.4688,1.5308,1.5308,0,0,1,1.1533.4063,1.3176,1.3176,0,0,1,.4346,1.0576,1.3963,1.3963,0,0,1-.249.8418,9.1964,9.1964,0,0,1-.7168,1.06l-1.4019,1.6191v.0312h2.5239Zm4.33-1.9629a2.2588,2.2588,0,0,1-.4687,1.4942,1.8392,1.8392,0,0,1-2.584,0,2.2527,2.2527,0,0,1-.4668-1.4942v-1.62a2.1178,2.1178,0,0,1,.4668-1.4648,1.7355,1.7355,0,0,1,2.5547,0,2.0013,2.0013,0,0,1,.498,1.4648Zm-.7471-1.7773a1.3965,1.3965,0,0,0-.2812-.9346.7945.7945,0,0,0-.7461-.3408.8654.8654,0,0,0-.749.3408,1.5905,1.5905,0,0,0-.249.9346v1.9321a1.4016,1.4016,0,0,0,.2792.9361.8021.8021,0,0,0,.7188.372.8137.8137,0,0,0,.7461-.372,1.3965,1.3965,0,0,0,.2812-.9361Zm-4.89,31.7119h-.749V223.189H44.1113v-.5611l1.9639-.2177Zm5.6367-1.9316a2.1155,2.1155,0,0,1-.4687,1.4638,1.766,1.766,0,0,1-2.584,0,2.11,2.11,0,0,1-.4668-1.4638v-1.62a2.26,2.26,0,0,1,.4668-1.4951,1.7379,1.7379,0,0,1,2.5547,0,2.1314,2.1314,0,0,1,.498,1.4951Zm-.7471-1.7745a1.5374,1.5374,0,0,0-.2812-.9648.8607.8607,0,0,0-.7461-.3447.9483.9483,0,0,0-.749.3447,1.76,1.76,0,0,0-.249.9648v1.9307a1.5153,1.5153,0,0,0,.2792.9346.8471.8471,0,0,0,.7188.3428.86.86,0,0,0,.7461-.3428,1.448,1.448,0,0,0,.2812-.9346ZM47.32,254.0576a2.2568,2.2568,0,0,1-.4678,1.4951,1.8023,1.8023,0,0,1-2.5537,0,2.264,2.264,0,0,1-.498-1.4951V252.44a2.2716,2.2716,0,0,1,.498-1.4971,1.8072,1.8072,0,0,1,2.5537,0A2.2643,2.2643,0,0,1,47.32,252.44Zm-.749-1.7754a1.39,1.39,0,0,0-.2485-.9336.86.86,0,0,0-.7457-.3447.7959.7959,0,0,0-.749.3447,1.3958,1.3958,0,0,0-.2812.9336v1.9317a1.4045,1.4045,0,0,0,.2812.9355.935.935,0,0,0,1.4947,0,1.3987,1.3987,0,0,0,.2485-.9355Z"/><rect class="cls-4" x="53.9561" y="140.8906" width="143.3212" height="0.4668"/><rect class="cls-4" x="53.9561" y="169.0508" width="143.3212" height="0.498"/><rect class="cls-4" x="53.9561" y="197.2393" width="143.3212" height="0.4678"/><rect class="cls-4" x="53.9561" y="225.3994" width="143.3212" height="0.499"/><rect class="cls-4" x="53.9561" y="253.5918" width="143.3212" height="0.4658"/><path class="cls-5" d="M55.3555,243.6855c24.7656-28.5957,58.9375-18.8769,92.7666-42.3632,27.13-18.8477,37.13-39.8409,45.26-59.9649"/><path class="cls-6" d="M152.6387,194.749a3.146,3.146,0,1,1-3.1465,3.1455,3.1369,3.1369,0,0,1,3.1465-3.1455Z"/><path class="cls-6" d="M179.3955,166.4033a3.1455,3.1455,0,1,1-3.1435,3.1455,3.1357,3.1357,0,0,1,3.1435-3.1455Z"/><path class="cls-6" d="M193.3818,138.2119a3.146,3.146,0,1,1-3.1465,3.1455,3.1372,3.1372,0,0,1,3.1465-3.1455Z"/><path class="cls-6" d="M55.3555,240.5381a3.1621,3.1621,0,1,1-3.1455,3.1474,3.1387,3.1387,0,0,1,3.1455-3.1474Z"/><path class="cls-7" d="M55.3555,213.998c24.7656-28.6259,32.1172-8.16,65.9463-31.6474,27.1318-18.8457,56.0693,22.9873,64.5117,43.5478"/><path class="cls-8" d="M55.3555,210.8535A3.146,3.146,0,1,1,52.21,213.998a3.1362,3.1362,0,0,1,3.1455-3.1445Z"/><path class="cls-8" d="M95.916,191.1973a3.1617,3.1617,0,1,1-3.1806,3.1777,3.1632,3.1632,0,0,1,3.1806-3.1777Z"/><path class="cls-8" d="M133.2637,174.5645a3.1611,3.1611,0,1,1-3.1465,3.145,3.1549,3.1549,0,0,1,3.1465-3.145Z"/><path class="cls-8" d="M185.6279,222.2549a3.1611,3.1611,0,1,1-3.1474,3.1445,3.1355,3.1355,0,0,1,3.1474-3.1445Z"/><path class="cls-3" d="M236.3994,104.6626h-2.6777l-.56,1.8076H231.416l2.8037-8.2866h1.6817l2.8037,8.2866H236.96Zm-2.2715-1.2778h1.8682l-.9043-2.9268H235.03Zm8.4707-1.6494-.59-.0323a1.2182,1.2182,0,0,0-.624.1553.9285.9285,0,0,0-.3428.4365V106.47H239.36v-6.1684h1.5566l.0635.9033a2.3584,2.3584,0,0,1,.5595-.7471,1.2769,1.2769,0,0,1,.8106-.2812c.0615,0,.1562.0312.2178.0312.0625.0317.1552.0317.22.0625Zm3.4268,4.8583a2.7245,2.7245,0,0,1-2.1484-.872,3.1362,3.1362,0,0,1-.78-2.1494v-.2491a3.3067,3.3067,0,0,1,.749-2.2421,2.6622,2.6622,0,0,1,2.0859-.9043,2.4412,2.4412,0,0,1,1.9014.7793,3.0176,3.0176,0,0,1,.6553,2.0556v.8413h-3.6758v.0308a1.6942,1.6942,0,0,0,.373,1.0283,1.2111,1.2111,0,0,0,1.0264.4058,2.7381,2.7381,0,0,0,.9356-.1255,3.0614,3.0614,0,0,0,.81-.3433l.4658,1.0279a3.08,3.08,0,0,1-1.0273.498,4.6576,4.6576,0,0,1-1.3711.2187Zm-.0938-5.1083a.8833.8833,0,0,0-.7773.3417,1.5733,1.5733,0,0,0-.3125.9034v.0322h2.0254v-.125a1.457,1.457,0,0,0-.2178-.8731.9.9,0,0,0-.7178-.2792Zm7.1641,4.9848a2.7628,2.7628,0,0,1-.1553-.438,1.42,1.42,0,0,1-.0927-.497,2.241,2.241,0,0,1-.6836.746,1.5874,1.5874,0,0,1-.9981.3125,2.16,2.16,0,0,1-1.4951-.498,1.8792,1.8792,0,0,1-.5293-1.37,1.6573,1.6573,0,0,1,.7168-1.4024,3.34,3.34,0,0,1,2.0244-.499h.9346v-.498a.9688.9688,0,0,0-.25-.6846.8676.8676,0,0,0-.6846-.2495.8523.8523,0,0,0-.625.2183.6424.6424,0,0,0-.2168.5292h-1.59l-.03-.0322a1.6424,1.6424,0,0,1,.6865-1.3388,3.0579,3.0579,0,0,1,1.8994-.5918,2.69,2.69,0,0,1,1.7754.5615,1.9294,1.9294,0,0,1,.6856,1.62v2.523a6.276,6.276,0,0,0,.0625.8095,5.7106,5.7106,0,0,0,.2168.78Zm-1.5254-1.124a1.3348,1.3348,0,0,0,.7793-.2173,1.1893,1.1893,0,0,0,.4678-.4971v-.873h-.9346a1.1146,1.1146,0,0,0-.8115.2812.866.866,0,0,0-.2481.6226.654.654,0,0,0,.1875.499.76.76,0,0,0,.56.1846Zm13.3018-1.5249v.0317a2.3553,2.3553,0,0,1-.8106,1.93,3.1344,3.1344,0,0,1-2.2422.8105,2.922,2.922,0,0,1-2.2734-.997,3.72,3.72,0,0,1-.8721-2.5225v-1.4951a3.6166,3.6166,0,0,1,.8721-2.5244,2.9278,2.9278,0,0,1,2.2734-.9961,3.1467,3.1467,0,0,1,2.2422.7471,2.4046,2.4046,0,0,1,.8106,1.9931v.0323h-1.09a1.764,1.764,0,0,0-.5-1.3711,2.0051,2.0051,0,0,0-1.4629-.5288,1.7273,1.7273,0,0,0-1.4941.7788,3.0127,3.0127,0,0,0-.5322,1.8691v1.4951a3.0119,3.0119,0,0,0,.5322,1.8682,1.7746,1.7746,0,0,0,1.4941.748,1.9836,1.9836,0,0,0,1.4629-.498,1.7607,1.7607,0,0,0,.5-1.3711Zm2.4306-2.6787a2.4239,2.4239,0,0,1,.7764-.7168,2.2884,2.2884,0,0,1,1.0273-.249,2.0171,2.0171,0,0,1,1.5293.5918,2.6539,2.6539,0,0,1,.56,1.8378V106.47h-1.1221v-3.8638a1.6953,1.6953,0,0,0-.3115-1.1523,1.3777,1.3777,0,0,0-.9971-.3428,1.9926,1.9926,0,0,0-.871.1875,1.4639,1.4639,0,0,0-.5909.56V106.47h-1.122V97.5918h1.122Zm9.2813,5.3276a3.14,3.14,0,0,1-.0625-.499,2.175,2.175,0,0,1-.0635-.436,2.0651,2.0651,0,0,1-.8076.746,2.1978,2.1978,0,0,1-1.0908.3125,2.1255,2.1255,0,0,1-1.4639-.498,1.81,1.81,0,0,1-.5-1.37,1.6083,1.6083,0,0,1,.7188-1.3716,3.22,3.22,0,0,1,1.93-.4985h1.2139v-.6231a1.13,1.13,0,0,0-.3086-.84,1.2682,1.2682,0,0,0-.9365-.311,1.422,1.422,0,0,0-.9024.28.7438.7438,0,0,0-.3115.6543h-1.0576l-.0332-.0322a1.4857,1.4857,0,0,1,.624-1.2451,2.9632,2.9632,0,0,1,3.4258-.0322,1.8983,1.8983,0,0,1,.6231,1.5576v2.959c0,.2177.03.436.03.624.0323.2187.0948.4053.125.6235Zm-1.8379-.8423a1.9394,1.9394,0,0,0,1.0918-.31,1.3628,1.3628,0,0,0,.62-.7183v-.9961h-1.2451a1.6812,1.6812,0,0,0-1.0879.3428,1.0273,1.0273,0,0,0-.4072.81.8927.8927,0,0,0,.251.6543,1.1569,1.1569,0,0,0,.7773.2177Zm7.3848-4.3291-.5635-.0322a1.1245,1.1245,0,0,0-.7461.2188,1.0158,1.0158,0,0,0-.4688.5917V106.47h-1.12v-6.1684h.9961l.0947.9033a2.523,2.523,0,0,1,.6543-.7471,1.447,1.447,0,0,1,.8721-.2812c.0918,0,.1865.0312.2471.0312a.5482.5482,0,0,0,.1894.0317Zm2.833-2.4931v1.4961h1.1543v.8408h-1.1543v3.7383a.7452.7452,0,0,0,.1875.5918.5847.5847,0,0,0,.4648.186.6176.6176,0,0,0,.22-.0308.34.34,0,0,0,.1875-.0625l.1553.7793a.9723.9723,0,0,1-.373.1856,2.3437,2.3437,0,0,1-.4678.0634,1.4594,1.4594,0,0,1-1.0918-.4355,1.664,1.664,0,0,1-.4033-1.2773v-3.7383h-.9971v-.8408h.9971V98.8057Z"/><path class="cls-3" d="M243.5645,269.3213h-3.4278v-.5293l1.7461-2.0557a6.0822,6.0822,0,0,0,.624-.9043,1.2666,1.2666,0,0,0,.1563-.6543.8484.8484,0,0,0-.2207-.622.7155.7155,0,0,0-.6211-.2491,1.0131,1.0131,0,0,0-.75.28,1.2711,1.2711,0,0,0-.2461.7481h-.7188a1.4135,1.4135,0,0,1,.4375-1.1524,1.7369,1.7369,0,0,1,1.2774-.4687,1.6159,1.6159,0,0,1,1.1836.4052,1.4036,1.4036,0,0,1,.4033,1.0586,1.6157,1.6157,0,0,1-.2168.8428,9.6867,9.6867,0,0,1-.749,1.06l-1.4,1.6181.0293.0323h2.4932Zm4.33-1.9619a2.2628,2.2628,0,0,1-.4677,1.4951,1.5609,1.5609,0,0,1-1.2754.53,1.5308,1.5308,0,0,1-1.2784-.53,2.1247,2.1247,0,0,1-.498-1.4951v-1.62a2.1207,2.1207,0,0,1,.4668-1.4629,1.6339,1.6339,0,0,1,1.2764-.5625,1.6506,1.6506,0,0,1,1.3086.5625,2.116,2.116,0,0,1,.4677,1.4629Zm-.747-1.7754a1.5881,1.5881,0,0,0-.25-.9356.9681.9681,0,0,0-.7793-.3418.8494.8494,0,0,0-.7159.3418,1.3992,1.3992,0,0,0-.2793.9356v1.9316a1.4018,1.4018,0,0,0,.2793.9346.8205.8205,0,0,0,.7491.373.9432.9432,0,0,0,.7461-.3437,1.7622,1.7622,0,0,0,.25-.9639Zm3.8632,3.7373h-.749v-4.8281h-1.1826v-.5606l1.9316-.2187Zm4.3907,0h-.7471v-4.8281h-1.2158v-.5606l1.9629-.2187Zm30.7773,0H282.751v-.5293l1.7461-2.0557a4.2907,4.2907,0,0,0,.623-.9043,1.2676,1.2676,0,0,0,.1563-.6543.8515.8515,0,0,0-.22-.622.7213.7213,0,0,0-.623-.2491,1.0092,1.0092,0,0,0-.7471.28,1.26,1.26,0,0,0-.248.7481h-.7178a1.4159,1.4159,0,0,1,.4365-1.1524,1.7376,1.7376,0,0,1,1.2764-.4687,1.6072,1.6072,0,0,1,1.1826.4052,1.406,1.406,0,0,1,.4072,1.0586,1.6176,1.6176,0,0,1-.2177.8428,10.75,10.75,0,0,1-.7491,1.06l-1.4,1.6181.03.0323h2.4922Zm4.33-1.9619a2.2628,2.2628,0,0,1-.4678,1.4951,1.8023,1.8023,0,0,1-2.5537,0,2.12,2.12,0,0,1-.498-1.4951v-1.62a1.9867,1.9867,0,0,1,.498-1.4629,1.5454,1.5454,0,0,1,1.2764-.5625,1.6332,1.6332,0,0,1,1.2773.5625,2.1161,2.1161,0,0,1,.4678,1.4629Zm-.749-1.7754a1.595,1.595,0,0,0-.2481-.9356.9527.9527,0,0,0-.748-.3418.8692.8692,0,0,0-.7471.3418,1.4,1.4,0,0,0-.2812.9356v1.9316a1.4021,1.4021,0,0,0,.2812.9346.8534.8534,0,0,0,.7471.373.9484.9484,0,0,0,.748-.3437,1.77,1.77,0,0,0,.2481-.9639Zm3.8623,3.7373h-.7471v-4.8281h-1.1836v-.5606l1.9307-.2187Zm5.7031,0h-3.4277v-.5293l1.7119-2.0557a6.4084,6.4084,0,0,0,.6543-.9043,1.6459,1.6459,0,0,0,.1562-.6543,1.0015,1.0015,0,0,0-.2178-.622.7572.7572,0,0,0-.623-.2491.9161.9161,0,0,0-.7471.28,1.088,1.088,0,0,0-.25.7481h-.7461a1.55,1.55,0,0,1,.4668-1.1524,1.6908,1.6908,0,0,1,1.2764-.4687,1.5388,1.5388,0,0,1,1.1533.4052,1.4321,1.4321,0,0,1,.4365,1.0586,1.6543,1.6543,0,0,1-.2509.8428,9.15,9.15,0,0,1-.7159,1.06l-1.3994,1.6181v.0323h2.5225Zm29.4658,0h-3.4258v-.5293l1.7442-2.0557a4.2559,4.2559,0,0,0,.623-.9043,1.2566,1.2566,0,0,0,.1553-.6543.846.846,0,0,0-.2168-.622.6869.6869,0,0,0-.624-.2491,1.0052,1.0052,0,0,0-.7461.28,1.2609,1.2609,0,0,0-.25.7481h-.7168a1.418,1.418,0,0,1,.4355-1.1524,1.7431,1.7431,0,0,1,1.2774-.4687,1.6128,1.6128,0,0,1,1.1836.4052,1.4056,1.4056,0,0,1,.4062,1.0586,1.62,1.62,0,0,1-.22.8428,6.8435,6.8435,0,0,1-.7461,1.06l-1.4033,1.6181.0332.0323h2.49Zm4.3291-1.9619a2.2668,2.2668,0,0,1-.4638,1.4951,1.8072,1.8072,0,0,1-2.5577,0,2.1243,2.1243,0,0,1-.498-1.4951v-1.62a1.9908,1.9908,0,0,1,.498-1.4629,1.5514,1.5514,0,0,1,1.2774-.5625,1.5966,1.5966,0,0,1,1.28.5625,2.12,2.12,0,0,1,.4638,1.4629Zm-.7451-1.7754a1.6022,1.6022,0,0,0-.249-.9356.9553.9553,0,0,0-.75-.3418.8667.8667,0,0,0-.7471.3418,1.3938,1.3938,0,0,0-.2783.9356v1.9316a1.3962,1.3962,0,0,0,.2783.9346.8927.8927,0,0,0,.7471.373.951.951,0,0,0,.75-.3437,1.7786,1.7786,0,0,0,.249-.9639Zm3.8926,3.7373H335.49v-4.8281h-1.1855v-.5606l1.9629-.2187Zm3.8642-3.1465a.9508.9508,0,0,0,.7149-.248,1.1121,1.1121,0,0,0,.1875-.6856,1.0083,1.0083,0,0,0-.2168-.6855.9.9,0,0,0-.6553-.2491,1.05,1.05,0,0,0-.7168.2491.9127.9127,0,0,0-.2793.6855h-.72l-.0293-.0312a1.3944,1.3944,0,0,1,.4668-1.0586,1.9208,1.9208,0,0,1,1.2783-.4375,1.7332,1.7332,0,0,1,1.1807.375,1.4273,1.4273,0,0,1,.4375,1.1523,1.2711,1.2711,0,0,1-.7461,1.2139,1.25,1.25,0,0,1,.623.499,1.3823,1.3823,0,0,1,.2178.81,1.59,1.59,0,0,1-.4678,1.2129,1.8729,1.8729,0,0,1-1.2451.4073,1.93,1.93,0,0,1-1.2471-.4073,1.2818,1.2818,0,0,1-.5293-1.0888v-.03h.7159a.8483.8483,0,0,0,.3115.6855,1.0136,1.0136,0,0,0,.749.2793.9883.9883,0,0,0,.7158-.2793,1.1381,1.1381,0,0,0,.2481-.749.9845.9845,0,0,0-.2481-.7793.9148.9148,0,0,0-.7461-.248h-.624v-.5928Zm31.3037,3.1465H367.98v-.5293l1.7432-2.0557a4.304,4.304,0,0,0,.624-.9043,1.3191,1.3191,0,0,0,.1865-.6543.8727.8727,0,0,0-.25-.622.66.66,0,0,0-.59-.2491.9205.9205,0,0,0-.75.28,1.118,1.118,0,0,0-.2784.7481h-.7168a1.521,1.521,0,0,1,.4361-1.1524,1.8114,1.8114,0,0,1,1.3086-.4687,1.5889,1.5889,0,0,1,1.1523.4052,1.429,1.429,0,0,1,.4351,1.0586,1.652,1.652,0,0,1-.249.8428,6.8783,6.8783,0,0,1-.7481,1.06l-1.3711,1.6181v.0323h2.5234Zm4.3-1.9619a2.2632,2.2632,0,0,1-.4688,1.4951,1.8011,1.8011,0,0,1-2.5527,0,2.27,2.27,0,0,1-.4991-1.4951v-1.62a2.122,2.122,0,0,1,.4991-1.4629,1.7293,1.7293,0,0,1,2.5527,0,2.1164,2.1164,0,0,1,.4688,1.4629Zm-.75-1.7754a1.5886,1.5886,0,0,0-.2475-.9356.9522.9522,0,0,0-.7471-.3418.87.87,0,0,0-.749.3418,1.3992,1.3992,0,0,0-.2793.9356v1.9316a1.4018,1.4018,0,0,0,.2793.9346.8961.8961,0,0,0,.749.373.9479.9479,0,0,0,.7471-.3437,1.5445,1.5445,0,0,0,.2475-.9639Zm3.8951,3.7373h-.7793v-4.8281H376.918v-.5606l1.9629-.2187Zm5.0449-1.8682h.78v.5908h-.78v1.2774h-.7149v-1.2774h-2.3974v-.4365l2.333-3.83h.7793Zm-2.3028,0h1.5879v-2.5859H383.18l-.0938.1865Z"/><path class="cls-3" d="M233.5352,142.1982h.7793v.5928h-.7793v1.2754h-.7159V142.791h-2.3984v-.4365l2.335-3.8018h.7793Zm-2.3057,0h1.59v-2.5849h-.0317l-.063.186Zm7.2588-.0942a2.2612,2.2612,0,0,1-.4668,1.4956,1.6537,1.6537,0,0,1-1.31.5615,1.6325,1.6325,0,0,1-1.2773-.5615,2.25,2.25,0,0,1-.4668-1.4956v-1.6186a2.1146,2.1146,0,0,1,.4668-1.4649,1.7408,1.7408,0,0,1,2.5556,0,1.9943,1.9943,0,0,1,.4981,1.4649ZM237.74,140.33a1.394,1.394,0,0,0-.2793-.9346.8666.8666,0,0,0-.749-.3437.9417.9417,0,0,0-.7461.3437,1.5753,1.5753,0,0,0-.25.9346v1.93a1.551,1.551,0,0,0,.28.9672.8447.8447,0,0,0,.7158.3409.87.87,0,0,0,.749-.3409,1.5564,1.5564,0,0,0,.2793-.9672Zm-5.39,28.5957a.8962.8962,0,0,0,.7168-.25,1.2212,1.2212,0,0,0,.2192-.7168.8937.8937,0,0,0-.25-.6543.7644.7644,0,0,0-.6533-.28.9872.9872,0,0,0-.7168.28.8982.8982,0,0,0-.2812.6543H230.67a1.1716,1.1716,0,0,1,.4668-1.0586,1.7183,1.7183,0,0,1,1.2461-.4678,1.8856,1.8856,0,0,1,1.2129.4063,1.497,1.497,0,0,1,.4375,1.1523,1.2929,1.2929,0,0,1-.2178.6846,1.2533,1.2533,0,0,1-.5615.498,1.1687,1.1687,0,0,1,.6231.5313,1.362,1.362,0,0,1,.2168.8086,1.5258,1.5258,0,0,1-.4649,1.1826,1.8318,1.8318,0,0,1-1.2461.4365,1.9219,1.9219,0,0,1-1.2461-.4043,1.3036,1.3036,0,0,1-.5312-1.123h.7187a.9358.9358,0,0,0,.3106.6562,1.0116,1.0116,0,0,0,.748.2793.9352.9352,0,0,0,.7149-.2793,1.1373,1.1373,0,0,0,.2509-.748.8572.8572,0,0,0-.998-1.0274h-.5928v-.56Zm6.1377,1.1826a2.1241,2.1241,0,0,1-.4668,1.4648,1.6519,1.6519,0,0,1-1.31.56,1.6306,1.6306,0,0,1-1.2773-.56,2.1144,2.1144,0,0,1-.4668-1.4648v-1.62a2.2545,2.2545,0,0,1,.4668-1.4942,1.7347,1.7347,0,0,1,2.5556,0,2.122,2.122,0,0,1,.4981,1.4942Zm-.7481-1.7754a1.5511,1.5511,0,0,0-.2793-.9658.8658.8658,0,0,0-.749-.3428.9406.9406,0,0,0-.7461.3428,1.7627,1.7627,0,0,0-.25.9658v1.9316a1.4446,1.4446,0,0,0,.28.9336.8411.8411,0,0,0,.7158.3428.8658.8658,0,0,0,.749-.3428,1.39,1.39,0,0,0,.2793-.9336Zm-3.582,31.7119h-3.4268v-.53l1.7461-2.0566a5.9245,5.9245,0,0,0,.62-.9023,1.6588,1.6588,0,0,0,.1562-.6553.8416.8416,0,0,0-.2178-.6216.7585.7585,0,0,0-.624-.2495,1.0074,1.0074,0,0,0-.7461.28,1.2734,1.2734,0,0,0-.25.747H230.67a1.546,1.546,0,0,1,.4668-1.1513,1.7383,1.7383,0,0,1,1.2754-.4688,1.5258,1.5258,0,0,1,1.1533.4063,1.3188,1.3188,0,0,1,.4366,1.0576,1.4042,1.4042,0,0,1-.25.8418,9.2369,9.2369,0,0,1-.7159,1.06l-1.4013,1.6191v.0312h2.5234Zm4.33-1.9629a2.2635,2.2635,0,0,1-.4668,1.4942,1.6277,1.6277,0,0,1-1.31.53,1.6036,1.6036,0,0,1-1.2773-.53,2.2527,2.2527,0,0,1-.4668-1.4942v-1.62a2.1178,2.1178,0,0,1,.4668-1.4648,1.7366,1.7366,0,0,1,2.5556,0,1.9971,1.9971,0,0,1,.4981,1.4648Zm-.7481-1.7773a1.401,1.401,0,0,0-.2793-.9346.8.8,0,0,0-.749-.3408.86.86,0,0,0-.7461.3408,1.5838,1.5838,0,0,0-.25.9346v1.9321a1.3964,1.3964,0,0,0,.28.9361.797.797,0,0,0,.7158.372.82.82,0,0,0,.749-.372,1.401,1.401,0,0,0,.2793-.9361ZM232.85,228.0166h-.748V223.189h-1.2149v-.5611l1.9629-.2177Zm5.6387-1.9316a2.12,2.12,0,0,1-.4668,1.4638,1.6569,1.6569,0,0,1-1.31.562,1.6359,1.6359,0,0,1-1.2773-.562,2.11,2.11,0,0,1-.4668-1.4638v-1.62a2.26,2.26,0,0,1,.4668-1.4951,1.7389,1.7389,0,0,1,2.5556,0,2.1268,2.1268,0,0,1,.4981,1.4951Zm-.7481-1.7745a1.5425,1.5425,0,0,0-.2793-.9648.8673.8673,0,0,0-.749-.3447.9425.9425,0,0,0-.7461.3447,1.7523,1.7523,0,0,0-.25.9648v1.9307a1.5094,1.5094,0,0,0,.28.9346.8413.8413,0,0,0,.7158.3428.8661.8661,0,0,0,.749-.3428,1.4526,1.4526,0,0,0,.2793-.9346Zm-3.6464,29.7471a2.2666,2.2666,0,0,1-.4649,1.4951,1.8048,1.8048,0,0,1-2.5557,0,2.2694,2.2694,0,0,1-.498-1.4951V252.44a2.2769,2.2769,0,0,1,.498-1.4971,1.81,1.81,0,0,1,2.5557,0,2.2741,2.2741,0,0,1,.4649,1.4971Zm-.7452-1.7754a1.38,1.38,0,0,0-.2509-.9336.859.859,0,0,0-.7471-.3447.7882.7882,0,0,0-.7451.3447,1.38,1.38,0,0,0-.2813.9336v1.9317a1.3885,1.3885,0,0,0,.2813.9355.9325.9325,0,0,0,1.4922,0,1.3884,1.3884,0,0,0,.2509-.9355Z"/><rect class="cls-4" x="240.7305" y="140.8906" width="143.3222" height="0.4668"/><rect class="cls-4" x="240.7305" y="169.0508" width="143.3222" height="0.498"/><rect class="cls-4" x="240.7305" y="197.2393" width="143.3222" height="0.4678"/><rect class="cls-4" x="240.7305" y="225.3994" width="143.3222" height="0.499"/><rect class="cls-4" x="240.7305" y="253.5918" width="143.3222" height="0.4658"/><path class="cls-9" d="M240.7305,225.65v27.9419H384.0527V197.707h-.78c-29.3125,18.3487-41.0557-1.09-67.9678,17.6-33.6113,23.3321-50.0293-17.3193-74.5742,10.3433Z"/><path class="cls-10" d="M240.7305,225.8984c24.7646-28.6269,40.7451,12.8965,74.5742-10.5918,27.1289-18.8447,38.8437,1.0918,68.748-18.0673"/><path class="cls-11" d="M242.9736,221.1016a3.1616,3.1616,0,1,1-3.1465,3.1767,3.1623,3.1623,0,0,1,3.1465-3.1767Z"/><path class="cls-11" d="M333.12,204.0928a3.1626,3.1626,0,1,1,0,6.3252,3.1626,3.1626,0,0,1,0-6.3252Z"/><path class="cls-11" d="M296.084,219.6377a3.146,3.146,0,1,1-3.1465,3.1455,3.1376,3.1376,0,0,1,3.1465-3.1455Z"/><path class="cls-11" d="M382.8076,194.0947a3.1465,3.1465,0,1,1-3.15,3.1446,3.1637,3.1637,0,0,1,3.15-3.1446Z"/><path class="cls-12" d="M240.7305,187.8008c33.1748,26.1972,71.52,37.4746,113.6357-46.4434"/><path class="cls-13" d="M242.9736,186.0264a3.1616,3.1616,0,1,1-3.1465,3.1455,3.1358,3.1358,0,0,1,3.1465-3.1455Z"/><path class="cls-13" d="M293.499,202.8779a3.1622,3.1622,0,0,1,0,6.3243,3.1622,3.1622,0,1,1,0-6.3243Z"/><path class="cls-13" d="M354.3662,138.2119a3.146,3.146,0,1,1-3.1455,3.1455,3.1381,3.1381,0,0,1,3.1455-3.1455Z"/><path class="cls-3" d="M421.93,106.47V98.1836h2.7109a4.0077,4.0077,0,0,1,2.2735.5605,1.9891,1.9891,0,0,1,.8095,1.7139,1.8009,1.8009,0,0,1-.2783.9961,1.9379,1.9379,0,0,1-.8721.6855,1.6174,1.6174,0,0,1,1.15.6846,1.84,1.84,0,0,1,.4073,1.2158,2.1121,2.1121,0,0,1-.7813,1.8067,3.619,3.619,0,0,1-2.2441.6235Zm1.6533-3.6753v2.3975h1.5225a1.6172,1.6172,0,0,0,1.0293-.28,1.1711,1.1711,0,0,0,.3418-.8721,1.1993,1.1993,0,0,0-.3418-.9052,1.4089,1.4089,0,0,0-1.0293-.34Zm0-1.1533h1.0889a1.5629,1.5629,0,0,0,1.0273-.28.865.865,0,0,0,.3731-.7807.9409.9409,0,0,0-.3731-.84,1.6561,1.6561,0,0,0-1.0586-.28H423.583Zm9.28,4.8286a2.4885,2.4885,0,0,1-.1543-.438,2.6453,2.6453,0,0,1-.125-.497,1.9173,1.9173,0,0,1-.6543.746,1.5874,1.5874,0,0,1-.9981.3125,2.16,2.16,0,0,1-1.4941-.498,1.8832,1.8832,0,0,1-.5293-1.37,1.63,1.63,0,0,1,.6856-1.4024,3.4455,3.4455,0,0,1,2.0546-.499h.9356v-.498a.9763.9763,0,0,0-.2481-.6846.9239.9239,0,0,0-.6875-.2495.8038.8038,0,0,0-.622.2183.6415.6415,0,0,0-.22.5292H429.19v-.0322a1.48,1.48,0,0,1,.6846-1.3388,2.9013,2.9013,0,0,1,1.8691-.5918,2.7746,2.7746,0,0,1,1.8047.5615,1.9294,1.9294,0,0,1,.6856,1.62v2.523a5.7789,5.7789,0,0,0,.0644.8095,3.1181,3.1181,0,0,0,.2149.78Zm-1.5235-1.124a1.39,1.39,0,0,0,.7754-.2173,1.174,1.174,0,0,0,.4688-.4971v-.873h-.9356a1.0592,1.0592,0,0,0-.8086.2812.7822.7822,0,0,0-.2812.6226.5809.5809,0,0,0,.2187.499.763.763,0,0,0,.5625.1846Zm7.3829-3.6108-.626-.0323a1.1763,1.1763,0,0,0-.5908.1553,1.2637,1.2637,0,0,0-.3731.4365V106.47h-1.65v-6.1684h1.5547l.0615.9033a2.3926,2.3926,0,0,1,.5616-.7471,1.1912,1.1912,0,0,1,.7793-.2812c.0957,0,.1855.0312.25.0312a1.764,1.764,0,0,0,.2168.0625Zm9.9941,2.0859.0352.0317a2.4844,2.4844,0,0,1-.8418,1.93,3.1108,3.1108,0,0,1-2.211.8105,2.99,2.99,0,0,1-2.3066-.997,3.7155,3.7155,0,0,1-.8731-2.5225v-1.4951a3.6125,3.6125,0,0,1,.8731-2.5244,2.9961,2.9961,0,0,1,2.3066-.9961,3.248,3.248,0,0,1,2.2412.7471,2.6089,2.6089,0,0,1,.8116,1.9931l-.0352.0323h-1.0547a1.7844,1.7844,0,0,0-.5332-1.3711,1.9224,1.9224,0,0,0-1.43-.5288,1.7285,1.7285,0,0,0-1.4961.7788,3.018,3.018,0,0,0-.56,1.8691v1.4951a3.0173,3.0173,0,0,0,.56,1.8682,1.7757,1.7757,0,0,0,1.4961.748,1.9008,1.9008,0,0,0,1.43-.498,1.781,1.781,0,0,0,.5332-1.3711Zm2.4355-2.6787a2.5017,2.5017,0,0,1,.8067-.7168,2.2788,2.2788,0,0,1,1.0273-.249,2.0635,2.0635,0,0,1,1.5274.5918,2.6446,2.6446,0,0,1,.5605,1.8378V106.47H453.92v-3.8638a1.6852,1.6852,0,0,0-.3125-1.1523,1.293,1.293,0,0,0-.9648-.3428,1.9042,1.9042,0,0,0-.8711.1875,1.5229,1.5229,0,0,0-.6192.56V106.47h-1.125V97.5918h1.125Zm9.3106,5.3276c-.0293-.189-.0645-.3442-.0918-.499a2.0511,2.0511,0,0,1-.0313-.436,2.46,2.46,0,0,1-.84.746,2.098,2.098,0,0,1-1.0625.3125,2.0233,2.0233,0,0,1-1.4629-.498,1.82,1.82,0,0,1-.5293-1.37,1.6044,1.6044,0,0,1,.7168-1.3716,3.3283,3.3283,0,0,1,1.9609-.4985H460.34v-.6231a1.15,1.15,0,0,0-.3457-.84,1.2521,1.2521,0,0,0-.9336-.311,1.2739,1.2739,0,0,0-.871.28.77.77,0,0,0-.3438.6543h-1.0605v-.0322a1.4261,1.4261,0,0,1,.625-1.2451,2.9172,2.9172,0,0,1,3.3964-.0322,1.9165,1.9165,0,0,1,.6524,1.5576v2.959a3.9875,3.9875,0,0,0,.0312.624,4.0331,4.0331,0,0,0,.127.6235Zm-1.8691-.8423a1.873,1.873,0,0,0,1.0917-.31,1.3206,1.3206,0,0,0,.6543-.7183v-.9961h-1.2793a1.6025,1.6025,0,0,0-1.0585.3428,1.0678,1.0678,0,0,0-.4356.81.8033.8033,0,0,0,.2793.6543,1.0263,1.0263,0,0,0,.7481.2177Zm7.4111-4.3291-.5889-.0322a1.2563,1.2563,0,0,0-.75.2188,1.3065,1.3065,0,0,0-.4648.5917V106.47H463.08v-6.1684h.9961l.125.9033a2.1283,2.1283,0,0,1,.6211-.7471,1.56,1.56,0,0,1,.9062-.2812c.0606,0,.1563.0312.2168.0312a.6014.6014,0,0,0,.2207.0317Zm2.8076-2.4931v1.4961h1.1836v.8408h-1.1836v3.7383a.7452.7452,0,0,0,.1875.5918.6265.6265,0,0,0,.4648.186.5392.5392,0,0,0,.2188-.0308.4691.4691,0,0,0,.2207-.0625l.1543.7793a1.9431,1.9431,0,0,1-.375.1856,3.0026,3.0026,0,0,1-.4961.0634,1.4962,1.4962,0,0,1-1.0908-.4355,1.787,1.787,0,0,1-.4053-1.2773v-3.7383h-.9668v-.8408h.9668V98.8057Z"/><path class="cls-3" d="M440.9941,269.4463h-3.4267v-.5293l1.7451-2.0557a4.3046,4.3046,0,0,0,.6211-.9043,1.2622,1.2622,0,0,0,.1582-.6543.859.859,0,0,0-.2168-.623.7285.7285,0,0,0-.6279-.2481,1.006,1.006,0,0,0-.7451.28,1.2721,1.2721,0,0,0-.2481.7471h-.7168a1.4145,1.4145,0,0,1,.4356-1.1524,1.7418,1.7418,0,0,1,1.2744-.4668,1.6052,1.6052,0,0,1,1.1865.4043,1.4056,1.4056,0,0,1,.4062,1.0586,1.7152,1.7152,0,0,1-.2168.8428,7.207,7.207,0,0,1-.748,1.0576l-1.4043,1.62.0313.0313h2.4921Zm4.3321-1.9619a2.2569,2.2569,0,0,1-.4688,1.4931,1.8035,1.8035,0,0,1-2.5547,0,2.1142,2.1142,0,0,1-.498-1.4931v-1.62a1.9958,1.9958,0,0,1,.498-1.4649,1.55,1.55,0,0,1,1.2774-.56,1.5944,1.5944,0,0,1,1.2773.56,2.1262,2.1262,0,0,1,.4688,1.4649Zm-.75-1.7754a1.5821,1.5821,0,0,0-.2481-.9346.8625.8625,0,0,0-.748-.3428.796.796,0,0,0-.7481.3428,1.38,1.38,0,0,0-.2812.9346V267.64a1.38,1.38,0,0,0,.2812.9336.9336.9336,0,0,0,1.4961,0,1.5829,1.5829,0,0,0,.2481-.9336Zm3.8652,3.7373h-.748v-4.8281H446.51v-.5918l1.9316-.1866Zm4.3887,0h-.7481v-4.8281H450.87v-.5918l1.96-.1866Zm24.9844,0h-3.4278v-.5293l1.7461-2.0557a4.4122,4.4122,0,0,0,.6231-.9043,1.32,1.32,0,0,0,.1855-.6543.8681.8681,0,0,0-.248-.623.6938.6938,0,0,0-.625-.2481.89.89,0,0,0-.7149.28,1.1014,1.1014,0,0,0-.2812.7471h-.7168a1.4184,1.4184,0,0,1,.4375-1.1524,1.7394,1.7394,0,0,1,1.2754-.4668,1.6116,1.6116,0,0,1,1.1836.4043,1.42,1.42,0,0,1,.4355,1.0586,1.7445,1.7445,0,0,1-.25.8428,6.8437,6.8437,0,0,1-.7441,1.0576l-1.4043,1.62.0312.0313h2.4942Zm4.33-1.9619a2.2365,2.2365,0,0,1-.4687,1.4931,1.7989,1.7989,0,0,1-2.5508,0,2.09,2.09,0,0,1-.5039-1.4931v-1.62a1.974,1.974,0,0,1,.5039-1.4649,1.5414,1.5414,0,0,1,1.2764-.56,1.5911,1.5911,0,0,1,1.2744.56,2.1077,2.1077,0,0,1,.4687,1.4649Zm-.749-1.7754a1.5827,1.5827,0,0,0-.249-.9346.8562.8562,0,0,0-.7451-.3428.796.796,0,0,0-.751.3428,1.3994,1.3994,0,0,0-.2793.9346V267.64a1.4,1.4,0,0,0,.2793.9336.8951.8951,0,0,0,.751.375.8836.8836,0,0,0,.7451-.375,1.5835,1.5835,0,0,0,.249-.9336Zm3.8955,3.7373h-.7793v-4.8281h-1.1836v-.5918l1.9629-.1866Zm5.67,0h-3.4326v-.5293l1.7178-2.0557a6.2717,6.2717,0,0,0,.6523-.9043,1.717,1.717,0,0,0,.1563-.6543.8743.8743,0,0,0-.2149-.623.7635.7635,0,0,0-.625-.2481.92.92,0,0,0-.749.28,1.0846,1.0846,0,0,0-.247.7471h-.75a1.5586,1.5586,0,0,1,.4687-1.1524,1.7442,1.7442,0,0,1,1.2773-.4668,1.5385,1.5385,0,0,1,1.1524.4043,1.4367,1.4367,0,0,1,.4375,1.0586,1.7456,1.7456,0,0,1-.25.8428,9.4685,9.4685,0,0,1-.7149,1.0576l-1.4023,1.62v.0313h2.5234Zm25.6329,0h-3.4571v-.5293l1.7461-2.0557a4.3314,4.3314,0,0,0,.6231-.9043,1.3,1.3,0,0,0,.1855-.6543.8681.8681,0,0,0-.248-.623.6629.6629,0,0,0-.5918-.2481.9138.9138,0,0,0-.7461.28,1.101,1.101,0,0,0-.2813.7471h-.7168a1.535,1.535,0,0,1,.4336-1.1524,1.8259,1.8259,0,0,1,1.3106-.4668,1.58,1.58,0,0,1,1.1523.4043,1.4408,1.4408,0,0,1,.4336,1.0586,1.7382,1.7382,0,0,1-.2461.8428,6.78,6.78,0,0,1-.748,1.0576l-1.3711,1.62v.0313h2.5215Zm4.2988-1.9619a2.2555,2.2555,0,0,1-.4649,1.4931,1.8035,1.8035,0,0,1-2.5547,0,2.2691,2.2691,0,0,1-.498-1.4931v-1.62a2.1366,2.1366,0,0,1,.498-1.4649,1.7376,1.7376,0,0,1,2.5547,0,2.1251,2.1251,0,0,1,.4649,1.4649Zm-.7461-1.7754a1.5825,1.5825,0,0,0-.25-.9346.8556.8556,0,0,0-.7442-.3428.7974.7974,0,0,0-.75.3428,1.3893,1.3893,0,0,0-.2793.9346V267.64a1.39,1.39,0,0,0,.2793.9336.9317.9317,0,0,0,1.4942,0,1.3871,1.3871,0,0,0,.25-.9336Zm3.8945,3.7373h-.7793v-4.8281h-1.1836v-.5918l1.9629-.1866Zm3.8633-3.1455a.9365.9365,0,0,0,.7148-.25,1.1136,1.1136,0,0,0,.1895-.6846.9574.9574,0,0,0-.2207-.6865.7838.7838,0,0,0-.6524-.2481,1.0528,1.0528,0,0,0-.7167.2481.9167.9167,0,0,0-.2813.6865h-.7148l-.0313-.0312a1.3228,1.3228,0,0,1,.4961-1.0586,1.782,1.782,0,0,1,1.248-.4366,1.8965,1.8965,0,0,1,1.2149.3731,1.5374,1.5374,0,0,1,.4023,1.1533,1.4569,1.4569,0,0,1-.1836.7158,1.298,1.298,0,0,1-.5605.5,1.1157,1.1157,0,0,1,.6211.4981,1.3785,1.3785,0,0,1,.2187.8086,1.6027,1.6027,0,0,1-.4668,1.2158,1.8838,1.8838,0,0,1-1.2461.4033,1.94,1.94,0,0,1-1.248-.4033,1.2852,1.2852,0,0,1-.5293-1.0908v-.0313h.7168a.8426.8426,0,0,0,.3125.6856,1.0153,1.0153,0,0,0,.748.28.9918.9918,0,0,0,.7168-.28,1.1377,1.1377,0,0,0,.2461-.7491.9953.9953,0,0,0-.2461-.7783.9113.9113,0,0,0-.748-.249h-.625v-.5908Zm29.375,3.1455h-3.4277v-.5293l1.7129-2.0557a4.0412,4.0412,0,0,0,.623-.9043,1.3028,1.3028,0,0,0,.1875-.6543.8615.8615,0,0,0-.25-.623.6608.6608,0,0,0-.5918-.2481.9138.9138,0,0,0-.7461.28,1.1014,1.1014,0,0,0-.2812.7471h-.7168a1.4426,1.4426,0,0,1,.4648-1.1524,1.7035,1.7035,0,0,1,1.2793-.4668,1.5911,1.5911,0,0,1,1.1543.4043,1.4444,1.4444,0,0,1,.4375,1.0586,1.77,1.77,0,0,1-.252.8428,6.9115,6.9115,0,0,1-.748,1.0576l-1.3672,1.62v.0313h2.5215Zm4.2969-1.9619a2.2567,2.2567,0,0,1-.4668,1.4931,1.8013,1.8013,0,0,1-2.5528,0,2.27,2.27,0,0,1-.5-1.4931v-1.62a2.1373,2.1373,0,0,1,.5-1.4649,1.7355,1.7355,0,0,1,2.5528,0,2.1261,2.1261,0,0,1,.4668,1.4649Zm-.7461-1.7754a1.3869,1.3869,0,0,0-.25-.9346.859.859,0,0,0-.7461-.3428.7972.7972,0,0,0-.75.3428,1.389,1.389,0,0,0-.2774.9346V267.64a1.39,1.39,0,0,0,.2774.9336.9336.9336,0,0,0,1.4961,0,1.3871,1.3871,0,0,0,.25-.9336Zm3.8926,3.7373h-.7481v-4.8281h-1.2168v-.5918l1.9649-.1866Zm5.0449-1.8682h.7793v.5918h-.7793v1.2764h-.7129V268.17h-2.3984v-.4365l2.3339-3.8311h.7774Zm-2.3028,0h1.59v-2.5859h-.0332l-.0606.1855Z"/><path class="cls-3" d="M423.3965,142.1982h.7461v.5928h-.7461v1.2754h-.7481V142.791h-2.3691v-.4365l2.3027-3.8018h.8145Zm-2.3379,0h1.59v-2.5849h-.0332l-.06.186Zm7.26-.0942A2.2512,2.2512,0,0,1,427.85,143.6a1.7358,1.7358,0,0,1-2.5566,0,2.1143,2.1143,0,0,1-.4991-1.4956v-1.6186a1.9905,1.9905,0,0,1,.4991-1.4649,1.5613,1.5613,0,0,1,1.28-.5586,1.6371,1.6371,0,0,1,1.2764.5586,2.1152,2.1152,0,0,1,.4688,1.4649Zm-.751-1.7739a1.5823,1.5823,0,0,0-.2471-.9346.9422.9422,0,0,0-.7471-.3437.8679.8679,0,0,0-.7509.3437,1.3989,1.3989,0,0,0-.2754.9346v1.93a1.5618,1.5618,0,0,0,.2754.9672.9139.9139,0,0,0,.7509.3409.9457.9457,0,0,0,.7471-.3409,1.7768,1.7768,0,0,0,.2471-.9672ZM422.18,168.9258a.8929.8929,0,0,0,.7148-.25,1.1816,1.1816,0,0,0,0-1.3711.8243.8243,0,0,0-.6836-.28.9841.9841,0,0,0-.7148.28.8926.8926,0,0,0-.2832.6543H420.5a1.1618,1.1618,0,0,1,.4658-1.0586,1.7049,1.7049,0,0,1,1.2451-.4678,1.7959,1.7959,0,0,1,1.2188.4063,1.51,1.51,0,0,1,.4336,1.1523,1.06,1.06,0,0,1-.2188.6846,1.2507,1.2507,0,0,1-.5625.498,1.3462,1.3462,0,0,1,.6524.5313,1.5917,1.5917,0,0,1,.2187.8086,1.5374,1.5374,0,0,1-.498,1.1826,1.77,1.77,0,0,1-1.2442.4365,1.98,1.98,0,0,1-1.2451-.4043,1.2775,1.2775,0,0,1-.501-1.123h.7188a.8943.8943,0,0,0,.2793.6562,1.0132,1.0132,0,0,0,.748.2793.8905.8905,0,0,0,.7149-.2793,1.0117,1.0117,0,0,0,.2832-.748,1.1652,1.1652,0,0,0-.251-.7783,1.0477,1.0477,0,0,0-.7783-.2491h-.5938v-.56Zm6.1387,1.1826a2.115,2.115,0,0,1-.4688,1.4648,1.74,1.74,0,0,1-2.5566,0,1.99,1.99,0,0,1-.4991-1.4648v-1.62a2.1179,2.1179,0,0,1,.4991-1.4942,1.5578,1.5578,0,0,1,1.28-.5615,1.6334,1.6334,0,0,1,1.2764.5615,2.2552,2.2552,0,0,1,.4688,1.4942Zm-.751-1.7754a1.7705,1.7705,0,0,0-.2471-.9658.9412.9412,0,0,0-.7471-.3428.8671.8671,0,0,0-.7509.3428,1.5564,1.5564,0,0,0-.2754.9658v1.9316a1.4543,1.4543,0,0,0,.2754.9336.91.91,0,0,0,.7509.3428.9412.9412,0,0,0,.7471-.3428,1.5778,1.5778,0,0,0,.2471-.9336Zm-3.5791,31.7119h-3.43v-.53l1.7461-2.0566a4.2829,4.2829,0,0,0,.6211-.9023,1.2476,1.2476,0,0,0,.1562-.6553.841.841,0,0,0-.2168-.6216.72.72,0,0,0-.623-.2495,1.0058,1.0058,0,0,0-.7461.28,1.2665,1.2665,0,0,0-.25.747h-.7188a1.4242,1.4242,0,0,1,.4385-1.1513,1.7268,1.7268,0,0,1,1.2764-.4688,1.62,1.62,0,0,1,1.1875.4063,1.4124,1.4124,0,0,1,.4023,1.0576,1.6162,1.6162,0,0,1-.2207.8418,9.2968,9.2968,0,0,1-.7461,1.06l-1.4023,1.6191.0332.0312h2.4922Zm4.33-1.9629a2.2534,2.2534,0,0,1-.4688,1.4942,1.8061,1.8061,0,0,1-2.5566,0,2.1162,2.1162,0,0,1-.4991-1.4942v-1.62a1.9934,1.9934,0,0,1,.4991-1.4648,1.5627,1.5627,0,0,1,1.28-.5606,1.6388,1.6388,0,0,1,1.2764.5606,2.1184,2.1184,0,0,1,.4688,1.4648Zm-.751-1.7773a1.5909,1.5909,0,0,0-.2471-.9346.8609.8609,0,0,0-.7471-.3408.8017.8017,0,0,0-.7509.3408,1.4059,1.4059,0,0,0-.2754.9346v1.9321a1.4059,1.4059,0,0,0,.2754.9361.8581.8581,0,0,0,.7509.372.8856.8856,0,0,0,.7471-.372,1.5907,1.5907,0,0,0,.2471-.9361Zm-4.89,31.7119h-.748V223.189h-1.1836v-.5611l1.9316-.2177Zm5.6407-1.9316a2.1107,2.1107,0,0,1-.4688,1.4638,1.7348,1.7348,0,0,1-2.5566,0,1.9864,1.9864,0,0,1-.4991-1.4638v-1.62a2.1227,2.1227,0,0,1,.4991-1.4951,1.5593,1.5593,0,0,1,1.28-.5595,1.6349,1.6349,0,0,1,1.2764.5595,2.2605,2.2605,0,0,1,.4688,1.4951Zm-.751-1.7745a1.76,1.76,0,0,0-.2471-.9648.9431.9431,0,0,0-.7471-.3447.8685.8685,0,0,0-.7509.3447,1.5478,1.5478,0,0,0-.2754.9648v1.9307a1.5193,1.5193,0,0,0,.2754.9346.91.91,0,0,0,.7509.3428.9415.9415,0,0,0,.7471-.3428,1.6537,1.6537,0,0,0,.2471-.9346Zm-3.6143,29.7471a2.1016,2.1016,0,0,1-.498,1.4951,1.8013,1.8013,0,0,1-2.5528,0,2.2523,2.2523,0,0,1-.4687-1.4951V252.44a2.26,2.26,0,0,1,.4687-1.4971,1.8061,1.8061,0,0,1,2.5528,0,2.1084,2.1084,0,0,1,.498,1.4971Zm-.7441-1.7754a1.3908,1.3908,0,0,0-.2832-.9336.8583.8583,0,0,0-.7461-.3447.8675.8675,0,0,0-.75.3447,1.5984,1.5984,0,0,0-.2461.9336v1.9317a1.6089,1.6089,0,0,0,.2461.9355.8942.8942,0,0,0,.75.3731.8125.8125,0,0,0,.7461-.3731,1.4,1.4,0,0,0,.2832-.9355Z"/><rect class="cls-4" x="430.5586" y="140.8906" width="143.3203" height="0.4668"/><rect class="cls-4" x="430.5586" y="169.0508" width="143.3203" height="0.498"/><rect class="cls-4" x="430.5586" y="197.2393" width="143.3203" height="0.4678"/><rect class="cls-4" x="430.5586" y="225.3994" width="143.3203" height="0.499"/><rect class="cls-4" x="430.5586" y="253.5918" width="143.3203" height="0.4658"/><rect class="cls-14" x="430.5586" y="225.8984" width="10.8066" height="27.9414"/><rect class="cls-15" x="443.1748" y="184.0635" width="10.8076" height="69.7763"/><rect class="cls-14" x="469.0313" y="141.3574" width="10.8085" height="112.4824"/><rect class="cls-15" x="481.6465" y="184.0635" width="10.8066" height="69.7763"/><rect class="cls-14" x="508.4375" y="169.0508" width="10.8066" height="84.789"/><rect class="cls-15" x="521.0508" y="184.0635" width="10.8086" height="69.7763"/><rect class="cls-14" x="550.2383" y="211.5078" width="10.8086" height="42.332"/><rect class="cls-15" x="562.8555" y="154.0977" width="10.8086" height="99.7421"/><path class="cls-3" d="M602.9141,106.47V98.1836h2.8945a3.3578,3.3578,0,0,1,3.49,3.458v1.37a3.357,3.357,0,0,1-.998,2.49,3.5048,3.5048,0,0,1-2.4922.9682Zm1.65-7.01v5.7324h1.2441a1.6482,1.6482,0,0,0,1.3086-.625,2.3244,2.3244,0,0,0,.498-1.5557V101.61a2.3312,2.3312,0,0,0-.498-1.5572,1.618,1.618,0,0,0-1.3086-.5932Zm5.67,3.8632a3.165,3.165,0,0,1,.7773-2.2421,2.6417,2.6417,0,0,1,2.1192-.9043,2.7633,2.7633,0,0,1,2.15.9043,3.3322,3.3322,0,0,1,.7773,2.2421v.125a3.4191,3.4191,0,0,1-.7773,2.2735,2.78,2.78,0,0,1-2.1192.872,2.747,2.747,0,0,1-2.15-.872,3.2466,3.2466,0,0,1-.7773-2.2735Zm1.6484.125a2.7387,2.7387,0,0,0,.3125,1.3389,1.0114,1.0114,0,0,0,.9668.5308,1.0615,1.0615,0,0,0,.9336-.5308,2.7319,2.7319,0,0,0,.2813-1.3389v-.125a2.82,2.82,0,0,0-.2813-1.34,1.05,1.05,0,0,0-.9648-.498.9705.9705,0,0,0-.9356.498,2.834,2.834,0,0,0-.3125,1.34Zm6.6992-3.1464.0918.873a2.0446,2.0446,0,0,1,.7481-.7168,1.9581,1.9581,0,0,1,1.0273-.2812,1.814,1.814,0,0,1,1.4336.622,2.88,2.88,0,0,1,.5313,1.9v3.771h-1.65v-3.771a1.4442,1.4442,0,0,0-.252-.9346.8291.8291,0,0,0-.6836-.2792,1.4351,1.4351,0,0,0-.6543.125,1.15,1.15,0,0,0-.4687.4052V106.47h-1.65v-6.1684Zm8.8438,5.2636a2.3189,2.3189,0,0,1-.7149.7486,2.0361,2.0361,0,0,1-2.5527-.4048,3.2861,3.2861,0,0,1-.5312-2.0254v-3.582h1.6484v3.582a2.035,2.035,0,0,0,.2207,1.1216.8265.8265,0,0,0,.6855.28,1.6179,1.6179,0,0,0,.6856-.1236,1.3651,1.3651,0,0,0,.4648-.3745v-4.4853h1.6524V106.47h-1.3692Zm4.7988-6.76v1.4961h1.0606v1.1836h-1.0606V104.6a.8083.8083,0,0,0,.1563.5293.5838.5838,0,0,0,.4023.1563c.0957,0,.1563-.0323.2207-.0323.0625,0,.1563-.03.2168-.03l.1563,1.1845a3.5452,3.5452,0,0,1-.4981.1231,2.64,2.64,0,0,1-.5293.0634,1.6786,1.6786,0,0,1-1.3105-.498,2.064,2.064,0,0,1-.4649-1.4961v-3.1142h-.9023v-1.1836h.9023V98.8057Zm11.2149,5.0156v.0317a2.355,2.355,0,0,1-.8106,1.93,3.1122,3.1122,0,0,1-2.2129.8105,2.9847,2.9847,0,0,1-2.3027-.997,3.7155,3.7155,0,0,1-.8731-2.5225v-1.4951a3.6125,3.6125,0,0,1,.8731-2.5244,2.9907,2.9907,0,0,1,2.3027-.9961,3.1192,3.1192,0,0,1,2.2129.7471,2.4043,2.4043,0,0,1,.8106,1.9931v.0323h-1.0606a1.7884,1.7884,0,0,0-.5273-1.3711,1.94,1.94,0,0,0-1.4356-.5288,1.7273,1.7273,0,0,0-1.4941.7788,3.03,3.03,0,0,0-.5586,1.8691v1.4951a3.029,3.029,0,0,0,.5586,1.8682,1.7746,1.7746,0,0,0,1.4941.748,1.9183,1.9183,0,0,0,1.4356-.498,1.785,1.785,0,0,0,.5273-1.3711Zm2.43-2.6787a2.78,2.78,0,0,1,.7793-.7168,2.2731,2.2731,0,0,1,1.0274-.249,2.0829,2.0829,0,0,1,1.5566.5918,2.8072,2.8072,0,0,1,.5313,1.8378V106.47h-1.1231v-3.8638a1.6952,1.6952,0,0,0-.3125-1.1523,1.3668,1.3668,0,0,0-.9941-.3428,1.7742,1.7742,0,0,0-.8418.1875,1.533,1.533,0,0,0-.6231.56V106.47H644.75V97.5918h1.1191Zm9.3145,5.3276a1.503,1.503,0,0,1-.0918-.499,1.9362,1.9362,0,0,1-.0332-.436,2.4073,2.4073,0,0,1-.84.746,2.2458,2.2458,0,0,1-2.5547-.1855,1.9424,1.9424,0,0,1-.5-1.37,1.6071,1.6071,0,0,1,.7148-1.3716,3.2373,3.2373,0,0,1,1.9336-.4985h1.2461v-.6231a1.141,1.141,0,0,0-.3438-.84,1.5289,1.5289,0,0,0-1.8066-.0308.7079.7079,0,0,0-.3437.6543h-1.0567l-.0332-.0322a1.4943,1.4943,0,0,1,.625-1.2451,2.9631,2.9631,0,0,1,3.4258-.0322,1.918,1.918,0,0,1,.6543,1.5576v2.959a3.9875,3.9875,0,0,0,.0312.624,2.3484,2.3484,0,0,0,.1231.6235Zm-1.8711-.8423a1.8731,1.8731,0,0,0,1.0918-.31,1.4521,1.4521,0,0,0,.6543-.7183v-.9961h-1.2793a1.74,1.74,0,0,0-1.0859.3428,1.1179,1.1179,0,0,0-.4082.81.8151.8151,0,0,0,.2793.6543,1.029,1.029,0,0,0,.748.2177Zm7.3848-4.3291-.5606-.0322a1.1376,1.1376,0,0,0-.75.2188,1.0319,1.0319,0,0,0-.4668.5917V106.47h-1.1211v-6.1684h.9981l.0937.9033a2.5437,2.5437,0,0,1,.6524-.7471,1.4786,1.4786,0,0,1,.9043-.2812c.0625,0,.1562.0312.2187.0312a.543.543,0,0,0,.1875.0317Zm2.834-2.4931v1.4961h1.1835v.8408h-1.1835v3.7383a.7452.7452,0,0,0,.1875.5918.6308.6308,0,0,0,.4667.186.6084.6084,0,0,0,.2168-.0308.2638.2638,0,0,0,.1875-.0625l.1563.7793a.9883.9883,0,0,1-.3731.1856,2.3427,2.3427,0,0,1-.4687.0634,1.4486,1.4486,0,0,1-1.09-.4355,1.6454,1.6454,0,0,1-.4043-1.2773v-3.7383h-.9668v-.8408h.9668V98.8057Z"/><path class="cls-16" d="M680.1641,272.5615a68.7476,68.7476,0,1,0-68.7481-68.749,68.7456,68.7456,0,0,0,68.7481,68.749Zm0-17.9736a50.7744,50.7744,0,1,0-50.7735-50.7754,50.7818,50.7818,0,0,0,50.7735,50.7754Z"/><path class="cls-17" d="M680.1641,272.5615a68.7456,68.7456,0,0,0,68.7519-68.749H730.9375a50.7818,50.7818,0,0,1-50.7734,50.7754Z"/><path class="cls-18" d="M748.916,203.8125h0a68.7437,68.7437,0,0,0-68.7519-68.7461v17.9727a50.7807,50.7807,0,0,1,50.7734,50.7734H748.916Z"/><path class="cls-19" d="M611.416,203.8125h0a68.7448,68.7448,0,0,0,68.7481,68.749V254.5879a50.7831,50.7831,0,0,1-50.7735-50.7754H611.416Z"/><path class="cls-3" d="M679.5117,212.2861H668.9844V210.73l5.3242-6.3555a14.9919,14.9919,0,0,0,1.9023-2.7422,4.5859,4.5859,0,0,0,.5274-2.0556,2.8589,2.8589,0,0,0-.6836-1.93,2.4714,2.4714,0,0,0-1.9024-.7481,2.8776,2.8776,0,0,0-2.3066.9346,3.5352,3.5352,0,0,0-.7773,2.2734h-2.209l-.0313-.0615a4.5315,4.5315,0,0,1,1.4-3.4892,5.3087,5.3087,0,0,1,3.9238-1.4639,4.87,4.87,0,0,1,3.5528,1.2764,4.2743,4.2743,0,0,1,1.3066,3.24,5.3177,5.3177,0,0,1-.7148,2.6152,28.4914,28.4914,0,0,1-2.2735,3.209l-4.2695,5.0147.0293.0634h7.7285Zm3.1778-7.539.9648-9.4063h8.5039v2.0547h-6.5723l-.5312,4.86a4.5664,4.5664,0,0,1,1.2148-.6543,3.8008,3.8008,0,0,1,1.4981-.2793,4.4787,4.4787,0,0,1,3.6719,1.4638,5.875,5.875,0,0,1,1.34,4.11,5.8161,5.8161,0,0,1-1.3711,4.08,4.9275,4.9275,0,0,1-3.9824,1.5571,5.3394,5.3394,0,0,1-3.584-1.1821,4.1182,4.1182,0,0,1-1.3711-3.4571l.0293-.0635h2.0586a2.8157,2.8157,0,0,0,.8086,2.15,2.8826,2.8826,0,0,0,2.0586.749,2.6568,2.6568,0,0,0,2.2695-.9976,4.47,4.47,0,0,0,.8145-2.8042,4.1813,4.1813,0,0,0-.8145-2.6474,2.8307,2.8307,0,0,0-2.2695-.9951,3.7318,3.7318,0,0,0-1.9356.4033,2.4563,2.4563,0,0,0-.9023,1.2763Z"/><path class="cls-3" d="M696.6738,204.5293a1.7453,1.7453,0,0,1,.4707-1.2149,1.6056,1.6056,0,0,1,1.2422-.498,1.5726,1.5726,0,0,1,1.2461.498,1.6978,1.6978,0,0,1,.4668,1.2149v.4355a1.7758,1.7758,0,0,1-.4336,1.2168,1.6277,1.6277,0,0,1-1.2461.4971,1.6843,1.6843,0,0,1-1.2754-.4971,1.6485,1.6485,0,0,1-.4707-1.2168Zm.8438.4355a1.279,1.279,0,0,0,.2168.7168.8449.8449,0,0,0,.6855.3125.7264.7264,0,0,0,.6231-.3125,1.1175,1.1175,0,0,0,.25-.7168v-.4355a1.1216,1.1216,0,0,0-.25-.7168.8445.8445,0,0,0-1.3086,0,1.284,1.284,0,0,0-.2168.7168Zm3.1758,4.2374a1.6527,1.6527,0,0,1,.4668-1.2159,1.6255,1.6255,0,0,1,1.2461-.498,1.5671,1.5671,0,0,1,1.2421.498,1.64,1.64,0,0,1,.4707,1.2159v.4365a1.6362,1.6362,0,0,1-.4707,1.2148,1.5378,1.5378,0,0,1-1.2089.4981,1.6534,1.6534,0,0,1-1.7461-1.7129Zm.84.4365a1.0931,1.0931,0,0,0,.2207.7168.8439.8439,0,0,0,.6856.31.8152.8152,0,0,0,.621-.31,1.123,1.123,0,0,0,.252-.7168v-.4365a1.1143,1.1143,0,0,0-.252-.7159.8391.8391,0,0,0-1.3066,0,1.0852,1.0852,0,0,0-.2207.7159Zm-2.832.9648-.625-.3745,4.0488-6.478.625.374Z"/><path class="cls-3" d="M652.7207,226.6465v-8.2871h2.8965a3.3842,3.3842,0,0,1,2.4941.9658,3.3173,3.3173,0,0,1,.9981,2.4922v1.3716a3.4147,3.4147,0,0,1-.9981,2.4917,3.5126,3.5126,0,0,1-2.4941.9658Zm1.6523-7.0088v5.7314h1.2442a1.6086,1.6086,0,0,0,1.3086-.623,2.3226,2.3226,0,0,0,.5-1.5571v-1.4029a2.3168,2.3168,0,0,0-.5-1.5556,1.5807,1.5807,0,0,0-1.3086-.5928Zm5.67,3.8623a3.4043,3.4043,0,0,1,.7793-2.2749,2.7869,2.7869,0,0,1,2.1484-.8716,2.7309,2.7309,0,0,1,2.1191.8716,3.2688,3.2688,0,0,1,.7774,2.2749v.126a3.1344,3.1344,0,0,1-.7774,2.2422,2.6262,2.6262,0,0,1-2.1191.8711,2.7232,2.7232,0,0,1-2.1484-.8711,3.261,3.261,0,0,1-.7793-2.2422Zm1.6816.126a2.75,2.75,0,0,0,.2813,1.3379,1.0673,1.0673,0,0,0,.9648.53.99.99,0,0,0,.9336-.53,2.4135,2.4135,0,0,0,.3125-1.3379V223.5a2.7619,2.7619,0,0,0-.3125-1.34,1.0222,1.0222,0,0,0-.9336-.53,1.0672,1.0672,0,0,0-.9648.53,2.7556,2.7556,0,0,0-.2813,1.34Zm6.6973-3.1485.06.8731a2.3429,2.3429,0,0,1,.75-.7168,1.955,1.955,0,0,1,1.0254-.28,1.8917,1.8917,0,0,1,1.4668.6221,2.8057,2.8057,0,0,1,.4961,1.8706v3.8h-1.6484V222.877a1.4094,1.4094,0,0,0-.25-.9346.79.79,0,0,0-.6875-.28,1.4484,1.4484,0,0,0-.65.124,1.1624,1.1624,0,0,0-.4688.4068v4.4536h-1.6523v-6.169Zm8.8457,5.2344a2.2331,2.2331,0,0,1-.7481.7778,1.7539,1.7539,0,0,1-.9961.25,1.8544,1.8544,0,0,1-1.5273-.6543,3.131,3.131,0,0,1-.5586-2.0557v-3.5518h1.6484v3.583a2.1521,2.1521,0,0,0,.2188,1.09.7707.7707,0,0,0,.6875.3125,1.4719,1.4719,0,0,0,.6816-.1255,1.35,1.35,0,0,0,.4688-.3735v-4.4864h1.65v6.169h-1.3672Zm4.7969-6.7588v1.5244h1.0273V221.63h-1.0273v3.1474a.8471.8471,0,0,0,.123.5293.6372.6372,0,0,0,.4063.125h.2187a.9941.9941,0,0,0,.248-.0625l.127,1.2149a2.9564,2.9564,0,0,1-.498.125,2.6249,2.6249,0,0,1-.502.03,1.7973,1.7973,0,0,1-1.3379-.4668,2.0534,2.0534,0,0,1-.4668-1.4952V221.63h-.8711v-1.1524h.8711v-1.5244Zm11.1855,5.0137.0293.0625a2.53,2.53,0,0,1-.8418,1.9307,3.04,3.04,0,0,1-2.2109.7793,2.8937,2.8937,0,0,1-2.3067-.9952,3.762,3.762,0,0,1-.8711-2.5253v-1.4639a3.7641,3.7641,0,0,1,.8711-2.5235,2.8924,2.8924,0,0,1,2.3067-.997,3.2585,3.2585,0,0,1,2.2441.748,2.4764,2.4764,0,0,1,.8086,1.9629l-.0293.0635H692.19a1.78,1.78,0,0,0-1.9629-1.9014,1.78,1.78,0,0,0-1.4961.7481,3.1785,3.1785,0,0,0-.5586,1.8994v1.4639a3.05,3.05,0,0,0,.5586,1.9,1.7813,1.7813,0,0,0,1.4961.7491,1.78,1.78,0,0,0,1.9629-1.9014Zm2.459-2.6787a2.0972,2.0972,0,0,1,.7754-.6856,2.3173,2.3173,0,0,1,1.0332-.249,2.0615,2.0615,0,0,1,1.5254.5918,2.6,2.6,0,0,1,.5586,1.8379v3.8633h-1.1192v-3.8936a1.6671,1.6671,0,0,0-.3437-1.123,1.2029,1.2029,0,0,0-.9668-.3721,1.9011,1.9011,0,0,0-.8711.2178,1.6025,1.6025,0,0,0-.5918.5283v4.6426h-1.1211v-8.8784h1.1211Zm9.2812,5.3584c-.0293-.187-.06-.374-.0918-.4981a2.0566,2.0566,0,0,1-.0312-.4365,3.0635,3.0635,0,0,1-.8106.7476,2.2674,2.2674,0,0,1-1.0878.28,2.0686,2.0686,0,0,1-1.4668-.4668,1.8139,1.8139,0,0,1-.4961-1.3711,1.5011,1.5011,0,0,1,.7148-1.37,3.23,3.23,0,0,1,1.9277-.4981h1.2188v-.623a1.0945,1.0945,0,0,0-.3457-.8418,1.2454,1.2454,0,0,0-.9317-.3106,1.3121,1.3121,0,0,0-.871.2481.855.855,0,0,0-.3438.6543l-1.0586.0327V222.16a1.4806,1.4806,0,0,1,.6211-1.2452,2.5841,2.5841,0,0,1,1.7109-.5615,2.5357,2.5357,0,0,1,1.6875.5308,1.9169,1.9169,0,0,1,.6524,1.5571v2.958a3.7464,3.7464,0,0,0,.0332.624,4.1341,4.1341,0,0,0,.123.6231Zm-1.8691-.8418a1.866,1.866,0,0,0,1.0918-.3106,1.3126,1.3126,0,0,0,.6543-.7168v-.997H703.59a1.6008,1.6008,0,0,0-1.0585.3427.9872.9872,0,0,0-.4063.8106.7919.7919,0,0,0,.25.6543,1.0166,1.0166,0,0,0,.7461.2168Zm7.4141-4.3291-.5879-.0322a1.5019,1.5019,0,0,0-.752.1865,1.7685,1.7685,0,0,0-.4648.5928v4.4238h-1.1231v-6.169h.9961l.127.9038a1.878,1.878,0,0,1,.6543-.7475,1.391,1.391,0,0,1,.8711-.28.6873.6873,0,0,1,.25.0313c.0644,0,.125.0307.1875.0307Zm2.8046-2.4932v1.4951h1.1836v.8418H713.34v3.7373a.7944.7944,0,0,0,.1875.5933.6354.6354,0,0,0,.4668.186.46.46,0,0,0,.2168-.0312,2.0878,2.0878,0,0,0,.2207-.0606l.1543.7774a1.0268,1.0268,0,0,1-.375.1562,1.3789,1.3789,0,0,1-.498.0616,1.4678,1.4678,0,0,1-1.0879-.4053,1.825,1.825,0,0,1-.4062-1.2774v-3.7373h-.9649v-.8418h.9649v-1.4951Z"/><rect class="cls-4" x="37.2275" y="73.7617" width="721.7471" height="0.4981"/><path class="cls-3" d="M47.6313,305.958a1.4837,1.4837,0,0,0-.497-1.1826,5.2561,5.2561,0,0,0-1.7774-.8106,10.2414,10.2414,0,0,1-3.3022-1.5585,2.914,2.914,0,0,1-1.1226-2.3985,3.0759,3.0759,0,0,1,1.2779-2.5234,5.1627,5.1627,0,0,1,3.2412-.9961,4.9717,4.9717,0,0,1,3.3325,1.06,3.2554,3.2554,0,0,1,1.2456,2.7714l-.03.0323h-2.43a1.8278,1.8278,0,0,0-.5615-1.4327,2.3838,2.3838,0,0,0-1.62-.498,2.0769,2.0769,0,0,0-1.4316.4355,1.4621,1.4621,0,0,0-.4981,1.1514,1.2643,1.2643,0,0,0,.56,1.06,7.0371,7.0371,0,0,0,1.9013.8408,8.4891,8.4891,0,0,1,3.1456,1.5264,3.2069,3.2069,0,0,1,1.09,2.4931,2.9817,2.9817,0,0,1-1.2461,2.5528,5.4734,5.4734,0,0,1-3.3311.9355,6.0646,6.0646,0,0,1-3.4892-.9961,3.3573,3.3573,0,0,1-1.4033-3.0224v-.0625h2.4619a1.9839,1.9839,0,0,0,.6543,1.65,2.799,2.799,0,0,0,1.7763.53,2.4143,2.4143,0,0,0,1.5254-.4345,1.3086,1.3086,0,0,0,.5288-1.1231Zm12.6148-1.12a5.3325,5.3325,0,0,1-.9634,3.3008,3.2,3.2,0,0,1-2.68,1.2773,2.8918,2.8918,0,0,1-1.3076-.2812,2.8464,2.8464,0,0,1-.9658-.7793v4.455H51.8066V299.9141H54.08l.1543,1.0908a2.8593,2.8593,0,0,1,.9961-.9336,2.6638,2.6638,0,0,1,1.3408-.3438,3.1893,3.1893,0,0,1,2.7114,1.34,6.2464,6.2464,0,0,1,.9634,3.582Zm-2.5225-.1885a4.7982,4.7982,0,0,0-.4355-2.1484,1.4749,1.4749,0,0,0-1.3389-.8106,1.9556,1.9556,0,0,0-.9971.2178,1.66,1.66,0,0,0-.623.6856v4.081a1.6119,1.6119,0,0,0,.623.5918,2.0407,2.0407,0,0,0,.9971.2188,1.4484,1.4484,0,0,0,1.3389-.7178,3.781,3.781,0,0,0,.4355-1.93Zm9.5635,4.5791c-.0937-.2178-.1553-.4355-.249-.6855a5.14,5.14,0,0,1-.126-.7159,3.2211,3.2211,0,0,1-1.0278,1.1221,2.5405,2.5405,0,0,1-1.5259.4668,3.1486,3.1486,0,0,1-2.2412-.7471,2.7976,2.7976,0,0,1-.8106-2.0566,2.5618,2.5618,0,0,1,1.0586-2.1494,5.3706,5.3706,0,0,1,3.085-.7481h1.4v-.746a1.3771,1.3771,0,0,0-.3423-1.0284,1.3621,1.3621,0,0,0-1.0576-.374,1.258,1.258,0,0,0-.9356.3115,1.0336,1.0336,0,0,0-.3437.81H61.7754l-.0342-.0625a2.3864,2.3864,0,0,1,1.03-2.0254,4.4228,4.4228,0,0,1,2.8642-.8721,4.1388,4.1388,0,0,1,2.71.8418,2.9567,2.9567,0,0,1,1.0278,2.43v3.8633a7.3166,7.3166,0,0,0,.0943,1.2139,6.9645,6.9645,0,0,0,.3432,1.1523Zm-2.3047-1.6816a2.1719,2.1719,0,0,0,1.1836-.3125,1.7944,1.7944,0,0,0,.6841-.7774v-1.31h-1.4a1.6491,1.6491,0,0,0-1.2173.4052,1.21,1.21,0,0,0-.4038.9659.927.927,0,0,0,.3125.748,1.1424,1.1424,0,0,0,.8408.28Zm11.1826-5.4834-.9043-.03a1.7423,1.7423,0,0,0-.9336.249,1.3621,1.3621,0,0,0-.5283.6543v6.292H71.2754v-9.3144h2.3325l.1265,1.3711a3.0032,3.0032,0,0,1,.8427-1.1524,1.81,1.81,0,0,1,1.1846-.4053,1.5215,1.5215,0,0,1,.3731.0313c.0918.0322.2182.0322.3105.0625ZM80.65,305.335h-.6543v3.8935H77.4727v-13.457h2.5234v7.6328h.56l2.2441-3.49H85.728l-3.0532,4.2373,3.459,5.0771H83.2354Zm8.9394,3.8935H87.0664v-13.457H89.59Zm4.7364,0H91.8027v-9.3144h2.5235Zm0-11.5566H91.8027v-1.9h2.5235Zm4.3593,2.2422.0948,1.3095a3.5085,3.5085,0,0,1,1.1533-1.0908,2.8531,2.8531,0,0,1,1.5259-.4053,2.7962,2.7962,0,0,1,2.2114.9034,4.3486,4.3486,0,0,1,.81,2.8964v5.7012h-2.522v-5.7012a2.124,2.124,0,0,0-.3765-1.4316,1.213,1.213,0,0,0-1.0273-.4053,2.0441,2.0441,0,0,0-.9971.2178,1.8177,1.8177,0,0,0-.7158.56v6.7607H96.35v-9.3144Zm11.7129,9.5019a4.2438,4.2438,0,0,1-3.27-1.2773,4.74,4.74,0,0,1-1.1523-3.3008v-.3447a5.0885,5.0885,0,0,1,1.123-3.4258,3.85,3.85,0,0,1,3.1426-1.34,3.5332,3.5332,0,0,1,2.8662,1.1524,4.5083,4.5083,0,0,1,.999,3.1152v1.2783H108.56l-.03.0616a2.5626,2.5626,0,0,0,.5932,1.5576,1.8615,1.8615,0,0,0,1.5254.5928,5.1642,5.1642,0,0,0,2.6778-.7178l.6855,1.5576a4.9893,4.9893,0,0,1-1.5254.78,6.5732,6.5732,0,0,1-2.0879.31Zm-.1572-7.7558a1.4338,1.4338,0,0,0-1.1841.5283,2.6228,2.6228,0,0,0-.4975,1.3711l.0312.0625h3.0547v-.1875a2.042,2.042,0,0,0-.3437-1.3076,1.1909,1.1909,0,0,0-1.0606-.4668Zm19.3447,3.4257.0332.0313a3.9974,3.9974,0,0,1-1.247,3.1465,4.8926,4.8926,0,0,1-3.458,1.1523,4.7585,4.7585,0,0,1-3.6436-1.4639,5.1511,5.1511,0,0,1-1.4014-3.7392v-2.4912a5.3268,5.3268,0,0,1,1.3379-3.7686,4.6527,4.6527,0,0,1,3.5508-1.4648,5.3415,5.3415,0,0,1,3.6143,1.1211,3.9238,3.9238,0,0,1,1.247,3.1777v.03h-2.4609a2.4312,2.4312,0,0,0-.5928-1.8067,2.52,2.52,0,0,0-1.8076-.56,1.9408,1.9408,0,0,0-1.7432.9033,3.8319,3.8319,0,0,0-.623,2.3359v2.5225a4.0333,4.0333,0,0,0,.6533,2.3691,2.2,2.2,0,0,0,1.8692.9034,2.1656,2.1656,0,0,0,1.6806-.5928,2.5517,2.5517,0,0,0,.5635-1.8067Zm4.0821-4.0185a3.2385,3.2385,0,0,1,1.0888-.9658,2.6226,2.6226,0,0,1,1.4034-.3741,2.8789,2.8789,0,0,1,2.3046.9659,4.6912,4.6912,0,0,1,.8116,2.9912v5.5439h-2.5225v-5.5439a2.5486,2.5486,0,0,0-.3467-1.5576,1.224,1.224,0,0,0-1.0263-.4366,2.6024,2.6024,0,0,0-1.0274.1875,1.6289,1.6289,0,0,0-.6855.5284v6.8222h-2.5235v-13.457h2.5235Zm13.02,8.1611a4.7236,4.7236,0,0,1-.251-.6855,5.1489,5.1489,0,0,1-.123-.7159,3.6038,3.6038,0,0,1-1.0269,1.1221,2.5529,2.5529,0,0,1-1.5259.4668,3.2369,3.2369,0,0,1-2.2754-.7471,2.7792,2.7792,0,0,1-.7793-2.0566,2.4836,2.4836,0,0,1,1.0586-2.1494,5.2465,5.2465,0,0,1,3.085-.7481h1.4014v-.746a1.5113,1.5113,0,0,0-.3428-1.0284,1.41,1.41,0,0,0-1.0586-.374,1.2662,1.2662,0,0,0-.9356.3115,1.03,1.03,0,0,0-.3427.81h-2.4278v-.0625a2.3869,2.3869,0,0,1,1.0284-2.0254,4.3331,4.3331,0,0,1,2.833-.8721,4.2841,4.2841,0,0,1,2.74.8418,2.9529,2.9529,0,0,1,1.0288,2.43v3.8633a7.482,7.482,0,0,0,.0942,1.2139,6.9572,6.9572,0,0,0,.3125,1.1523Zm-2.3057-1.6816a2.24,2.24,0,0,0,1.1846-.3125,1.7965,1.7965,0,0,0,.6846-.7774v-1.31h-1.4014a1.64,1.64,0,0,0-1.2139.4052,1.2039,1.2039,0,0,0-.4062.9659.9209.9209,0,0,0,.3125.748,1.14,1.14,0,0,0,.84.28Zm11.1826-5.4834-.9028-.03a1.7413,1.7413,0,0,0-.9341.249,1.438,1.438,0,0,0-.56.6543v6.292h-2.4922v-9.3144h2.3349l.0928,1.3711a2.8058,2.8058,0,0,1,.874-1.1524,1.8166,1.8166,0,0,1,1.1846-.4053,1.16,1.16,0,0,1,.3418.0313c.125.0322.2178.0322.3428.0625Zm4.4864-4.4541v2.3047h1.5888V301.66h-1.5888v4.7656a1.11,1.11,0,0,0,.2187.7783.8215.8215,0,0,0,.5908.2178,1.3962,1.3962,0,0,0,.3745-.0313,1.3419,1.3419,0,0,0,.31-.0615l.2187,1.8369c-.248.0625-.499.124-.746.1875a5.6323,5.6323,0,0,1-.78.0625,2.69,2.69,0,0,1-1.9942-.7168,3.166,3.166,0,0,1-.7158-2.2734V301.66h-1.34v-1.7461h1.34v-2.3047Zm8.1611,9.0342a.8614.8614,0,0,0-.4033-.7159,4.1378,4.1378,0,0,0-1.4649-.53,6.013,6.013,0,0,1-2.4931-.9668,2.23,2.23,0,0,1-.8409-1.8057,2.54,2.54,0,0,1,.9971-2.0557,4.1413,4.1413,0,0,1,2.7109-.8418,4.4421,4.4421,0,0,1,2.8331.8418,2.4693,2.4693,0,0,1,1.0283,2.1182l-.0322.0322H168.12a1.2942,1.2942,0,0,0-.3408-.9033,1.409,1.409,0,0,0-1.06-.3447,1.547,1.547,0,0,0-.9648.28,1.04,1.04,0,0,0-.3447.749.8663.8663,0,0,0,.376.7158,3.7621,3.7621,0,0,0,1.4921.4678,6.549,6.549,0,0,1,2.5557,1.0273,2.208,2.208,0,0,1,.8408,1.8379,2.4572,2.4572,0,0,1-1.0908,2.0557,4.64,4.64,0,0,1-2.835.81,4.365,4.365,0,0,1-2.958-.9355,2.7148,2.7148,0,0,1-1.0273-2.1485l.0312-.0615H165.1a1.2881,1.2881,0,0,0,.4658,1.09,2.0719,2.0719,0,0,0,1.2139.3417,1.4866,1.4866,0,0,0,1.06-.3115.843.843,0,0,0,.374-.747Z"/><rect class="cls-14" x="337.8262" y="427.1309" width="10.8086" height="34.8896"/><rect class="cls-14" x="351.2207" y="406.2617" width="10.8086" height="55.7588"/><rect class="cls-15" x="364.6465" y="462.0205" width="10.7764" height="31.9268"/><rect class="cls-15" x="378.041" y="462.0205" width="10.7764" height="65.9756"/><rect class="cls-14" x="391.4336" y="413.8301" width="10.8125" height="48.1904"/><rect class="cls-14" x="404.8301" y="392.2734" width="10.8086" height="69.7471"/><rect class="cls-15" x="418.2246" y="462.0205" width="10.8106" height="11.7432"/><rect class="cls-14" x="431.6484" y="427.1309" width="10.7793" height="34.8896"/><rect class="cls-14" x="445.0449" y="410.6836" width="10.7774" height="51.3369"/><rect class="cls-15" x="458.4375" y="462.0205" width="10.8086" height="30.6514"/><rect class="cls-14" x="471.8301" y="427.1309" width="10.8105" height="34.8896"/><rect class="cls-14" x="485.2266" y="449.1543" width="10.8105" height="12.8662"/><rect class="cls-14" x="498.6523" y="415.1055" width="10.7793" height="46.915"/><rect class="cls-14" x="512.0488" y="392.2734" width="10.8086" height="69.7471"/><path class="cls-3" d="M331.5332,359.2559V350.97h2.71a3.7146,3.7146,0,0,1,2.2734.5928,1.887,1.887,0,0,1,.8418,1.6807,1.7458,1.7458,0,0,1-.3115,1.0283,1.8186,1.8186,0,0,1-.8721.6855,1.87,1.87,0,0,1,1.1836.6543,2.1361,2.1361,0,0,1,.4033,1.2461,2.1659,2.1659,0,0,1-.81,1.8076,3.535,3.535,0,0,1-2.2109.5909Zm1.65-3.6446v2.3672h1.5576a1.5114,1.5114,0,0,0,.9961-.28.96.96,0,0,0,.3428-.8408,1.15,1.15,0,0,0-.3428-.9336,1.3854,1.3854,0,0,0-1.0273-.3125Zm0-1.1533h1.1211a1.6932,1.6932,0,0,0,1.0293-.2783.9134.9134,0,0,0,.3428-.8125,1.06,1.06,0,0,0-.3428-.84,1.826,1.826,0,0,0-1.0908-.28h-1.06Zm9.2822,4.7979a1.8427,1.8427,0,0,1-.1543-.4366c-.0332-.1543-.0635-.3115-.0947-.4677a3.1008,3.1008,0,0,1-.6846.748,1.783,1.783,0,0,1-.9961.2793,2.0263,2.0263,0,0,1-1.497-.4971,1.8084,1.8084,0,0,1-.5274-1.3388,1.677,1.677,0,0,1,.7149-1.4336,3.6141,3.6141,0,0,1,2.0254-.4668h.9355v-.4981a.9263.9263,0,0,0-.2178-.6865.8876.8876,0,0,0-.7177-.248.9885.9885,0,0,0-.6241.1865.7489.7489,0,0,0-.2177.5293h-1.5879v-.0313a1.5635,1.5635,0,0,1,.6543-1.3388,3.0582,3.0582,0,0,1,1.9-.5606,2.6425,2.6425,0,0,1,1.7753.5606,1.9085,1.9085,0,0,1,.6856,1.5888v2.5537a6.3224,6.3224,0,0,0,.2793,1.5577Zm-1.5244-1.09a1.5986,1.5986,0,0,0,.7774-.22,1.4184,1.4184,0,0,0,.4687-.4971v-.873h-.9355a1.111,1.111,0,0,0-.8106.249,1.0172,1.0172,0,0,0-.249.6553.7133.7133,0,0,0,.1875.498.8753.8753,0,0,0,.5615.1875Zm7.3828-3.6465h-.5937a1.22,1.22,0,0,0-.6231.1573.8276.8276,0,0,0-.3428.4355v4.1436H345.082V353.12h1.56l.0615.9024a1.8062,1.8062,0,0,1,.56-.7471,1.2738,1.2738,0,0,1,.81-.28.4671.4671,0,0,1,.22.0313.4559.4559,0,0,1,.2168.0312Zm10.0293,2.0879v.0322a2.4661,2.4661,0,0,1-.81,1.9629,3.1264,3.1264,0,0,1-2.2442.7764,2.9229,2.9229,0,0,1-2.2724-.9951,3.63,3.63,0,0,1-.9024-2.5234v-1.4639a3.7648,3.7648,0,0,1,.9024-2.5547,2.9312,2.9312,0,0,1,2.2724-.9971,3.247,3.247,0,0,1,2.2442.7491,2.4444,2.4444,0,0,1,.81,1.9921v.0323h-1.0918a1.8585,1.8585,0,0,0-.498-1.3711,1.9891,1.9891,0,0,0-1.4649-.4991,1.7725,1.7725,0,0,0-1.4922.7481,3.0177,3.0177,0,0,0-.5625,1.8691V355.86a3.1806,3.1806,0,0,0,.5625,1.9013,1.7707,1.7707,0,0,0,1.4922.7461,1.9962,1.9962,0,0,0,1.4649-.4971,1.8877,1.8877,0,0,0,.498-1.4033Zm2.4287-2.6767a2.3493,2.3493,0,0,1,.7793-.6875,2.2653,2.2653,0,0,1,1.0274-.2481,1.9085,1.9085,0,0,1,1.5263.5908,2.5549,2.5549,0,0,1,.5625,1.8067v3.8633h-1.122v-3.8633a1.6667,1.6667,0,0,0-.3428-1.1211,1.2008,1.2008,0,0,0-.9658-.3721,1.8705,1.8705,0,0,0-.8721.1865,2,2,0,0,0-.5928.56v4.61h-1.12v-8.878h1.12Zm9.2823,5.3252c-.0293-.1875-.0606-.3418-.0918-.4678,0-.1553-.0323-.3106-.0323-.4365a3.0764,3.0764,0,0,1-.81.748,2.1915,2.1915,0,0,1-1.09.2793,1.9893,1.9893,0,0,1-1.4638-.4971,1.7428,1.7428,0,0,1-.4981-1.3388,1.661,1.661,0,0,1,.7168-1.4024,3.4624,3.4624,0,0,1,1.9317-.498H369.94v-.5918a1.1433,1.1433,0,0,0-.3125-.8711,1.456,1.456,0,0,0-.9336-.3145,1.3646,1.3646,0,0,0-.9033.2823.8577.8577,0,0,0-.3428.6533h-1.06v-.0293a1.479,1.479,0,0,1,.625-1.2158,2.6,2.6,0,0,1,1.7441-.5606,2.6431,2.6431,0,0,1,1.6807.5283,1.9215,1.9215,0,0,1,.625,1.5274v2.96c0,.25.0312.4356.0312.6543a3.4209,3.4209,0,0,0,.1231.5909Zm-1.8682-.81a2.0435,2.0435,0,0,0,1.123-.3125,1.4983,1.4983,0,0,0,.6211-.7158v-.9961h-1.2461a1.5455,1.5455,0,0,0-1.0908.3408.975.975,0,0,0-.4033.78.8949.8949,0,0,0,.248.6523,1.1407,1.1407,0,0,0,.7481.251Zm7.4131-4.36-.56-.0322a1.1345,1.1345,0,0,0-.749.2178,1.532,1.532,0,0,0-.4961.5928v4.3916h-1.1221V353.12H373.71l.0947.8721a2.5487,2.5487,0,0,1,.6538-.749,1.6663,1.6663,0,0,1,.8735-.2481.6688.6688,0,0,1,.2461.0313.3909.3909,0,0,1,.1865.0312Zm2.8349-2.4629V353.12h1.1524v.8106h-1.1524v3.7373a1.0123,1.0123,0,0,0,.1553.622.6632.6632,0,0,0,.4981.1875c.0634,0,.1269-.0312.2207-.0312.06-.0322.122-.0322.1875-.0625l.1513.7783a1.0506,1.0506,0,0,1-.37.1563,2.4927,2.4927,0,0,1-.4668.06,1.393,1.393,0,0,1-1.0928-.4033,1.7781,1.7781,0,0,1-.4033-1.3076v-3.7373h-.9961V353.12h.9961V351.623Z"/><rect class="cls-4" x="37.2275" y="323.2764" width="721.7471" height="0.4697"/><path class="cls-20" d="M660.4473,529.834a74.1851,74.1851,0,1,0-74.1719-74.1983,74.1826,74.1826,0,0,0,74.1719,74.1983Z"/><path class="cls-3" d="M583.5664,356.2656v2.99H581.92V350.97h3.1465a3.2837,3.2837,0,0,1,2.2715.7471,2.4535,2.4535,0,0,1,.8125,1.9014,2.5149,2.5149,0,0,1-.8125,1.9306,3.4259,3.4259,0,0,1-2.2715.7168Zm0-1.2773h1.5a1.4045,1.4045,0,0,0,1.0547-.374,1.38,1.38,0,0,0,.375-.9659,1.3533,1.3533,0,0,0-.375-.997,1.2737,1.2737,0,0,0-1.0547-.4043h-1.5Zm7.3828,4.2676h-1.6484V353.12h1.6484Zm0-7.6329h-1.6484v-1.2451h1.6484ZM595,359.3789a2.7262,2.7262,0,0,1-2.1484-.84,3.0237,3.0237,0,0,1-.7813-2.18v-.2188a3.3993,3.3993,0,0,1,.75-2.2754,2.54,2.54,0,0,1,2.0567-.87,2.37,2.37,0,0,1,1.8984.7471,2.9258,2.9258,0,0,1,.6875,2.0566v.8721h-3.68l-.0254.0312a1.6509,1.6509,0,0,0,.4024,1.0274,1.2673,1.2673,0,0,0,.9961.373,4.4966,4.4966,0,0,0,.9667-.0918,6.0705,6.0705,0,0,0,.8086-.375l.4356,1.0293a3,3,0,0,1-.9961.5293,4.87,4.87,0,0,1-1.3711.1846Zm-.123-5.1074a.912.912,0,0,0-.75.3428,1.5943,1.5943,0,0,0-.3438.9043v.03h2.0293v-.125a1.41,1.41,0,0,0-.2207-.8408.7506.7506,0,0,0-.7148-.3115Zm12.6777,2.3359.0293.0322a2.5868,2.5868,0,0,1-.84,1.9629,3.1,3.1,0,0,1-2.2148.7764,2.9951,2.9951,0,0,1-2.3027-.9951,3.6071,3.6071,0,0,1-.8711-2.5234v-1.4639a3.74,3.74,0,0,1,.8711-2.5547,3.0036,3.0036,0,0,1,2.3027-.9971,3.2555,3.2555,0,0,1,2.2461.7491,2.6419,2.6419,0,0,1,.8086,1.9921l-.0293.0323h-1.0606a1.881,1.881,0,0,0-.5273-1.3711,1.9175,1.9175,0,0,0-1.4375-.4991,1.7736,1.7736,0,0,0-1.4922.7481,3.0352,3.0352,0,0,0-.5605,1.8691V355.86a3.2,3.2,0,0,0,.5605,1.9013,1.7718,1.7718,0,0,0,1.4922.7461,1.7756,1.7756,0,0,0,1.9648-1.9Zm2.4609-2.6767a2.05,2.05,0,0,1,.7813-.6875,2.2589,2.2589,0,0,1,1.0273-.2481,1.9513,1.9513,0,0,1,1.5254.5908,2.5775,2.5775,0,0,1,.5586,1.8067v3.8633h-1.1211v-3.8633a1.6569,1.6569,0,0,0-.3437-1.1211,1.1963,1.1963,0,0,0-.9668-.3721,1.872,1.872,0,0,0-.8692.1865,1.6635,1.6635,0,0,0-.5918.56v4.61h-1.1211v-8.878h1.1211Zm9.2813,5.3252c-.0313-.1875-.0625-.3418-.0938-.4678a2.3383,2.3383,0,0,1-.0293-.4365,3.7444,3.7444,0,0,1-.8105.748,2.2865,2.2865,0,0,1-1.0918.2793,1.8946,1.8946,0,0,1-1.4629-.4971,1.7428,1.7428,0,0,1-.4981-1.3388,1.6341,1.6341,0,0,1,.6856-1.4024,3.5858,3.5858,0,0,1,1.9648-.498h1.2129v-.5918a1.1655,1.1655,0,0,0-.3437-.8711,1.3943,1.3943,0,0,0-.9356-.3145,1.3244,1.3244,0,0,0-.8691.2823.8557.8557,0,0,0-.3438.6533H615.623v-.0293a1.3845,1.3845,0,0,1,.6231-1.2158,2.5723,2.5723,0,0,1,1.7148-.5606,2.5263,2.5263,0,0,1,1.6778.5283,1.8479,1.8479,0,0,1,.6562,1.5274v2.96a4.12,4.12,0,0,0,.0332.6543,3.0171,3.0171,0,0,0,.1211.5909Zm-1.8653-.81a1.8672,1.8672,0,0,0,1.0879-.3125,1.4317,1.4317,0,0,0,.6543-.7158v-.9961h-1.2793a1.4572,1.4572,0,0,0-1.0586.3408.9762.9762,0,0,0-.4043.78.7783.7783,0,0,0,.25.6523,1.0226,1.0226,0,0,0,.75.251Zm7.41-4.36-.5938-.0322a1.2377,1.2377,0,0,0-.7441.2178,1.741,1.741,0,0,0-.4668.5928v4.3916h-1.123V353.12h.9961l.1269.8721a2.12,2.12,0,0,1,.6231-.749,1.77,1.77,0,0,1,.9023-.2481.4793.4793,0,0,1,.2207.0313.451.451,0,0,1,.2148.0312Zm2.8047-2.4629V353.12H628.83v.8106h-1.1836v3.7373a.8317.8317,0,0,0,.1855.622.64.64,0,0,0,.4688.1875c.0605,0,.1543-.0312.2187-.0312.0918-.0322.1543-.0322.2149-.0625l.1562.7783a1.072,1.072,0,0,1-.3711.1563,3.2482,3.2482,0,0,1-.5.06,1.4746,1.4746,0,0,1-1.09-.4033,1.929,1.929,0,0,1-.4043-1.3076v-3.7373h-.9668V353.12h.9668V351.623Z"/><path class="cls-21" d="M607.9883,508.1211l52.459-52.4854-14.8907-72.6748a74.2227,74.2227,0,0,0-37.5683,125.16Z"/><path class="cls-22" d="M645.5566,382.9609l14.8907,72.6748,52.455-52.46a74.3352,74.3352,0,0,0-67.3457-20.2149Z"/><path class="cls-23" d="M622.4766,519.3984a74.2514,74.2514,0,0,0,96.2207-17.7861l-58.25-45.9766-52.459,52.4854a73.8855,73.8855,0,0,0,14.4883,11.2773Z"/><polygon class="cls-24" points="55.482 536.594 278.951 536.594 278.951 403.613 245.154 433.299 202.167 397.104 144.601 433.145 86.039 410.188 55.482 507.248 55.482 536.594"/><polyline class="cls-25" points="55.482 507.248 86.039 410.188 144.601 433.145 202.167 397.104 245.154 433.299 278.951 403.613"/><polygon class="cls-9" points="55.482 507.248 55.482 536.594 278.951 536.594 278.951 427.227 233.192 511.457 176.314 435.853 153.448 494.229 121.674 445.792 55.482 507.248"/><polyline class="cls-10" points="55.482 507.248 121.674 445.792 153.448 494.229 176.314 435.853 233.192 511.457 278.951 427.227"/><path class="cls-11" d="M55.4824,504.0742a3.1612,3.1612,0,1,1-3.1484,3.1738,3.188,3.188,0,0,1,3.1484-3.1738Z"/><path class="cls-11" d="M121.6743,442.6152a3.1592,3.1592,0,1,1-3.146,3.1768,3.1612,3.1612,0,0,1,3.146-3.1768Z"/><path class="cls-11" d="M153.4482,491.082a3.1465,3.1465,0,1,1-3.1464,3.1475,3.1382,3.1382,0,0,1,3.1464-3.1475Z"/><path class="cls-11" d="M176.314,432.7109a3.1446,3.1446,0,1,1-3.148,3.1426,3.1372,3.1372,0,0,1,3.148-3.1426Z"/><path class="cls-11" d="M233.1924,508.3086a3.1467,3.1467,0,1,1-3.1782,3.1484,3.1367,3.1367,0,0,1,3.1782-3.1484Z"/><path class="cls-11" d="M278.9512,424.0781a3.1467,3.1467,0,1,1-3.1778,3.1485,3.1568,3.1568,0,0,1,3.1778-3.1485Z"/><path class="cls-3" d="M42.584,357.9785h3.708v1.2774h-5.36V350.97H42.584Zm6.4482,1.2774h-1.65V353.12h1.65Zm0-7.6329h-1.65v-1.2451h1.65Zm2.8985,1.4971.0615.8721a2.84,2.84,0,0,1,.748-.749,2.2623,2.2623,0,0,1,1.0284-.2481,1.7545,1.7545,0,0,1,1.4326.5908,2.7308,2.7308,0,0,1,.5273,1.9v3.77H54.08v-3.77a1.4739,1.4739,0,0,0-.249-.9355.832.832,0,0,0-.6856-.2793,1.4612,1.4612,0,0,0-.6543.1562,1.3727,1.3727,0,0,0-.4678.3731v4.4551H50.3711V353.12Zm7.7255,6.2588a2.7216,2.7216,0,0,1-2.1494-.84,3.0192,3.0192,0,0,1-.78-2.18v-.2188a3.3983,3.3983,0,0,1,.748-2.2754,2.5376,2.5376,0,0,1,2.0566-.87,2.3652,2.3652,0,0,1,1.8975.7471,2.9258,2.9258,0,0,1,.6885,2.0566v.8721H58.4414l-.0332.0312a1.6889,1.6889,0,0,0,.4063,1.0274,1.268,1.268,0,0,0,.997.373,4.2626,4.2626,0,0,0,.9644-.0918,6.2556,6.2556,0,0,0,.812-.375l.4346,1.0293a2.9863,2.9863,0,0,1-.9971.5293,4.8586,4.8586,0,0,1-1.3692.1846Zm-.125-5.1074a.9038.9038,0,0,0-.7475.3428,1.56,1.56,0,0,0-.3423.9043v.03h2.0244v-.125a1.3955,1.3955,0,0,0-.22-.8408.7528.7528,0,0,0-.7149-.3115Zm12.6768,2.3359.0313.0322a2.5909,2.5909,0,0,1-.8409,1.9629,3.0467,3.0467,0,0,1-2.2109.7764,2.9943,2.9943,0,0,1-2.3057-.9951,3.6123,3.6123,0,0,1-.872-2.5234v-1.4639a3.7453,3.7453,0,0,1,.872-2.5547,3.0028,3.0028,0,0,1,2.3057-.9971,3.2535,3.2535,0,0,1,2.2437.7491,2.541,2.541,0,0,1,.8081,1.9921l-.0313.0323H71.15a1.8824,1.8824,0,0,0-.5293-1.3711,1.9147,1.9147,0,0,0-1.4336-.4991,1.7757,1.7757,0,0,0-1.4961.7481,3.0374,3.0374,0,0,0-.56,1.8691V355.86a3.2018,3.2018,0,0,0,.56,1.9013,1.7739,1.7739,0,0,0,1.4961.7461,1.7778,1.7778,0,0,0,1.9629-1.9Zm2.4619-2.6767a2.0736,2.0736,0,0,1,.7774-.6875,2.2857,2.2857,0,0,1,1.0293-.2481,1.9488,1.9488,0,0,1,1.5258.5908,2.5658,2.5658,0,0,1,.56,1.8067v3.8633h-1.12v-3.8633a1.6564,1.6564,0,0,0-.3438-1.1211,1.2,1.2,0,0,0-.9638-.3721,1.8847,1.8847,0,0,0-.8741.1865,1.7018,1.7018,0,0,0-.5908.56v4.61h-1.123v-8.878H74.67Zm9.2822,5.3252c-.0317-.1875-.0625-.3418-.0937-.4678a2.2624,2.2624,0,0,1-.03-.4365,3.7329,3.7329,0,0,1-.8105.748,2.2847,2.2847,0,0,1-1.09.2793,1.9453,1.9453,0,0,1-1.4643-.4971,1.7412,1.7412,0,0,1-.4986-1.3388,1.6292,1.6292,0,0,1,.6856-1.4024,3.6578,3.6578,0,0,1,1.9629-.498h1.2148v-.5918a1.1687,1.1687,0,0,0-.3427-.8711,1.399,1.399,0,0,0-.9346-.3145,1.3253,1.3253,0,0,0-.8721.2823.8619.8619,0,0,0-.3437.6533H80.2764v-.0293a1.3994,1.3994,0,0,1,.622-1.2158,2.5815,2.5815,0,0,1,1.7149-.5606,2.5365,2.5365,0,0,1,1.6826.5283,1.8578,1.8578,0,0,1,.6543,1.5274v2.96a4.51,4.51,0,0,0,.03.6543,3.2331,3.2331,0,0,0,.125.5909Zm-1.8681-.81a1.8623,1.8623,0,0,0,1.0889-.3125,1.4145,1.4145,0,0,0,.6552-.7158v-.9961H82.5508a1.4611,1.4611,0,0,0-1.06.3408.972.972,0,0,0-.4053.78.78.78,0,0,0,.2491.6523,1.0262,1.0262,0,0,0,.749.251Zm7.4121-4.36-.5918-.0322a1.2417,1.2417,0,0,0-.7461.2178,1.8183,1.8183,0,0,0-.4687.5928v4.3916H86.5679V353.12h.9975l.1241.8721a2.1014,2.1014,0,0,1,.624-.749,1.7785,1.7785,0,0,1,.9023-.2481.6924.6924,0,0,1,.251.0313.3909.3909,0,0,1,.1855.0312Zm2.8047-2.4629V353.12h1.1836v.8106H92.3008v3.7373a.8274.8274,0,0,0,.1865.622.638.638,0,0,0,.4688.1875c.0615,0,.1552-.0312.2158-.0312a2.2624,2.2624,0,0,0,.2177-.0625l.1563.7783a1.0575,1.0575,0,0,1-.374.1563,2.7826,2.7826,0,0,1-.4981.06,1.4854,1.4854,0,0,1-1.0918-.4033,1.9347,1.9347,0,0,1-.4033-1.3076v-3.7373h-.9658V353.12h.9658V351.623Z"/><path class="cls-26" d="M86.0391,407.0391a3.1475,3.1475,0,1,1-3.1465,3.1484,3.1639,3.1639,0,0,1,3.1465-3.1484Z"/><path class="cls-26" d="M144.6006,429.998a3.1465,3.1465,0,1,1-3.1445,3.1465,3.135,3.135,0,0,1,3.1445-3.1465Z"/><path class="cls-26" d="M202.167,393.957a3.1617,3.1617,0,1,1-3.1465,3.1465,3.1585,3.1585,0,0,1,3.1465-3.1465Z"/><path class="cls-26" d="M245.1543,430.1523a3.1475,3.1475,0,1,1-3.1455,3.1465,3.14,3.14,0,0,1,3.1455-3.1465Z"/><path class="cls-26" d="M278.9512,400.4678a3.1462,3.1462,0,1,1-3.1778,3.1455,3.1548,3.1548,0,0,1,3.1778-3.1455Z"/></g></svg>