<svg height="480pt" viewBox="-96 0 480 480" width="480pt" xmlns="http://www.w3.org/2000/svg"><path d="m40 480h208c22.082031-.027344 39.972656-17.917969 40-40v-400c-.027344-22.082031-17.917969-39.9726562-40-40h-208c-22.082031.0273438-39.9726562 17.917969-40 40v400c.0273438 22.082031 17.917969 39.972656 40 40zm208-16h-208c-13.253906 0-24-10.746094-24-24v-24h256v24c0 13.253906-10.746094 24-24 24zm-232-384h256v320h-256zm24-64h208c13.253906 0 24 10.746094 24 24v24h-256v-24c0-13.253906 10.746094-24 24-24zm0 0"/><path d="m112 32h64v16h-64zm0 0"/><path d="m136 360h16v16h-16zm0 0"/><path d="m168 360h16v16h-16zm0 0"/><path d="m104 360h16v16h-16zm0 0"/><path d="m48 432h48v16h-48zm0 0"/><path d="m192 432h48v16h-48zm0 0"/><path d="m192 32h16v16h-16zm0 0"/><path d="m224.078125 256h-4.796875l-32.882812-32.9375c-4.496094-4.542969-10.636719-7.089844-17.03125-7.0625h-17.367188v-8c0-4.417969-3.582031-8-8-8s-8 3.582031-8 8v8h-30.960938c-3.195312.0625-6.34375.773438-9.253906 2.089844-4.691406 1.917968-8.648437 5.28125-11.304687 9.597656l-17.007813 28.3125h-7.871094c-15.238281.019531-27.582031 12.363281-27.601562 27.601562v36.398438c0 4.417969 3.582031 8 8 8h25.304688c3.46875 11.855469 14.34375 20.003906 26.695312 20.003906s23.226562-8.148437 26.695312-20.003906h50.609376c3.46875 11.855469 14.34375 20.003906 26.695312 20.003906s23.226562-8.148437 26.695312-20.003906h25.304688c4.417969 0 8-3.582031 8-8v-32.078125c-.042969-17.613281-14.308594-31.878906-31.921875-31.921875zm-49.015625-21.601562 21.601562 21.601562h-36.664062v-24h9.359375c2.148437.003906 4.203125.867188 5.703125 2.398438zm-31.0625-2.398438v24h-16v-24zm-32 0v24h-25.863281l12.078125-20.128906c1.445312-2.398438 4.039062-3.867188 6.839844-3.871094zm-20 100c-6.628906 0-12-5.371094-12-12s5.371094-12 12-12 12 5.371094 12 12-5.371094 12-12 12zm104 0c-6.628906 0-12-5.371094-12-12s5.371094-12 12-12 12 5.371094 12 12-5.371094 12-12 12zm26.695312-20c-3.46875-11.855469-14.34375-20.003906-26.695312-20.003906s-23.226562 8.148437-26.695312 20.003906h-50.609376c-3.46875-11.855469-14.34375-20.003906-26.695312-20.003906s-23.226562 8.148437-26.695312 20.003906h-17.304688v-16h16v-16h-15.367188c1.542969-4.757812 5.964844-7.984375 10.96875-8h164.476563c5.675781.019531 10.90625 3.070312 13.714844 8h-13.792969v16h16v16zm0 0"/><path d="m180 121.648438c7.757812 4.488281 14.601562 10.394531 20.175781 17.40625l12.496094-9.992188c-6.816406-8.574219-15.1875-15.789062-24.671875-21.269531-37.695312-21.480469-85.402344-12.460938-112.65625 21.296875l12.511719 9.980468c22.289062-27.613281 61.3125-34.992187 92.144531-17.421874zm0 0"/><path d="m175.199219 159.03125 12.496093-9.992188c-10.597656-13.304687-26.683593-21.058593-43.695312-21.058593s-33.097656 7.753906-43.695312 21.058593l12.496093 10c7.558594-9.515624 19.046875-15.0625 31.199219-15.0625s23.640625 5.546876 31.199219 15.0625zm0 0"/><path d="m125.320312 169.054688 12.496094 9.992187c1.464844-1.941406 3.753906-3.082031 6.1875-3.082031s4.722656 1.140625 6.1875 3.082031l12.503906-9.976563c-4.5-5.742187-11.390624-9.101562-18.6875-9.101562-7.296874 0-14.1875 3.359375-18.6875 9.101562zm0 0"/></svg>