<?xml version="1.0" encoding="utf-8"?>
<!-- Generator: Adobe Illustrator 16.0.0, SVG Export Plug-In . SVG Version: 6.00 Build 0)  -->
<!DOCTYPE svg PUBLIC "-//W3C//DTD SVG 1.1//EN" "http://www.w3.org/Graphics/SVG/1.1/DTD/svg11.dtd">
<svg version="1.1" id="Layer_1" xmlns="http://www.w3.org/2000/svg" xmlns:xlink="http://www.w3.org/1999/xlink" x="0px" y="0px"
	 width="1400px" height="980px" viewBox="0 0 1400 980" enable-background="new 0 0 1400 980" xml:space="preserve">
<g>
	<g>
		<g>
			<rect fill="#FFFFFF" width="1400" height="980"/>
		</g>
	</g>
	<g>
		<path fill="#FF6979" d="M470.8,617.2v56.1c17.7,22.6,38.9,42.3,62.9,58.3V554.3L470.8,617.2z"/>
		<path d="M533.7,733.4c-0.4,0-0.7-0.1-1-0.3c-24.1-16-45.3-35.8-63.3-58.7c-0.2-0.3-0.4-0.7-0.4-1.1v-56.1c0-0.5,0.2-0.9,0.5-1.3
			l62.9-62.9c0.5-0.5,1.3-0.7,2-0.4c0.7,0.3,1.1,0.9,1.1,1.7v177.2c0,0.7-0.4,1.3-1,1.6C534.3,733.3,534,733.4,533.7,733.4z
			 M472.7,672.7c16.9,21.5,36.8,40.1,59.2,55.5V558.7L472.7,618V672.7z"/>
	</g>
	<g>
		<path fill="#FF6979" d="M591.4,517.2v243.5c20,7.2,41,12.1,62.9,14.5v-195L591.4,517.2z"/>
		<path d="M654.2,777c-0.1,0-0.1,0-0.2,0c-21.6-2.3-42.9-7.2-63.3-14.6c-0.7-0.3-1.2-0.9-1.2-1.7V517.2c0-0.7,0.4-1.4,1.1-1.7
			c0.7-0.3,1.5-0.1,2,0.4l62.9,62.9c0.3,0.3,0.5,0.8,0.5,1.3v195c0,0.5-0.2,1-0.6,1.3C655.1,776.8,654.7,777,654.2,777z
			 M593.2,759.4c19.1,6.8,39,11.4,59.3,13.7V580.9l-59.3-59.3V759.4z"/>
	</g>
	<g>
		<path fill="#FF6979" d="M711.9,571.6v203.6c21.8-2.3,42.9-7.2,62.9-14.5v-252L711.9,571.6z"/>
		<path d="M711.9,777c-0.4,0-0.9-0.2-1.2-0.5c-0.4-0.3-0.6-0.8-0.6-1.3V571.6c0-0.5,0.2-0.9,0.5-1.3l62.9-62.9
			c0.5-0.5,1.3-0.7,2-0.4c0.7,0.3,1.1,0.9,1.1,1.7v252c0,0.8-0.5,1.4-1.2,1.7c-20.4,7.4-41.7,12.3-63.3,14.6
			C712,777,711.9,777,711.9,777z M713.7,572.3v200.8c20.2-2.3,40.1-6.9,59.3-13.7V513.1L713.7,572.3z"/>
	</g>
	<g>
		<path fill="#FF6979" d="M895.3,673.3V388.2l-62.9,62.9v280.5C856.3,715.6,877.6,695.9,895.3,673.3z"/>
		<path d="M832.4,733.4c-0.3,0-0.6-0.1-0.9-0.2c-0.6-0.3-1-0.9-1-1.6V451.1c0-0.5,0.2-0.9,0.5-1.3l62.9-62.9c0.5-0.5,1.3-0.7,2-0.4
			c0.7,0.3,1.1,0.9,1.1,1.7v285.1c0,0.4-0.1,0.8-0.4,1.1c-18,22.9-39.3,42.6-63.3,58.7C833.1,733.3,832.7,733.4,832.4,733.4z
			 M834.2,451.8v276.3c22.4-15.3,42.3-34,59.3-55.5V392.6L834.2,451.8z"/>
	</g>
	<g>
		<path fill="#F1F2F2" d="M952.7,507c0-60.7-20.1-116.8-54-161.8L678.8,565.1l-97.7-97.7L435.3,613.3c9.3,21.6,21.3,41.8,35.6,60
			v-56.1l62.9-62.9v177.2c17.8,11.9,37.2,21.7,57.6,29.1V517.2l62.9,62.9v195c9.5,1,19.1,1.6,28.8,1.6c9.7,0,19.4-0.5,28.8-1.6
			V571.6l62.9-62.9v252c20.5-7.4,39.8-17.2,57.6-29.1V451.1l62.9-62.9v285.1C931.2,627.5,952.7,569.8,952.7,507z"/>
		<path d="M683.1,778.5c-9.5,0-19.3-0.5-29-1.6c-0.9-0.1-1.6-0.9-1.6-1.8V580.9l-59.3-59.3v239.1c0,0.6-0.3,1.1-0.8,1.5
			c-0.5,0.3-1.1,0.4-1.7,0.2c-20.4-7.4-39.9-17.2-58-29.3c-0.5-0.3-0.8-0.9-0.8-1.5V558.7L472.7,618v55.3c0,0.8-0.5,1.5-1.2,1.7
			c-0.7,0.3-1.5,0-2-0.6C455,656,442.9,635.6,433.6,614c-0.3-0.7-0.1-1.5,0.4-2l145.8-145.8c0.7-0.7,1.9-0.7,2.6,0l96.4,96.4
			l218.7-218.7c0.4-0.4,0.9-0.6,1.4-0.5c0.5,0,1,0.3,1.3,0.7c35.5,47.3,54.3,103.6,54.3,162.9c0,61.3-20,119.1-57.8,167.4
			c-0.5,0.6-1.3,0.8-2,0.6c-0.7-0.3-1.2-0.9-1.2-1.7V392.6l-59.3,59.3v279.8c0,0.6-0.3,1.2-0.8,1.5c-18.1,12.1-37.7,22-58,29.3
			c-0.6,0.2-1.2,0.1-1.7-0.2c-0.5-0.3-0.8-0.9-0.8-1.5V513.1l-59.3,59.3v202.8c0,0.9-0.7,1.7-1.6,1.8
			C702.3,778,692.6,778.5,683.1,778.5z M656.1,773.5c18.2,1.8,35.8,1.8,54,0V571.6c0-0.5,0.2-0.9,0.5-1.3l62.9-62.9
			c0.5-0.5,1.3-0.7,2-0.4c0.7,0.3,1.1,0.9,1.1,1.7v249.4c18.9-7,37.1-16.3,54-27.5V451.1c0-0.5,0.2-0.9,0.5-1.3l62.9-62.9
			c0.5-0.5,1.3-0.7,2-0.4c0.7,0.3,1.1,0.9,1.1,1.7V668c35.2-46.7,53.8-102.2,53.8-160.9c0-57.8-18.1-112.8-52.4-159.1L680.1,566.4
			c-0.7,0.7-1.9,0.7-2.6,0L581.1,470L437.4,613.7c8.4,19.3,19,37.5,31.6,54.3v-50.8c0-0.5,0.2-0.9,0.5-1.3l62.9-62.9
			c0.5-0.5,1.3-0.7,2-0.4c0.7,0.3,1.1,0.9,1.1,1.7v176.3c16.9,11.2,35.1,20.4,54,27.5V517.2c0-0.7,0.4-1.4,1.1-1.7
			c0.7-0.3,1.5-0.1,2,0.4l62.9,62.9c0.3,0.3,0.5,0.8,0.5,1.3V773.5z"/>
	</g>
	<g>
		<path fill="#F1F2F2" d="M678.8,486.1l181.9-181.9c-47.4-41.6-109.5-66.8-177.6-66.8c-148.9,0-269.6,120.7-269.6,269.6
			c0,15.4,1.3,30.5,3.8,45.2l163.9-163.9L678.8,486.1z"/>
		<path d="M417.2,554.1c-0.2,0-0.4,0-0.6-0.1c-0.6-0.2-1.1-0.8-1.2-1.4c-2.5-15-3.8-30.3-3.8-45.5c0-149.7,121.8-271.5,271.5-271.5
			c65.8,0,129.3,23.9,178.8,67.3c0.4,0.3,0.6,0.8,0.6,1.3c0,0.5-0.2,1-0.5,1.3L680.1,487.4c-0.7,0.7-1.9,0.7-2.6,0L581.1,391
			L418.5,553.5C418.2,553.9,417.7,554.1,417.2,554.1z M683.1,239.2c-147.7,0-267.8,120.1-267.8,267.8c0,13.8,1.1,27.8,3.2,41.4
			l161.4-161.4c0.7-0.7,1.9-0.7,2.6,0l96.4,96.4L858,304.3C809.4,262.3,747.3,239.2,683.1,239.2z"/>
	</g>
	<g>
		<path fill="#717375" d="M913,251.9l-52.3,52.3L678.8,486.1l-97.7-97.7L417.2,552.3c3.6,21.3,9.8,41.7,18,61l145.8-145.8l97.7,97.7
			l219.9-219.9l53.7-53.7L913,251.9z"/>
		<path d="M435.3,615.1c-0.1,0-0.2,0-0.3,0c-0.6-0.1-1.1-0.5-1.3-1.1c-8.5-19.8-14.6-40.4-18.2-61.4c-0.1-0.6,0.1-1.2,0.5-1.6
			l163.9-163.9c0.7-0.7,1.9-0.7,2.6,0l96.4,96.4l232.9-232.9c0.7-0.7,1.9-0.7,2.6,0l39.5,39.5c0.7,0.7,0.7,1.9,0,2.6L680.1,566.4
			c-0.7,0.7-1.9,0.7-2.6,0L581.1,470L436.5,614.5C436.2,614.9,435.7,615.1,435.3,615.1z M419.2,552.9c3.4,19.5,9,38.7,16.7,57.2
			l143.9-143.9c0.7-0.7,1.9-0.7,2.6,0l96.4,96.4l271.1-271.1l-37-37L680.1,487.4c-0.7,0.7-1.9,0.7-2.6,0L581.1,391L419.2,552.9z"/>
	</g>
	<g>
		<polygon fill="#808285" points="886.1,225.1 979.3,318.3 979.3,225.1 		"/>
		<path d="M979.3,320.1c-0.5,0-0.9-0.2-1.3-0.5l-93.2-93.2c-0.5-0.5-0.7-1.3-0.4-2c0.3-0.7,0.9-1.1,1.7-1.1h93.2
			c1,0,1.8,0.8,1.8,1.8v93.2c0,0.7-0.4,1.4-1.1,1.7C979.8,320.1,979.6,320.1,979.3,320.1z M890.5,226.9l87,87v-87H890.5z"/>
	</g>
	<g>
		<g>
			<g>
				<path d="M360.5,658.2H223.2c-0.6,0-1.2-0.3-1.6-0.9c-0.3-0.6-0.3-1.3,0-1.8l68.6-118.9c0.6-1.1,2.5-1.1,3.1,0L362,655.4
					c0.3,0.6,0.3,1.3,0,1.8S361.1,658.2,360.5,658.2z M226.4,654.5h131l-65.5-113.4L226.4,654.5z"/>
			</g>
			<g>
				<path d="M489.6,881.7H94.1c-0.6,0-1.2-0.3-1.6-0.9s-0.3-1.3,0-1.8l53.7-93c0.3-0.6,0.9-0.9,1.6-0.9h288c0.6,0,1.2,0.3,1.6,0.9
					l53.7,93c0.3,0.6,0.3,1.3,0,1.8C490.8,881.4,490.2,881.7,489.6,881.7z M97.3,878.1h389.1l-51.6-89.4H148.9L97.3,878.1z"/>
			</g>
			<g>
				<g>
					<path d="M236.2,767h-75.8c-0.6,0-1.2-0.3-1.6-0.9s-0.3-1.3,0-1.8l27.7-48.1c0.3-0.5,0.8-0.8,1.3-0.9c0.6-0.1,1.1,0.1,1.5,0.5
						l48.1,48.1c0.5,0.5,0.7,1.3,0.4,2C237.6,766.5,236.9,767,236.2,767z M163.5,763.3h68.3L188.5,720L163.5,763.3z"/>
				</g>
				<g>
					<path d="M297,767h-60.8c-0.5,0-0.9-0.2-1.3-0.5l-48.1-48.1c-0.6-0.6-0.7-1.5-0.3-2.2l22.2-38.5c0.3-0.5,0.8-0.8,1.3-0.9
						c0.6-0.1,1.1,0.1,1.5,0.5l86.6,86.6c0.5,0.5,0.7,1.3,0.4,2C298.4,766.5,297.7,767,297,767z M236.9,763.3h55.7l-81.8-81.8
						l-20.4,35.3L236.9,763.3z"/>
				</g>
				<g>
					<path d="M357.8,767H297c-0.5,0-0.9-0.2-1.3-0.5l-86.6-86.6c-0.6-0.6-0.7-1.5-0.3-2.2l0.3-0.4c0.3-0.6,0.9-0.9,1.6-0.9h60.1
						c0.5,0,0.9,0.2,1.3,0.5l87,87c0.5,0.5,0.7,1.3,0.4,2C359.2,766.5,358.5,767,357.8,767z M297.7,763.3h55.7L270,679.9h-55.7
						L297.7,763.3z"/>
				</g>
				<g>
					<path d="M418.5,767h-60.8c-0.5,0-0.9-0.2-1.3-0.5l-87-87c-0.5-0.5-0.7-1.3-0.4-2c0.3-0.7,0.9-1.1,1.7-1.1h60.8
						c0.5,0,0.9,0.2,1.3,0.5l87,87c0.5,0.5,0.7,1.3,0.4,2C419.9,766.5,419.3,767,418.5,767z M358.5,763.3h55.7l-83.4-83.4h-55.7
						L358.5,763.3z"/>
				</g>
				<g>
					<path d="M423.3,767h-4.8c-0.5,0-0.9-0.2-1.3-0.5l-87-87c-0.5-0.5-0.7-1.3-0.4-2c0.3-0.7,0.9-1.1,1.7-1.1H373
						c0.6,0,1.2,0.3,1.6,0.9l50.3,87c0.3,0.6,0.3,1.3,0,1.8C424.5,766.6,423.9,767,423.3,767z M419.3,763.3h0.9L372,679.9h-36.1
						L419.3,763.3z"/>
				</g>
			</g>
			<g>
				<path d="M161.7,853.6c-11.1,0-20.2-9-20.2-20.2c0-11.1,9-20.2,20.2-20.2s20.2,9,20.2,20.2C181.9,844.5,172.8,853.6,161.7,853.6z
					 M161.7,816.9c-9.1,0-16.5,7.4-16.5,16.5c0,9.1,7.4,16.5,16.5,16.5c9.1,0,16.5-7.4,16.5-16.5
					C178.3,824.3,170.8,816.9,161.7,816.9z"/>
			</g>
			<g>
				<path d="M213.8,853.6c-11.1,0-20.2-9-20.2-20.2c0-11.1,9-20.2,20.2-20.2s20.2,9,20.2,20.2C233.9,844.5,224.9,853.6,213.8,853.6z
					 M213.8,816.9c-9.1,0-16.5,7.4-16.5,16.5c0,9.1,7.4,16.5,16.5,16.5s16.5-7.4,16.5-16.5C230.3,824.3,222.9,816.9,213.8,816.9z"/>
			</g>
			<g>
				<path d="M265.8,853.6c-11.1,0-20.2-9-20.2-20.2c0-11.1,9-20.2,20.2-20.2c11.1,0,20.2,9,20.2,20.2
					C285.9,844.5,276.9,853.6,265.8,853.6z M265.8,816.9c-9.1,0-16.5,7.4-16.5,16.5c0,9.1,7.4,16.5,16.5,16.5
					c9.1,0,16.5-7.4,16.5-16.5C282.3,824.3,274.9,816.9,265.8,816.9z"/>
			</g>
			<g>
				<path d="M317.8,853.6c-11.1,0-20.2-9-20.2-20.2c0-11.1,9-20.2,20.2-20.2s20.2,9,20.2,20.2C338,844.5,328.9,853.6,317.8,853.6z
					 M317.8,816.9c-9.1,0-16.5,7.4-16.5,16.5c0,9.1,7.4,16.5,16.5,16.5s16.5-7.4,16.5-16.5C334.3,824.3,326.9,816.9,317.8,816.9z"/>
			</g>
			<g>
				<path d="M369.8,853.6c-11.1,0-20.2-9-20.2-20.2c0-11.1,9-20.2,20.2-20.2s20.2,9,20.2,20.2C390,844.5,381,853.6,369.8,853.6z
					 M369.8,816.9c-9.1,0-16.5,7.4-16.5,16.5c0,9.1,7.4,16.5,16.5,16.5s16.5-7.4,16.5-16.5C386.4,824.3,379,816.9,369.8,816.9z"/>
			</g>
			<g>
				<path d="M421.9,853.6c-11.1,0-20.2-9-20.2-20.2c0-11.1,9-20.2,20.2-20.2s20.2,9,20.2,20.2C442,844.5,433,853.6,421.9,853.6z
					 M421.9,816.9c-9.1,0-16.5,7.4-16.5,16.5c0,9.1,7.4,16.5,16.5,16.5s16.5-7.4,16.5-16.5C438.4,824.3,431,816.9,421.9,816.9z"/>
			</g>
		</g>
		<g>
			<path d="M548.9,881.7h-59.4c-1,0-1.8-0.8-1.8-1.8c0-1,0.8-1.8,1.8-1.8h59.4c1,0,1.8,0.8,1.8,1.8
				C550.7,880.9,549.9,881.7,548.9,881.7z"/>
		</g>
		<g>
			<path d="M512.7,849.3h-41.8c-1,0-1.8-0.8-1.8-1.8c0-1,0.8-1.8,1.8-1.8h41.8c1,0,1.8,0.8,1.8,1.8
				C514.5,848.5,513.7,849.3,512.7,849.3z"/>
		</g>
	</g>
	<g>
		<line fill="#FFFFFF" x1="1077.1" y1="720.8" x2="1077.1" y2="762.4"/>
		<path d="M1077.1,764.2c-1,0-1.8-0.8-1.8-1.8v-41.6c0-1,0.8-1.8,1.8-1.8c1,0,1.8,0.8,1.8,1.8v41.6
			C1078.9,763.4,1078.1,764.2,1077.1,764.2z"/>
	</g>
	<g>
		<line fill="#FFFFFF" x1="1077.1" y1="809.5" x2="1077.1" y2="762.4"/>
		<path d="M1077.1,811.3c-1,0-1.8-0.8-1.8-1.8v-47.1c0-1,0.8-1.8,1.8-1.8c1,0,1.8,0.8,1.8,1.8v47.1
			C1078.9,810.5,1078.1,811.3,1077.1,811.3z"/>
	</g>
	<g>
		<path d="M1255,811.3c-1,0-1.8-0.8-1.8-1.8v-45.3H900.9v45.3c0,1-0.8,1.8-1.8,1.8c-1,0-1.8-0.8-1.8-1.8v-47.1c0-1,0.8-1.8,1.8-1.8
			H1255c1,0,1.8,0.8,1.8,1.8v47.1C1256.8,810.5,1256,811.3,1255,811.3z"/>
	</g>
	<g>
		<g>
			<polygon fill="#FFFFFF" points="839.4,809.5 839.4,822.4 902.4,885.3 937,885.3 861.2,809.5 			"/>
			<path d="M937,887.1h-34.7c-0.5,0-0.9-0.2-1.3-0.5l-63-63c-0.3-0.3-0.5-0.8-0.5-1.3v-12.9c0-1,0.8-1.8,1.8-1.8h21.8
				c0.5,0,0.9,0.2,1.3,0.5l75.9,75.9c0.5,0.5,0.7,1.3,0.4,2C938.4,886.7,937.8,887.1,937,887.1z M903.1,883.5h29.5l-72.2-72.2h-19.2
				v10.3L903.1,883.5z"/>
		</g>
		<g>
			<polygon fill="#FFFFFF" points="839.4,857 867.7,885.3 902.4,885.3 839.4,822.4 			"/>
			<path d="M902.4,887.1h-34.7c-0.5,0-0.9-0.2-1.3-0.5l-28.3-28.3c-0.3-0.3-0.5-0.8-0.5-1.3v-34.7c0-0.7,0.4-1.4,1.1-1.7
				c0.7-0.3,1.5-0.1,2,0.4l63,63c0.5,0.5,0.7,1.3,0.4,2C903.8,886.7,903.1,887.1,902.4,887.1z M868.5,883.5H898l-56.8-56.8v29.5
				L868.5,883.5z"/>
		</g>
		<g>
			<polygon fill="#FFFFFF" points="839.4,885.3 867.7,885.3 839.4,857 			"/>
			<path d="M867.7,887.1h-28.3c-1,0-1.8-0.8-1.8-1.8V857c0-0.7,0.4-1.4,1.1-1.7c0.7-0.3,1.5-0.1,2,0.4L869,884
				c0.5,0.5,0.7,1.3,0.4,2C869.1,886.7,868.5,887.1,867.7,887.1z M841.2,883.5h22.1l-22.1-22.1V883.5z"/>
		</g>
		<g>
			<polygon fill="#FFFFFF" points="958.8,872.4 895.8,809.5 861.2,809.5 937,885.3 958.8,885.3 			"/>
			<path d="M958.8,887.1H937c-0.5,0-0.9-0.2-1.3-0.5l-75.9-75.9c-0.5-0.5-0.7-1.3-0.4-2c0.3-0.7,0.9-1.1,1.7-1.1h34.7
				c0.5,0,0.9,0.2,1.3,0.5l63,63c0.3,0.3,0.5,0.8,0.5,1.3v12.9C960.6,886.3,959.8,887.1,958.8,887.1z M937.8,883.5H957v-10.3
				l-61.9-61.9h-29.5L937.8,883.5z"/>
		</g>
		<g>
			<polygon fill="#FFFFFF" points="958.8,837.8 930.5,809.5 895.8,809.5 958.8,872.4 			"/>
			<path d="M958.8,874.3c-0.5,0-0.9-0.2-1.3-0.5l-63-63c-0.5-0.5-0.7-1.3-0.4-2c0.3-0.7,0.9-1.1,1.7-1.1h34.7c0.5,0,0.9,0.2,1.3,0.5
				l28.3,28.3c0.3,0.3,0.5,0.8,0.5,1.3v34.7c0,0.7-0.4,1.4-1.1,1.7C959.3,874.2,959,874.3,958.8,874.3z M900.2,811.3l56.8,56.8
				v-29.5l-27.3-27.3H900.2z"/>
		</g>
		<g>
			<polygon fill="#FFFFFF" points="958.8,809.5 930.5,809.5 958.8,837.8 			"/>
			<path d="M958.8,839.6c-0.5,0-0.9-0.2-1.3-0.5l-28.3-28.3c-0.5-0.5-0.7-1.3-0.4-2c0.3-0.7,0.9-1.1,1.7-1.1h28.3
				c1,0,1.8,0.8,1.8,1.8v28.3c0,0.7-0.4,1.4-1.1,1.7C959.3,839.5,959,839.6,958.8,839.6z M934.9,811.3l22.1,22.1v-22.1H934.9z"/>
		</g>
	</g>
	<g>
		<g>
			<rect x="1195.3" y="871.3" fill="#FFFFFF" width="119.4" height="14.1"/>
			<path d="M1314.7,887.1h-119.4c-1,0-1.8-0.8-1.8-1.8v-14.1c0-1,0.8-1.8,1.8-1.8h119.4c1,0,1.8,0.8,1.8,1.8v14.1
				C1316.5,886.3,1315.7,887.1,1314.7,887.1z M1197.1,883.5h115.8v-10.4h-115.8V883.5z"/>
		</g>
		<g>
			<rect x="1195.3" y="809.5" fill="#FFFFFF" width="119.4" height="14.1"/>
			<path d="M1314.7,825.3h-119.4c-1,0-1.8-0.8-1.8-1.8v-14.1c0-1,0.8-1.8,1.8-1.8h119.4c1,0,1.8,0.8,1.8,1.8v14.1
				C1316.5,824.5,1315.7,825.3,1314.7,825.3z M1197.1,821.7h115.8v-10.4h-115.8V821.7z"/>
		</g>
		<g>
			<rect x="1195.3" y="855.4" fill="#FFFFFF" width="119.4" height="15.9"/>
			<path d="M1314.7,873.1h-119.4c-1,0-1.8-0.8-1.8-1.8v-15.9c0-1,0.8-1.8,1.8-1.8h119.4c1,0,1.8,0.8,1.8,1.8v15.9
				C1316.5,872.3,1315.7,873.1,1314.7,873.1z M1197.1,869.5h115.8v-12.3h-115.8V869.5z"/>
		</g>
		<g>
			<rect x="1195.3" y="839.4" fill="#FFFFFF" width="119.4" height="15.9"/>
			<path d="M1314.7,857.2h-119.4c-1,0-1.8-0.8-1.8-1.8v-15.9c0-1,0.8-1.8,1.8-1.8h119.4c1,0,1.8,0.8,1.8,1.8v15.9
				C1316.5,856.4,1315.7,857.2,1314.7,857.2z M1197.1,853.5h115.8v-12.3h-115.8V853.5z"/>
		</g>
		<g>
			<rect x="1195.3" y="823.5" fill="#FFFFFF" width="119.4" height="15.9"/>
			<path d="M1314.7,841.2h-119.4c-1,0-1.8-0.8-1.8-1.8v-15.9c0-1,0.8-1.8,1.8-1.8h119.4c1,0,1.8,0.8,1.8,1.8v15.9
				C1316.5,840.4,1315.7,841.2,1314.7,841.2z M1197.1,837.6h115.8v-12.3h-115.8V837.6z"/>
		</g>
	</g>
	<g>
		<polygon fill="#FFFFFF" points="1112.9,645 1089,645 1065.1,645 1041.2,645 1017.4,645 1017.4,670.3 1017.4,695.5 1017.4,720.8 
			1041.2,720.8 1065.1,720.8 1089,720.8 1112.9,720.8 1136.8,720.8 1136.8,695.5 1136.8,670.3 1136.8,645 		"/>
		<path d="M1136.8,722.6h-119.4c-1,0-1.8-0.8-1.8-1.8V645c0-1,0.8-1.8,1.8-1.8h119.4c1,0,1.8,0.8,1.8,1.8v75.9
			C1138.6,721.8,1137.8,722.6,1136.8,722.6z M1019.2,719h115.8v-72.2h-115.8V719z"/>
	</g>
	<g>
		<g>
			<rect x="1017.6" y="346.3" fill="#FFFFFF" width="0" height="253.7"/>
			<path d="M1017.6,601.8c-1,0-1.8-0.8-1.8-1.8V346.3c0-1,0.8-1.8,1.8-1.8c1,0,1.8,0.8,1.8,1.8V600
				C1019.4,601,1018.6,601.8,1017.6,601.8z"/>
		</g>
		<g>
			<path d="M1298.6,578h-281c-1,0-1.8-0.8-1.8-1.8v-53.9c0-1,0.8-1.8,1.8-1.8h281c10,0,18.2,8.2,18.2,18.2v21.1
				C1316.8,569.9,1308.6,578,1298.6,578z M1019.4,574.4h279.2c8,0,14.6-6.5,14.6-14.6v-21.1c0-8-6.5-14.6-14.6-14.6h-279.2V574.4z"
				/>
		</g>
		<g>
			<path d="M1219,501.9h-201.4c-1,0-1.8-0.8-1.8-1.8v-53.9c0-1,0.8-1.8,1.8-1.8H1219c10,0,18.2,8.2,18.2,18.2v21.1
				C1237.2,493.8,1229.1,501.9,1219,501.9z M1019.4,498.3H1219c8,0,14.6-6.5,14.6-14.6v-21.1c0-8-6.5-14.6-14.6-14.6h-199.6V498.3z"
				/>
		</g>
		<g>
			<path d="M1169.6,425.8h-152c-1,0-1.8-0.8-1.8-1.8v-53.9c0-1,0.8-1.8,1.8-1.8h152c10,0,18.2,8.2,18.2,18.2v21.1
				C1187.8,417.6,1179.6,425.8,1169.6,425.8z M1019.4,422.2h150.2c8,0,14.6-6.5,14.6-14.6v-21.1c0-8-6.5-14.6-14.6-14.6h-150.2
				V422.2z"/>
		</g>
	</g>
	<g>
		<g>
			<rect x="1039.8" y="809.5" fill="#FFFFFF" width="24.9" height="75.9"/>
			<path d="M1064.6,887.1h-24.9c-1,0-1.8-0.8-1.8-1.8v-75.9c0-1,0.8-1.8,1.8-1.8h24.9c1,0,1.8,0.8,1.8,1.8v75.9
				C1066.4,886.3,1065.6,887.1,1064.6,887.1z M1041.6,883.5h21.2v-72.2h-21.2V883.5z"/>
		</g>
		<g>
			<rect x="1017.4" y="809.5" fill="#FFFFFF" width="22.4" height="75.9"/>
			<path d="M1039.8,887.1h-22.4c-1,0-1.8-0.8-1.8-1.8v-75.9c0-1,0.8-1.8,1.8-1.8h22.4c1,0,1.8,0.8,1.8,1.8v75.9
				C1041.6,886.3,1040.8,887.1,1039.8,887.1z M1019.2,883.5h18.8v-72.2h-18.8V883.5z"/>
		</g>
		<g>
			<rect x="1089.5" y="809.5" fill="#FFFFFF" width="24.9" height="75.9"/>
			<path d="M1114.3,887.1h-24.9c-1,0-1.8-0.8-1.8-1.8v-75.9c0-1,0.8-1.8,1.8-1.8h24.9c1,0,1.8,0.8,1.8,1.8v75.9
				C1116.1,886.3,1115.3,887.1,1114.3,887.1z M1091.3,883.5h21.2v-72.2h-21.2V883.5z"/>
		</g>
		<g>
			<rect x="1114.3" y="809.5" fill="#FFFFFF" width="22.4" height="75.9"/>
			<path d="M1136.8,887.1h-22.4c-1,0-1.8-0.8-1.8-1.8v-75.9c0-1,0.8-1.8,1.8-1.8h22.4c1,0,1.8,0.8,1.8,1.8v75.9
				C1138.6,886.3,1137.8,887.1,1136.8,887.1z M1116.1,883.5h18.8v-72.2h-18.8V883.5z"/>
		</g>
		<g>
			<rect x="1064.6" y="809.5" fill="#FFFFFF" width="24.9" height="75.9"/>
			<path d="M1089.5,887.1h-24.9c-1,0-1.8-0.8-1.8-1.8v-75.9c0-1,0.8-1.8,1.8-1.8h24.9c1,0,1.8,0.8,1.8,1.8v75.9
				C1091.3,886.3,1090.5,887.1,1089.5,887.1z M1066.4,883.5h21.2v-72.2h-21.2V883.5z"/>
		</g>
	</g>
	<g>
		<polyline fill="#FFFFFF" points="1052.2,682.9 1074.9,705.6 1120.9,659.7 		"/>
		<path d="M1074.9,707.5c-0.5,0-0.9-0.2-1.3-0.5l-22.7-22.7c-0.7-0.7-0.7-1.9,0-2.6c0.7-0.7,1.9-0.7,2.6,0l21.5,21.5l44.7-44.7
			c0.7-0.7,1.9-0.7,2.6,0c0.7,0.7,0.7,1.9,0,2.6l-46,46C1075.9,707.3,1075.4,707.5,1074.9,707.5z"/>
	</g>
	<g>
		<circle fill="#FFFFFF" cx="143.4" cy="549.3" r="42.6"/>
		<path d="M143.4,593.7c-24.5,0-44.4-19.9-44.4-44.4c0-24.5,19.9-44.4,44.4-44.4s44.4,19.9,44.4,44.4
			C187.8,573.8,167.8,593.7,143.4,593.7z M143.4,508.5c-22.5,0-40.8,18.3-40.8,40.8s18.3,40.8,40.8,40.8s40.8-18.3,40.8-40.8
			S165.8,508.5,143.4,508.5z"/>
	</g>
	<g>
		<polyline fill="#FFFFFF" points="143.4,506.7 143.4,414.1 270.7,414.1 403.2,281.6 		"/>
		<path d="M143.4,508.5c-1,0-1.8-0.8-1.8-1.8v-92.6c0-1,0.8-1.8,1.8-1.8H270l131.9-132c0.7-0.7,1.9-0.7,2.6,0c0.7,0.7,0.7,1.9,0,2.6
			L272,415.4c-0.3,0.3-0.8,0.5-1.3,0.5H145.2v90.8C145.2,507.7,144.4,508.5,143.4,508.5z"/>
	</g>
	<g>
		<path d="M403.2,336.2c-1,0-1.8-0.8-1.8-1.8v-50.9h-50.9c-1,0-1.8-0.8-1.8-1.8s0.8-1.8,1.8-1.8h52.7c1,0,1.8,0.8,1.8,1.8v52.7
			C405,335.4,404.2,336.2,403.2,336.2z"/>
	</g>
	<g>
		<path d="M1323.9,300.5h-284.1c-1,0-1.8-0.8-1.8-1.8v-165c0-1,0.8-1.8,1.8-1.8c1,0,1.8,0.8,1.8,1.8v163.2h282.3
			c1,0,1.8,0.8,1.8,1.8C1325.7,299.7,1324.9,300.5,1323.9,300.5z"/>
	</g>
	<g>
		<g>
			<path d="M495.8,135.7c-2.7-1.7-7.7-3.5-14.8-5.4c-0.3-0.1-0.6-0.2-0.9-0.3c-0.2,0-0.3-0.1-0.5-0.1c-6.7-1.7-11-3.5-13-5.3
				c-2.6-2.4-3.9-5.4-3.9-8.7c0-4.7,1.6-8.3,4.8-10.8c2.9-2.4,6.9-3.6,11.7-3.6c5.2,0,9.5,1.4,12.8,4.3c3.4,2.9,5.2,7.1,5.3,12.3
				l0,0.4h3.9l0-0.5c-0.3-6.4-2.5-11.3-6.5-14.8c-3.9-3.5-9-5.2-15.4-5.2c-5.8,0-10.7,1.5-14.4,4.5c-4.1,3.1-6.1,7.6-6.1,13.5
				c0,4.6,1.6,8.5,4.9,11.4c2.1,1.9,6.9,3.9,14.8,6.1c0.9,0.2,1.1,0.3,1,0.3l0.2,0.1c6.8,1.8,11.3,3.4,13.3,4.8c4,2.5,6,6.3,6,11.2
				c0,4.8-1.9,8.6-5.8,11.4c-3.4,2.5-7.7,3.8-12.7,3.8c-5.8,0-10.4-1.7-13.8-5c-3.3-3.3-5.2-7.9-5.6-13.6l0-0.4h-4l0,0.5
				c0.4,6.9,2.7,12.4,6.8,16.2c4,4,9.6,6,16.4,6c6.5,0,11.8-1.6,15.9-4.7c4.5-3.5,6.8-8.5,6.8-14.9
				C503.1,143.3,500.6,138.8,495.8,135.7z"/>
		</g>
		<g>
			<polygon points="553.5,99.4 507.7,99.4 507.7,103.2 528.6,103.2 528.6,167.2 532.6,167.2 532.6,103.2 553.5,103.2 			"/>
		</g>
		<g>
			<path d="M579.8,99.4h-4.2l-26.1,67.8h4l8.7-22.8h30.5l8.5,22.5l0.1,0.3h4l-25.6-67.5L579.8,99.4z M591.4,140.7h-27.6l13.9-35.9
				L591.4,140.7z"/>
		</g>
		<g>
			<polygon points="601.7,103.2 622.6,103.2 622.6,167.2 626.6,167.2 626.6,103.2 647.5,103.2 647.5,99.4 601.7,99.4 			"/>
		</g>
		<g>
			<rect x="655.7" y="99.4" width="4" height="67.8"/>
		</g>
		<g>
			<path d="M709.6,135.7c-2.7-1.7-7.7-3.5-14.8-5.4c-0.3-0.1-0.6-0.2-0.9-0.3c-0.2,0-0.3-0.1-0.5-0.1c-6.7-1.7-11-3.5-13-5.3
				c-2.6-2.4-3.9-5.4-3.9-8.7c0-4.7,1.6-8.3,4.8-10.8c2.9-2.4,6.9-3.6,11.7-3.6c5.2,0,9.5,1.4,12.8,4.3c3.4,2.9,5.2,7.1,5.3,12.3
				l0,0.4h3.9l0-0.5c-0.3-6.4-2.5-11.3-6.5-14.8c-3.8-3.5-9-5.2-15.4-5.2c-5.8,0-10.7,1.5-14.4,4.5c-4.1,3.1-6.1,7.6-6.1,13.5
				c0,4.6,1.6,8.5,4.9,11.4c2.1,1.9,6.9,3.9,14.8,6.1c0.9,0.2,1,0.3,1,0.3l0.2,0.1c6.8,1.8,11.3,3.4,13.3,4.8c4,2.5,6,6.3,6,11.2
				c0,4.8-1.9,8.6-5.8,11.4c-3.4,2.5-7.7,3.8-12.7,3.8c-5.8,0-10.4-1.7-13.8-5c-3.3-3.3-5.2-7.9-5.6-13.6l0-0.4h-4l0,0.5
				c0.4,6.9,2.7,12.4,6.8,16.2c4,4,9.6,6,16.4,6c6.5,0,11.8-1.6,15.9-4.7c4.5-3.5,6.8-8.5,6.8-14.9
				C716.9,143.3,714.5,138.8,709.6,135.7z"/>
		</g>
		<g>
			<polygon points="721.6,103.2 742.4,103.2 742.4,167.2 746.5,167.2 746.5,103.2 767.3,103.2 767.3,99.4 721.6,99.4 			"/>
		</g>
		<g>
			<rect x="775.5" y="99.4" width="4" height="67.8"/>
		</g>
		<g>
			<path d="M841.5,149.1c-1,4.3-3.1,7.8-6.3,10.5c-4,3.5-9.4,5.3-16,5.3c-8.1,0-14.3-3.4-18.4-10c-3.5-5.5-5.2-12.8-5.2-21.5
				c0-8.7,1.8-16,5.4-21.7c4.2-6.7,10.5-10.1,18.7-10.1c11,0,18.1,4.5,21,13.5l0.2,0.5l3.7-1.9l-0.1-0.4c-1.4-3.8-3.8-7.1-7.1-9.8
				c-4.7-3.7-10.4-5.6-17.1-5.6c-9.8,0-17.4,3.6-22.3,10.8c-4.3,6.3-6.5,14.6-6.5,24.7c0,10.1,2.1,18.3,6.3,24.3
				c4.9,7.1,12.3,10.7,21.9,10.7c7.5,0,13.7-2.1,18.3-6.2c3.5-3.1,5.8-7,7-11.6l0.1-0.4l-3.5-1.8L841.5,149.1z"/>
		</g>
		<g>
			<path d="M894.6,135.7c-2.7-1.7-7.7-3.5-14.8-5.4c-0.3-0.1-0.6-0.2-0.9-0.3c-0.2,0-0.3-0.1-0.5-0.1c-6.7-1.7-11-3.5-13-5.3
				c-2.6-2.4-3.9-5.4-3.9-8.7c0-4.7,1.6-8.3,4.8-10.8c2.9-2.4,6.9-3.6,11.7-3.6c5.2,0,9.5,1.4,12.8,4.3c3.4,2.9,5.2,7.1,5.3,12.3
				l0,0.4h3.9l0-0.5c-0.3-6.4-2.5-11.3-6.5-14.8c-3.8-3.5-9-5.2-15.4-5.2c-5.8,0-10.7,1.5-14.4,4.5c-4.1,3.1-6.1,7.6-6.1,13.5
				c0,4.6,1.6,8.5,4.9,11.4c2.1,1.9,6.9,3.9,14.8,6.1c0.9,0.2,1.1,0.3,1,0.3l0.2,0.1c6.8,1.8,11.3,3.4,13.3,4.8c4,2.5,6,6.3,6,11.2
				c0,4.8-1.9,8.6-5.8,11.4c-3.4,2.5-7.7,3.8-12.7,3.8c-5.8,0-10.4-1.7-13.8-5c-3.3-3.3-5.2-7.9-5.6-13.6l0-0.4h-4l0,0.5
				c0.4,6.9,2.7,12.4,6.8,16.2c4,4,9.6,6,16.4,6c6.5,0,11.8-1.6,15.9-4.7c4.5-3.5,6.8-8.5,6.8-14.9
				C901.9,143.3,899.4,138.8,894.6,135.7z"/>
		</g>
	</g>
	<g>
		<path d="M161.7,328.9h-60.9c-1,0-1.8-0.8-1.8-1.8v-92.9H81.5c-0.7,0-1.4-0.4-1.7-1.1c-0.3-0.7-0.1-1.5,0.4-2l49.8-50.8
			c0.7-0.7,1.9-0.7,2.6,0l49.8,50.8c0.5,0.5,0.7,1.3,0.4,2c-0.3,0.7-0.9,1.1-1.7,1.1h-17.5v92.9
			C163.5,328.1,162.7,328.9,161.7,328.9z M102.6,325.3h57.3v-92.9c0-1,0.8-1.8,1.8-1.8h15l-45.5-46.4l-45.5,46.4h15
			c1,0,1.8,0.8,1.8,1.8V325.3z"/>
	</g>
	<g>
		<path d="M230.8,328.9h-0.2c-1,0-1.8-0.8-1.8-1.8V160.8h-17.5c-0.7,0-1.4-0.4-1.7-1.1c-0.3-0.7-0.1-1.5,0.4-2l49.8-50.8
			c0.7-0.7,1.9-0.7,2.6,0l49.8,50.8c0.5,0.5,0.7,1.3,0.4,2c-0.3,0.7-0.9,1.1-1.7,1.1h-17.5v105.5c0,0.5-0.2,0.9-0.5,1.3l-60.8,60.8
			C231.7,328.7,231.3,328.9,230.8,328.9z M215.6,157.2h15c1,0,1.8,0.8,1.8,1.8v163.8l57.3-57.3V159c0-1,0.8-1.8,1.8-1.8h15
			l-45.5-46.4L215.6,157.2z"/>
	</g>
	<g>
		<path d="M236.2,441.3h-92.8c-1,0-1.8-0.8-1.8-1.8c0-1,0.8-1.8,1.8-1.8h92.8c1,0,1.8,0.8,1.8,1.8
			C238,440.5,237.2,441.3,236.2,441.3z"/>
	</g>
	<g>
		<path d="M206.8,466.7h-63.4c-1,0-1.8-0.8-1.8-1.8c0-1,0.8-1.8,1.8-1.8h63.4c1,0,1.8,0.8,1.8,1.8
			C208.6,465.9,207.8,466.7,206.8,466.7z"/>
	</g>
	<g>
		<path d="M1039.8,300.5c-0.5,0-0.9-0.2-1.3-0.5c-0.7-0.7-0.7-1.9,0-2.6l69.5-69.5c0.6-0.6,1.7-0.7,2.4-0.2l34.5,26.7l44.2-58.4
			c0.3-0.4,0.9-0.7,1.4-0.7c0.5,0,1.1,0.2,1.4,0.7l35.4,43.1l51.4-106.3c0.4-0.9,1.5-1.3,2.4-0.8c0.9,0.4,1.3,1.5,0.8,2.4
			l-52.6,108.8c-0.3,0.6-0.8,0.9-1.4,1c-0.6,0.1-1.2-0.2-1.6-0.7l-35.7-43.6l-43.9,58c-0.3,0.4-0.7,0.6-1.2,0.7
			c-0.5,0.1-1-0.1-1.3-0.4l-34.7-26.9l-68.4,68.4C1040.7,300.3,1040.2,300.5,1039.8,300.5z"/>
	</g>
	<g>
		<g>
			<path d="M1280.4,142.7c-1,0-1.8-0.8-1.8-1.8v-7.3c0-1,0.8-1.8,1.8-1.8c1,0,1.8,0.8,1.8,1.8v7.3
				C1282.2,141.9,1281.4,142.7,1280.4,142.7z"/>
		</g>
		<g>
			<path d="M1280.4,283.2c-1,0-1.8-0.8-1.8-1.8V268c0-1,0.8-1.8,1.8-1.8c1,0,1.8,0.8,1.8,1.8v13.4
				C1282.2,282.4,1281.4,283.2,1280.4,283.2z M1280.4,259.8c-1,0-1.8-0.8-1.8-1.8v-13.4c0-1,0.8-1.8,1.8-1.8c1,0,1.8,0.8,1.8,1.8
				V258C1282.2,259,1281.4,259.8,1280.4,259.8z M1280.4,236.4c-1,0-1.8-0.8-1.8-1.8v-13.4c0-1,0.8-1.8,1.8-1.8c1,0,1.8,0.8,1.8,1.8
				v13.4C1282.2,235.6,1281.4,236.4,1280.4,236.4z M1280.4,213c-1,0-1.8-0.8-1.8-1.8v-13.4c0-1,0.8-1.8,1.8-1.8c1,0,1.8,0.8,1.8,1.8
				v13.4C1282.2,212.1,1281.4,213,1280.4,213z M1280.4,189.5c-1,0-1.8-0.8-1.8-1.8v-13.4c0-1,0.8-1.8,1.8-1.8c1,0,1.8,0.8,1.8,1.8
				v13.4C1282.2,188.7,1281.4,189.5,1280.4,189.5z M1280.4,166.1c-1,0-1.8-0.8-1.8-1.8v-13.4c0-1,0.8-1.8,1.8-1.8
				c1,0,1.8,0.8,1.8,1.8v13.4C1282.2,165.3,1281.4,166.1,1280.4,166.1z"/>
		</g>
		<g>
			<path d="M1280.4,300.5c-1,0-1.8-0.8-1.8-1.8v-7.3c0-1,0.8-1.8,1.8-1.8c1,0,1.8,0.8,1.8,1.8v7.3
				C1282.2,299.7,1281.4,300.5,1280.4,300.5z"/>
		</g>
	</g>
	<g>
		<path d="M1190.6,300.5c-1,0-1.8-0.8-1.8-1.8c0-1,0.8-1.8,1.8-1.8h0c1,0,1.8,0.8,1.8,1.8C1192.4,299.7,1191.6,300.5,1190.6,300.5z
			 M1190.6,289.6c-1,0-1.8-0.8-1.8-1.8v-14.5c0-1,0.8-1.8,1.8-1.8c1,0,1.8,0.8,1.8,1.8v14.5C1192.4,288.8,1191.6,289.6,1190.6,289.6
			z M1190.6,264.2c-1,0-1.8-0.8-1.8-1.8v-14.5c0-1,0.8-1.8,1.8-1.8c1,0,1.8,0.8,1.8,1.8v14.5
			C1192.4,263.4,1191.6,264.2,1190.6,264.2z M1190.6,238.8c-1,0-1.8-0.8-1.8-1.8v-14.5c0-1,0.8-1.8,1.8-1.8c1,0,1.8,0.8,1.8,1.8V237
			C1192.4,238,1191.6,238.8,1190.6,238.8z M1190.6,213.4c-1,0-1.8-0.8-1.8-1.8v-14.5c0-1,0.8-1.8,1.8-1.8c1,0,1.8,0.8,1.8,1.8v14.5
			C1192.4,212.6,1191.6,213.4,1190.6,213.4z"/>
	</g>
	<g>
		<path d="M1109.3,296.2c-1,0-1.8-0.8-1.8-1.8v-14.5c0-1,0.8-1.8,1.8-1.8c1,0,1.8,0.8,1.8,1.8v14.5
			C1111.1,295.4,1110.3,296.2,1109.3,296.2z M1109.3,270.8c-1,0-1.8-0.8-1.8-1.8v-14.5c0-1,0.8-1.8,1.8-1.8c1,0,1.8,0.8,1.8,1.8V269
			C1111.1,270,1110.3,270.8,1109.3,270.8z M1109.3,245.4c-1,0-1.8-0.8-1.8-1.8v-14.5c0-1,0.8-1.8,1.8-1.8c1,0,1.8,0.8,1.8,1.8v14.5
			C1111.1,244.6,1110.3,245.4,1109.3,245.4z"/>
	</g>
	<g>
		<path d="M1308.1,316.3c-0.5,0-0.9-0.2-1.3-0.5c-0.7-0.7-0.7-1.9,0-2.6l14.5-14.5l-14.5-14.5c-0.7-0.7-0.7-1.9,0-2.6
			c0.7-0.7,1.9-0.7,2.6,0l15.8,15.8c0.7,0.7,0.7,1.9,0,2.6l-15.8,15.8C1309,316.1,1308.6,316.3,1308.1,316.3z"/>
	</g>
	<g>
		<path d="M1055.6,151.2c-0.5,0-0.9-0.2-1.3-0.5l-14.5-14.5l-14.5,14.5c-0.7,0.7-1.9,0.7-2.6,0c-0.7-0.7-0.7-1.9,0-2.6l15.8-15.8
			c0.7-0.7,1.9-0.7,2.6,0l15.8,15.8c0.7,0.7,0.7,1.9,0,2.6C1056.5,151.1,1056,151.2,1055.6,151.2z"/>
	</g>
	<g>
		<path d="M526,193.9h-92.5c-1,0-1.8-0.8-1.8-1.8v-41.7h-63c-1,0-1.8-0.8-1.8-1.8s0.8-1.8,1.8-1.8h64.8c1,0,1.8,0.8,1.8,1.8v41.7
			H526c1,0,1.8,0.8,1.8,1.8C527.8,193.1,527,193.9,526,193.9z"/>
	</g>
	<g>
		<path d="M578.5,193.9h-33.1c-1,0-1.8-0.8-1.8-1.8c0-1,0.8-1.8,1.8-1.8h33.1c1,0,1.8,0.8,1.8,1.8
			C580.4,193.1,579.5,193.9,578.5,193.9z"/>
	</g>
	<g>
		<path d="M609.8,193.9h-12.2c-1,0-1.8-0.8-1.8-1.8c0-1,0.8-1.8,1.8-1.8h12.2c1,0,1.8,0.8,1.8,1.8
			C611.6,193.1,610.8,193.9,609.8,193.9z"/>
	</g>
	<g>
		<path d="M914.8,193.9H835c-1,0-1.8-0.8-1.8-1.8c0-1,0.8-1.8,1.8-1.8h79l21.9-21.9c0.7-0.7,1.9-0.7,2.6,0c0.7,0.7,0.7,1.9,0,2.6
			L916,193.4C915.7,193.7,915.2,193.9,914.8,193.9z"/>
	</g>
	<g>
		<path d="M656.9,872.8h-53.6c-1,0-1.8-0.8-1.8-1.8v-53.6c0-1,0.8-1.8,1.8-1.8h53.6c1,0,1.8,0.8,1.8,1.8V871
			C658.7,872,657.9,872.8,656.9,872.8z M605.1,869.2h49.9v-49.9h-49.9V869.2z"/>
	</g>
	<g>
		<path d="M744,872.8c-15.8,0-28.6-12.8-28.6-28.6s12.8-28.6,28.6-28.6c15.8,0,28.6,12.8,28.6,28.6S759.8,872.8,744,872.8z
			 M744,819.3c-13.8,0-25,11.2-25,25s11.2,25,25,25s25-11.2,25-25S757.8,819.3,744,819.3z"/>
	</g>
	<g>
		<path d="M717.2,846.1h-60.3c-1,0-1.8-0.8-1.8-1.8c0-1,0.8-1.8,1.8-1.8h60.3c1,0,1.8,0.8,1.8,1.8
			C719,845.2,718.2,846.1,717.2,846.1z"/>
	</g>
	<g>
		<path d="M339.2,504.4c-17.2,0-31.3-14-31.3-31.3c0-17.2,14-31.3,31.3-31.3c17.2,0,31.3,14,31.3,31.3
			C370.4,490.4,356.4,504.4,339.2,504.4z M339.2,445.5c-15.3,0-27.7,12.4-27.7,27.7s12.4,27.7,27.7,27.7s27.7-12.4,27.7-27.7
			S354.4,445.5,339.2,445.5z"/>
	</g>
	<g>
		<path d="M1255.7,687.6C1255.7,687.6,1255.7,687.6,1255.7,687.6h-60.4c-0.6,0-1.2-0.3-1.6-0.9c-0.3-0.6-0.3-1.3,0-1.8l30.2-52.3
			c0.6-1.1,2.5-1.1,3.1,0l30,51.9c0.3,0.3,0.5,0.8,0.5,1.3C1257.5,686.8,1256.7,687.6,1255.7,687.6z M1198.4,684h54.1l-27-46.8
			L1198.4,684z"/>
	</g>
	<g>
		<path d="M413.4,491.8c-0.5,0-0.9-0.2-1.3-0.5c-0.7-0.7-0.7-1.9,0-2.6l88.2-88.2c0.7-0.7,1.9-0.7,2.6,0s0.7,1.9,0,2.6l-88.2,88.2
			C414.3,491.6,413.9,491.8,413.4,491.8z"/>
	</g>
	<g>
		<path d="M645.3,454.4c-0.5,0-0.9-0.2-1.3-0.5c-0.7-0.7-0.7-1.9,0-2.6l98.9-98.9c0.7-0.7,1.9-0.7,2.6,0c0.7,0.7,0.7,1.9,0,2.6
			l-98.9,98.9C646.2,454.2,645.7,454.4,645.3,454.4z"/>
	</g>
	<g>
		<path d="M609.8,418.9c-0.5,0-0.9-0.2-1.3-0.5c-0.7-0.7-0.7-1.9,0-2.6l50.6-50.6c0.7-0.7,1.9-0.7,2.6,0s0.7,1.9,0,2.6l-50.6,50.6
			C610.8,418.8,610.3,418.9,609.8,418.9z"/>
	</g>
</g>
</svg>
