<?xml version="1.0"?>
<svg xmlns="http://www.w3.org/2000/svg" id="Outline" viewBox="0 0 64 64" width="512" height="512"><path d="M60,46H57V15a3.00328,3.00328,0,0,0-3-3H10a3.00328,3.00328,0,0,0-3,3V46H4a2.00229,2.00229,0,0,0-2,2v1a3.00328,3.00328,0,0,0,3,3H59a3.00328,3.00328,0,0,0,3-3V48A2.00229,2.00229,0,0,0,60,46ZM9,15a1.001,1.001,0,0,1,1-1H54a1.001,1.001,0,0,1,1,1V46H9ZM60,49a1.001,1.001,0,0,1-1,1H5a1.001,1.001,0,0,1-1-1V48H60Z"/><path d="M32,34a8,8,0,1,0-8-8A8.00917,8.00917,0,0,0,32,34Zm-1-9a1,1,0,1,1,1,1A1.001,1.001,0,0,1,31,25Zm-1,6.65V30a2,2,0,0,1,4,0v1.65a5.88865,5.88865,0,0,1-4,0ZM32,20a5.99129,5.99129,0,0,1,4,10.45953V30a3.98431,3.98431,0,0,0-1.619-3.19543A2.9706,2.9706,0,0,0,35,25a3,3,0,0,0-6,0,2.9706,2.9706,0,0,0,.619,1.80457A3.98431,3.98431,0,0,0,28,30v.45953A5.99129,5.99129,0,0,1,32,20Z"/><path d="M41,36H23a2.00229,2.00229,0,0,0-2,2v2a2.00229,2.00229,0,0,0,2,2H41a2.00229,2.00229,0,0,0,2-2V38A2.00229,2.00229,0,0,0,41,36ZM23,38h2v2H23Zm4,2V38H41l.00146,2Z"/><rect x="45" y="39" width="2" height="2"/></svg>
