<svg enable-background="new 0 0 110 110" height="512" viewBox="0 0 110 110" width="512" xmlns="http://www.w3.org/2000/svg"><path d="m74.2653503 15.749054h-38.5307006c-3.7537231 0-6.7966919 3.0429688-6.7966919 6.7966919v64.9085083c0 3.7537231 3.0429688 6.7966919 6.7966919 6.7966919h38.5307007c3.7537231 0 6.7966919-3.0429688 6.7966919-6.7966919v-64.9085084c-.0000001-3.7537231-3.0429688-6.7966918-6.796692-6.7966918z" fill="#2f4859"/><path d="m35.7342224 92.250885c-2.6445312 0-4.7958984-2.1518555-4.7958984-4.796875v-64.9082031c0-2.6450195 2.1513672-4.796875 4.7958984-4.796875h38.53125c2.6445312 0 4.796875 2.1518555 4.796875 4.796875v64.9082031c0 2.6450195-2.1523438 4.796875-4.796875 4.796875z" fill="#3a556a"/><path d="m30.938324 27.599554h48.124023v54.800709h-48.124023z" fill="#27a2db"/><g fill="#2f4859"><path d="m48.443687 21.237618h13.113294v2.55668h-13.113294z"/><path d="m66.5857925 21.2375793c-.7059937 0-1.2783203.5723267-1.2783203 1.2783813 0 .7059937.5723267 1.2783203 1.2783203 1.2783203.7060547 0 1.2783813-.5723267 1.2783813-1.2783203.0000001-.7060546-.5723266-1.2783813-1.2783813-1.2783813z"/><path d="m58.322937 85.2745132h-6.6452026c-.3902588 0-.706604.3163452-.706604.706604v2.7192993c0 .3902588.3163452.706604.706604.706604h6.6452026c.3902588 0 .706604-.3163452.706604-.706604v-2.7192993c0-.3902587-.3163452-.706604-.706604-.706604z"/></g><path d="m51.59359 45.563549h6.812378v9.268004h-6.812378z" fill="#f7be56"/><path d="m60.4909401 71.3702164v-17.9439926l-1.0942764-.5992852-4.3968773.8698311-4.3968811-.8698311-.1881752.1030503v18.4402275z" fill="#d5d6db"/><path d="m66.3255463 57.0601158c-.5237198-.5763206-1.1399994-1.0621948-1.8236008-1.4365997l-4.3876076-2.4041367-.7172585-.3933449-.4185791.0820465c-.288147 2.3073921-1.3966179 10.1634369-3.9753532 17.8049545-2.5787086-7.6394119-3.6892853-15.4933739-3.9774361-17.8028488l-.4227905-.0841522-.7067223.3870239-4.4002266 2.4104576c-.6836014.3744049-1.2998772.8602791-1.8215179 1.4365997-1.1715813 1.289341-1.8194122 2.9678383-1.8194122 4.7094193v8.2769737c0 1.3775864 1.1167526 2.494339 2.4943352 2.494339h21.3012505c1.3775787 0 2.4943314-1.1167526 2.4943314-2.494339v-8.2769737c-.0000001-1.7415809-.6478349-3.4200782-1.8194123-4.7094192z" fill="#d5d6db"/><path d="m56.8282356 55.3025742-.9130516-1.581482-.9153976-.0243225-.9107323.0243225-.9130745 1.581482.8949547 1.5500984-.8949547 13.3858528 1.8261261 1.9878158 1.8261299-1.8615264-.8951797-13.5117188z" fill="#44c4a1"/><path d="m58.4059715 51.0872841-3.4061889 2.6094856 2.8311843 3.6532822 1.565693-4.5231095z" fill="#ebf0f3"/><path d="m51.5935898 51.0872841 3.4061928 2.6094856-2.8311882 3.6532822-1.5656929-4.5231095z" fill="#ebf0f3"/><g fill="#fcd462"><ellipse cx="60.203" cy="44.415" rx="1.677" ry=".804" transform="matrix(.114 -.993 .993 .114 9.216 99.164)"/><ellipse cx="49.707" cy="44.415" rx=".804" ry="1.677" transform="matrix(.993 -.114 .114 .993 -4.738 5.954)"/><path d="m59.9965477 45.3986168-.2007675-5.9260979-.7026711-1.9107475-4.1064491-1.1076813-4.1064491 1.1076813-.7026711 1.9107475-.2007637 5.9260979s-.2342186 1.4399872.3011475 2.4922829 1.0372734 1.5328255 1.7399406 2.2340889c.7026711.7012672 1.6211853.9187126 2.9687958.9622955 1.3476105-.0435829 2.2661247-.2610283 2.9687958-.9622955.7026711-.7012634 1.2045784-1.1817932 1.7399445-2.2340889s.3011474-2.4922829.3011474-2.4922829z"/></g><path d="m59.8587227 44.4152031s.6363449-2.9232216.7070503-3.8517723-.3535271-2.2010117-.3535271-2.2010117-.5656395-2.304184-2.2625656-3.1639557c-1.6969261-.8597679-4.4190788-.4814682-6.2220612.2407379-1.8029861.7222061-2.3686256 3.817379-2.2979202 4.9522743.0707054 1.1348991.7070503 4.0237274.7070503 4.0237274h.1247444s-.4782715-4.0237274.3348389-4.5739784c.8131104-.5502548 1.8660812-1.031723 3.7966042-.8253784s4.5466156-.1375656 4.5466156-.1375656.4606743 2.0908279.7788506 2.503521c.1987495.2577896-.0014114 2.2314873-.0458984 3.0334015z" fill="#2f4859"/></svg>