<?xml version="1.0" encoding="utf-8"?>
<!-- Generator: Adobe Illustrator 23.0.1, SVG Export Plug-In . SVG Version: 6.00 Build 0)  -->
<svg version="1.1" id="Layer_1" xmlns="http://www.w3.org/2000/svg" xmlns:xlink="http://www.w3.org/1999/xlink" x="0px" y="0px"
	 viewBox="0 0 480 480" style="enable-background:new 0 0 480 480;" xml:space="preserve">
<path d="M232,360h16v16h-16V360z"/>
<path d="M264,360h16v16h-16V360z"/>
<path d="M200,360h16v16h-16V360z"/>
<path d="M320.1,256h-4.8l-32.9-32.9c-4.5-4.5-10.6-7.1-17-7.1H248v-8c0-4.4-3.6-8-8-8s-8,3.6-8,8v8h-31c-3.2,0.1-6.3,0.8-9.3,2.1
	c-4.7,1.9-8.6,5.3-11.3,9.6l-17,28.3h-7.9c-15.2,0-27.6,12.4-27.6,27.6V320c0,4.4,3.6,8,8,8h25.3c3.5,11.9,14.3,20,26.7,20
	s23.2-8.1,26.7-20h50.6c3.5,11.9,14.3,20,26.7,20s23.2-8.1,26.7-20H344c4.4,0,8-3.6,8-8v-32.1C352,270.3,337.7,256,320.1,256z
	 M271.1,234.4l21.6,21.6H256v-24h9.4C267.5,232,269.6,232.9,271.1,234.4z M240,232v24h-16v-24H240z M208,232v24h-25.9l12.1-20.1
	c1.4-2.4,4-3.9,6.8-3.9H208z M188,332c-6.6,0-12-5.4-12-12s5.4-12,12-12s12,5.4,12,12S194.6,332,188,332z M292,332
	c-6.6,0-12-5.4-12-12s5.4-12,12-12s12,5.4,12,12S298.6,332,292,332z M318.7,312c-3.5-11.9-14.3-20-26.7-20s-23.2,8.1-26.7,20h-50.6
	c-3.5-11.9-14.3-20-26.7-20s-23.2,8.1-26.7,20H144v-16h16v-16h-15.4c1.5-4.8,6-8,11-8h164.5c5.7,0,10.9,3.1,13.7,8H320v16h16v16
	H318.7z"/>
<path d="M276,121.6c7.8,4.5,14.6,10.4,20.2,17.4l12.5-10c-6.8-8.6-15.2-15.8-24.7-21.3c-37.7-21.5-85.4-12.5-112.7,21.3l12.5,10
	C206.1,111.5,245.2,104.1,276,121.6z"/>
<path d="M271.2,159l12.5-10C273.1,135.7,257,128,240,128s-33.1,7.8-43.7,21.1l12.5,10c7.6-9.5,19-15.1,31.2-15.1
	S263.6,149.5,271.2,159L271.2,159z"/>
<path d="M221.3,169.1l12.5,10c1.5-1.9,3.8-3.1,6.2-3.1s4.7,1.1,6.2,3.1l12.5-10c-4.5-5.7-11.4-9.1-18.7-9.1S225.8,163.3,221.3,169.1
	L221.3,169.1z"/>
</svg>
